%TF.GenerationSoftware,KiCad,Pcbnew,9.0.6*%
%TF.CreationDate,2026-09-17T04:04:04+10:00*%
%TF.ProjectId,ESP32Seatalk,45535033-3253-4656-9174-616c6b2e6b69,rev?*%
%TF.SameCoordinates,Original*%
%TF.FileFunction,Copper,L1,Top*%
%TF.FilePolarity,Positive*%
%FSLAX46Y46*%
G04 Gerber Fmt 4.6, Leading zero omitted, Abs format (unit mm)*
G04 Created by KiCad (PCBNEW 9.0.6) date 2026-09-17 04:04:04*
%MOMM*%
%LPD*%
G01*
G04 APERTURE LIST*
%TA.AperFunction,ComponentPad*%
%ADD10C,1.700000*%
%TD*%
%TA.AperFunction,ComponentPad*%
%ADD11R,1.700000X1.700000*%
%TD*%
%TA.AperFunction,ComponentPad*%
%ADD12C,3.500000*%
%TD*%
%TA.AperFunction,ViaPad*%
%ADD13C,0.600000*%
%TD*%
%TA.AperFunction,Conductor*%
%ADD14C,0.600000*%
%TD*%
%TA.AperFunction,Conductor*%
%ADD15C,0.200000*%
%TD*%
G04 APERTURE END LIST*
D10*
%TO.P,U2,0,GPIO0*%
%TO.N,Net-(J5-Pin_1)*%
X85090000Y-76200000D03*
%TO.P,U2,1,GPIO1*%
%TO.N,Net-(J5-Pin_2)*%
X85090000Y-73660000D03*
%TO.P,U2,2,GPIO2*%
%TO.N,Net-(J5-Pin_3)*%
X85090000Y-71120000D03*
%TO.P,U2,3,GPIO21*%
%TO.N,Net-(J5-Pin_4)*%
X85090000Y-68580000D03*
%TO.P,U2,4,GPIO20*%
%TO.N,Net-(J5-Pin_5)*%
X85090000Y-66040000D03*
%TO.P,U2,5,3.3v*%
%TO.N,+3.3V*%
X85090000Y-63500000D03*
%TO.P,U2,6,GND*%
%TO.N,GND*%
X85090000Y-60960000D03*
D11*
%TO.P,U2,7,5v*%
%TO.N,unconnected-(U2-5v-Pad7)*%
X85090000Y-58420000D03*
%TO.P,U2,8,GPIO10*%
%TO.N,CAN_RX_LL*%
X102870000Y-58420000D03*
D10*
%TO.P,U2,9,GPIO9*%
%TO.N,Net-(J6-Pin_1)*%
X102870000Y-60960000D03*
%TO.P,U2,10,GPIO8*%
%TO.N,Net-(J6-Pin_2)*%
X102870000Y-63500000D03*
%TO.P,U2,11,GPIO7*%
%TO.N,CAN_TX_LL*%
X102870000Y-66040000D03*
%TO.P,U2,12,GPIO6*%
%TO.N,Net-(J6-Pin_3)*%
X102870000Y-68580000D03*
%TO.P,U2,13,GPIO5*%
%TO.N,Net-(J6-Pin_4)*%
X102870000Y-71120000D03*
%TO.P,U2,14,GPIO4*%
%TO.N,LV_SEATALK*%
X102870000Y-73660000D03*
%TO.P,U2,15,GPIO3*%
%TO.N,Net-(J6-Pin_5)*%
X102870000Y-76200000D03*
%TD*%
D11*
%TO.P,J1,1,Pin_1*%
%TO.N,+12V*%
X107188000Y-86360000D03*
D10*
%TO.P,J1,2,Pin_2*%
%TO.N,HV_SEATALK*%
X107188000Y-83820000D03*
%TO.P,J1,3,Pin_3*%
%TO.N,GND*%
X107188000Y-81280000D03*
%TD*%
D12*
%TO.P,H2,1,1*%
%TO.N,GND*%
X108712000Y-57404000D03*
%TD*%
D11*
%TO.P,J7,1,Pin_1*%
%TO.N,GND*%
X85852000Y-83820000D03*
D10*
%TO.P,J7,2,Pin_2*%
X88392000Y-83820000D03*
%TO.P,J7,3,Pin_3*%
X90932000Y-83820000D03*
%TD*%
D12*
%TO.P,H1,1,1*%
%TO.N,GND*%
X78740000Y-57404000D03*
%TD*%
D11*
%TO.P,J4,1,Pin_1*%
%TO.N,+3.3V*%
X87884000Y-88392000D03*
D10*
%TO.P,J4,2,Pin_2*%
%TO.N,GND*%
X90424000Y-88392000D03*
%TO.P,J4,3,Pin_3*%
%TO.N,CAN_TX_LL*%
X92964000Y-88392000D03*
%TO.P,J4,4,Pin_4*%
%TO.N,CAN_RX_LL*%
X95504000Y-88392000D03*
%TO.P,J4,5,Pin_5*%
%TO.N,CANH*%
X98044000Y-88392000D03*
%TO.P,J4,6,Pin_6*%
%TO.N,CANL*%
X100584000Y-88392000D03*
%TD*%
D11*
%TO.P,J5,1,Pin_1*%
%TO.N,Net-(J5-Pin_1)*%
X80772000Y-75692000D03*
D10*
%TO.P,J5,2,Pin_2*%
%TO.N,Net-(J5-Pin_2)*%
X80772000Y-73152000D03*
%TO.P,J5,3,Pin_3*%
%TO.N,Net-(J5-Pin_3)*%
X80772000Y-70612000D03*
%TO.P,J5,4,Pin_4*%
%TO.N,Net-(J5-Pin_4)*%
X80772000Y-68072000D03*
%TO.P,J5,5,Pin_5*%
%TO.N,Net-(J5-Pin_5)*%
X80772000Y-65532000D03*
%TD*%
D11*
%TO.P,J3,1,Pin_1*%
%TO.N,GND*%
X97028000Y-83820000D03*
D10*
%TO.P,J3,2,Pin_2*%
%TO.N,CANH*%
X99568000Y-83820000D03*
%TO.P,J3,3,Pin_3*%
%TO.N,CANL*%
X102108000Y-83820000D03*
%TD*%
D11*
%TO.P,J6,1,Pin_1*%
%TO.N,Net-(J6-Pin_1)*%
X107188000Y-65532000D03*
D10*
%TO.P,J6,2,Pin_2*%
%TO.N,Net-(J6-Pin_2)*%
X107188000Y-68072000D03*
%TO.P,J6,3,Pin_3*%
%TO.N,Net-(J6-Pin_3)*%
X107188000Y-70612000D03*
%TO.P,J6,4,Pin_4*%
%TO.N,Net-(J6-Pin_4)*%
X107188000Y-73152000D03*
%TO.P,J6,5,Pin_5*%
%TO.N,Net-(J6-Pin_5)*%
X107188000Y-75692000D03*
%TD*%
D11*
%TO.P,J2,1,Pin_1*%
%TO.N,+12V*%
X80772000Y-81280000D03*
D10*
%TO.P,J2,2,Pin_2*%
%TO.N,HV_SEATALK*%
X80772000Y-83820000D03*
%TO.P,J2,3,Pin_3*%
%TO.N,GND*%
X80772000Y-86360000D03*
%TD*%
D12*
%TO.P,H4,1,1*%
%TO.N,GND*%
X108712000Y-91948000D03*
%TD*%
%TO.P,H3,1,1*%
%TO.N,GND*%
X78740000Y-91948000D03*
%TD*%
D13*
%TO.N,GND*%
X98806000Y-67691000D03*
X93599000Y-72390000D03*
%TD*%
D14*
%TO.N,GND*%
X97578000Y-83270000D02*
X97028000Y-83820000D01*
%TO.N,+12V*%
X106638000Y-86910000D02*
X107188000Y-86360000D01*
X86284000Y-89552700D02*
X86723300Y-89992000D01*
X81322000Y-81830000D02*
X81322000Y-82130000D01*
X101298400Y-89942100D02*
X106462300Y-87510000D01*
X89044700Y-89992000D02*
X101177800Y-89992000D01*
X81322000Y-82130000D02*
X81322000Y-82254300D01*
X106638000Y-87334300D02*
X106638000Y-87210000D01*
X106638000Y-87210000D02*
X106638000Y-86910000D01*
X81322000Y-82254300D02*
X82232400Y-83165500D01*
X80772000Y-81280000D02*
X81322000Y-81830000D01*
X86723300Y-89992000D02*
X88423300Y-89992000D01*
X83282400Y-85497700D02*
X86284000Y-89552700D01*
X101177800Y-89992000D02*
X101298400Y-89942100D01*
X106462300Y-87510000D02*
X106638000Y-87334300D01*
X88423300Y-89992000D02*
X89044700Y-89992000D01*
X82232400Y-83165500D02*
X83282400Y-85497700D01*
%TO.N,+3.3V*%
X87334000Y-87417700D02*
X87158300Y-87242000D01*
X87334000Y-87542000D02*
X87334000Y-87417700D01*
X84691300Y-85420000D02*
X84252000Y-84980700D01*
X83490000Y-65446200D02*
X83539900Y-65325600D01*
X87158300Y-87242000D02*
X84691300Y-85420000D01*
X84252000Y-84980700D02*
X83490000Y-76793800D01*
X83490000Y-75606200D02*
X83490000Y-65446200D01*
X83539900Y-65325600D02*
X85090000Y-63500000D01*
X87334000Y-87842000D02*
X87334000Y-87542000D01*
X83490000Y-76793800D02*
X83490000Y-75606200D01*
X87884000Y-88392000D02*
X87334000Y-87842000D01*
D15*
%TO.N,CAN_TX_LL*%
X101120000Y-67956300D02*
X101192800Y-67780600D01*
X95128000Y-82535100D02*
X101120000Y-67956300D01*
X101192800Y-67780600D02*
X102870000Y-66040000D01*
X92964000Y-88392000D02*
X95128000Y-82535100D01*
%TO.N,CAN_RX_LL*%
X104120000Y-60442200D02*
X103620000Y-59311400D01*
X102352200Y-67330000D02*
X103387800Y-67290000D01*
X95628000Y-82742200D02*
X101620000Y-68062200D01*
X95504000Y-88392000D02*
X95628000Y-82742200D01*
X103620000Y-59170000D02*
X102870000Y-58420000D01*
X104120000Y-65522200D02*
X104120000Y-60442200D01*
X101620000Y-68062200D02*
X102352200Y-67330000D01*
X103387800Y-67290000D02*
X104120000Y-66557800D01*
X103620000Y-59270000D02*
X103620000Y-59170000D01*
X103620000Y-59311400D02*
X103620000Y-59270000D01*
X104120000Y-66557800D02*
X104120000Y-65522200D01*
%TD*%
%TA.AperFunction,Conductor*%
%TO.N,GND*%
G36*
X110694539Y-55384185D02*
G01*
X110740294Y-55436989D01*
X110751500Y-55488500D01*
X110751500Y-94371500D01*
X110731815Y-94438539D01*
X110679011Y-94484294D01*
X110627500Y-94495500D01*
X76824500Y-94495500D01*
X76757461Y-94475815D01*
X76711706Y-94423011D01*
X76700500Y-94371500D01*
X76700500Y-80382135D01*
X79421500Y-80382135D01*
X79421500Y-82177870D01*
X79421501Y-82177876D01*
X79427908Y-82237483D01*
X79478202Y-82372328D01*
X79478206Y-82372335D01*
X79564452Y-82487544D01*
X79564455Y-82487547D01*
X79679664Y-82573793D01*
X79679671Y-82573797D01*
X79811082Y-82622810D01*
X79867016Y-82664681D01*
X79891433Y-82730145D01*
X79876582Y-82798418D01*
X79855431Y-82826673D01*
X79741889Y-82940215D01*
X79616951Y-83112179D01*
X79520444Y-83301585D01*
X79454753Y-83503760D01*
X79421500Y-83713713D01*
X79421500Y-83926286D01*
X79454753Y-84136239D01*
X79520444Y-84338414D01*
X79616951Y-84527820D01*
X79741890Y-84699786D01*
X79892213Y-84850109D01*
X80064179Y-84975048D01*
X80064181Y-84975049D01*
X80064184Y-84975051D01*
X80253588Y-85071557D01*
X80455757Y-85137246D01*
X80665713Y-85170500D01*
X80665714Y-85170500D01*
X80878286Y-85170500D01*
X80878287Y-85170500D01*
X81088243Y-85137246D01*
X81290412Y-85071557D01*
X81479816Y-84975051D01*
X81569554Y-84909853D01*
X81651786Y-84850109D01*
X81651788Y-84850106D01*
X81651792Y-84850104D01*
X81802104Y-84699792D01*
X81826603Y-84666070D01*
X81881931Y-84623405D01*
X81951544Y-84617424D01*
X82013340Y-84650028D01*
X82039991Y-84688049D01*
X82491271Y-85690406D01*
X82523054Y-85761000D01*
X82524798Y-85767987D01*
X82555376Y-85832796D01*
X82555839Y-85833823D01*
X82555850Y-85833847D01*
X82584837Y-85898227D01*
X82587869Y-85903508D01*
X82587616Y-85903653D01*
X82588706Y-85905513D01*
X82588956Y-85905364D01*
X82592081Y-85910588D01*
X82592084Y-85910592D01*
X82592085Y-85910594D01*
X82634754Y-85968238D01*
X82676375Y-86026614D01*
X82681613Y-86031543D01*
X82688214Y-86040461D01*
X82688219Y-86040466D01*
X85627357Y-90011084D01*
X85630764Y-90015927D01*
X85662211Y-90062989D01*
X85662213Y-90062992D01*
X85669434Y-90070212D01*
X85675946Y-90076724D01*
X85687501Y-90092334D01*
X85731589Y-90132367D01*
X85733704Y-90134482D01*
X86213007Y-90613786D01*
X86213011Y-90613789D01*
X86344114Y-90701390D01*
X86344127Y-90701397D01*
X86489798Y-90761735D01*
X86489803Y-90761737D01*
X86644453Y-90792499D01*
X86644456Y-90792500D01*
X86644458Y-90792500D01*
X86802142Y-90792500D01*
X88344458Y-90792500D01*
X88965858Y-90792500D01*
X101177494Y-90792500D01*
X101256336Y-90792530D01*
X101256487Y-90792500D01*
X101256642Y-90792500D01*
X101333058Y-90777299D01*
X101333107Y-90777303D01*
X101333105Y-90777290D01*
X101411002Y-90761827D01*
X101411008Y-90761824D01*
X101411288Y-90761738D01*
X101411297Y-90761737D01*
X101450769Y-90745386D01*
X101483470Y-90731842D01*
X101483471Y-90731845D01*
X101483505Y-90731826D01*
X101540911Y-90708073D01*
X101558378Y-90702322D01*
X101568157Y-90699891D01*
X101619500Y-90675708D01*
X101624873Y-90673333D01*
X101677307Y-90651639D01*
X101685679Y-90646048D01*
X101701686Y-90637000D01*
X106783549Y-88243539D01*
X106786197Y-88242292D01*
X106841479Y-88219394D01*
X106857391Y-88208760D01*
X106865757Y-88204821D01*
X106865757Y-88204820D01*
X106874711Y-88200604D01*
X106922832Y-88165035D01*
X106972589Y-88131789D01*
X106986125Y-88118252D01*
X107001517Y-88106876D01*
X107039822Y-88064749D01*
X107043843Y-88060533D01*
X107148287Y-87956090D01*
X107148289Y-87956089D01*
X107259789Y-87844589D01*
X107312562Y-87765607D01*
X107366173Y-87720803D01*
X107415664Y-87710499D01*
X108085871Y-87710499D01*
X108085872Y-87710499D01*
X108145483Y-87704091D01*
X108280331Y-87653796D01*
X108395546Y-87567546D01*
X108481796Y-87452331D01*
X108532091Y-87317483D01*
X108538500Y-87257873D01*
X108538499Y-85462128D01*
X108532091Y-85402517D01*
X108528795Y-85393681D01*
X108481797Y-85267671D01*
X108481793Y-85267664D01*
X108395547Y-85152455D01*
X108395544Y-85152452D01*
X108280335Y-85066206D01*
X108280328Y-85066202D01*
X108148917Y-85017189D01*
X108092983Y-84975318D01*
X108068566Y-84909853D01*
X108083418Y-84841580D01*
X108104563Y-84813332D01*
X108218104Y-84699792D01*
X108254260Y-84650028D01*
X108343048Y-84527820D01*
X108343047Y-84527820D01*
X108343051Y-84527816D01*
X108439557Y-84338412D01*
X108505246Y-84136243D01*
X108538500Y-83926287D01*
X108538500Y-83713713D01*
X108505246Y-83503757D01*
X108439557Y-83301588D01*
X108343051Y-83112184D01*
X108343049Y-83112181D01*
X108343048Y-83112179D01*
X108218109Y-82940213D01*
X108067786Y-82789890D01*
X107895820Y-82664951D01*
X107706414Y-82568444D01*
X107706413Y-82568443D01*
X107706412Y-82568443D01*
X107504243Y-82502754D01*
X107504241Y-82502753D01*
X107504240Y-82502753D01*
X107342957Y-82477208D01*
X107294287Y-82469500D01*
X107081713Y-82469500D01*
X107033042Y-82477208D01*
X106871760Y-82502753D01*
X106669585Y-82568444D01*
X106480179Y-82664951D01*
X106308213Y-82789890D01*
X106157890Y-82940213D01*
X106032951Y-83112179D01*
X105936444Y-83301585D01*
X105870753Y-83503760D01*
X105837500Y-83713713D01*
X105837500Y-83926286D01*
X105870753Y-84136239D01*
X105936444Y-84338414D01*
X106032951Y-84527820D01*
X106157890Y-84699786D01*
X106271430Y-84813326D01*
X106304915Y-84874649D01*
X106299931Y-84944341D01*
X106258059Y-85000274D01*
X106227083Y-85017189D01*
X106095669Y-85066203D01*
X106095664Y-85066206D01*
X105980455Y-85152452D01*
X105980452Y-85152455D01*
X105894206Y-85267664D01*
X105894202Y-85267671D01*
X105843908Y-85402517D01*
X105837501Y-85462116D01*
X105837501Y-85462123D01*
X105837500Y-85462135D01*
X105837500Y-86840763D01*
X105817815Y-86907802D01*
X105766335Y-86952944D01*
X102102065Y-88678746D01*
X102033028Y-88689502D01*
X101969135Y-88661227D01*
X101930672Y-88602897D01*
X101926757Y-88547171D01*
X101934500Y-88498287D01*
X101934500Y-88285713D01*
X101901246Y-88075757D01*
X101835557Y-87873588D01*
X101739051Y-87684184D01*
X101739049Y-87684181D01*
X101739048Y-87684179D01*
X101614109Y-87512213D01*
X101463786Y-87361890D01*
X101291820Y-87236951D01*
X101102414Y-87140444D01*
X101102413Y-87140443D01*
X101102412Y-87140443D01*
X100900243Y-87074754D01*
X100900241Y-87074753D01*
X100900240Y-87074753D01*
X100738957Y-87049208D01*
X100690287Y-87041500D01*
X100477713Y-87041500D01*
X100429042Y-87049208D01*
X100267760Y-87074753D01*
X100065585Y-87140444D01*
X99876179Y-87236951D01*
X99704213Y-87361890D01*
X99553890Y-87512213D01*
X99428949Y-87684182D01*
X99424484Y-87692946D01*
X99376509Y-87743742D01*
X99308688Y-87760536D01*
X99242553Y-87737998D01*
X99203516Y-87692946D01*
X99199050Y-87684182D01*
X99074109Y-87512213D01*
X98923786Y-87361890D01*
X98751820Y-87236951D01*
X98562414Y-87140444D01*
X98562413Y-87140443D01*
X98562412Y-87140443D01*
X98360243Y-87074754D01*
X98360241Y-87074753D01*
X98360240Y-87074753D01*
X98198957Y-87049208D01*
X98150287Y-87041500D01*
X97937713Y-87041500D01*
X97889042Y-87049208D01*
X97727760Y-87074753D01*
X97525585Y-87140444D01*
X97336179Y-87236951D01*
X97164213Y-87361890D01*
X97013890Y-87512213D01*
X96888949Y-87684182D01*
X96884484Y-87692946D01*
X96836509Y-87743742D01*
X96768688Y-87760536D01*
X96702553Y-87737998D01*
X96663516Y-87692946D01*
X96659050Y-87684182D01*
X96534109Y-87512213D01*
X96383786Y-87361890D01*
X96211817Y-87236949D01*
X96200284Y-87231073D01*
X96149488Y-87183100D01*
X96132608Y-87117869D01*
X96207321Y-83713713D01*
X98217500Y-83713713D01*
X98217500Y-83926286D01*
X98250753Y-84136239D01*
X98316444Y-84338414D01*
X98412951Y-84527820D01*
X98537890Y-84699786D01*
X98688213Y-84850109D01*
X98860179Y-84975048D01*
X98860181Y-84975049D01*
X98860184Y-84975051D01*
X99049588Y-85071557D01*
X99251757Y-85137246D01*
X99461713Y-85170500D01*
X99461714Y-85170500D01*
X99674286Y-85170500D01*
X99674287Y-85170500D01*
X99884243Y-85137246D01*
X100086412Y-85071557D01*
X100275816Y-84975051D01*
X100365554Y-84909853D01*
X100447786Y-84850109D01*
X100447788Y-84850106D01*
X100447792Y-84850104D01*
X100598104Y-84699792D01*
X100598106Y-84699788D01*
X100598109Y-84699786D01*
X100723048Y-84527820D01*
X100723047Y-84527820D01*
X100723051Y-84527816D01*
X100727514Y-84519054D01*
X100775488Y-84468259D01*
X100843308Y-84451463D01*
X100909444Y-84473999D01*
X100948486Y-84519056D01*
X100952951Y-84527820D01*
X101077890Y-84699786D01*
X101228213Y-84850109D01*
X101400179Y-84975048D01*
X101400181Y-84975049D01*
X101400184Y-84975051D01*
X101589588Y-85071557D01*
X101791757Y-85137246D01*
X102001713Y-85170500D01*
X102001714Y-85170500D01*
X102214286Y-85170500D01*
X102214287Y-85170500D01*
X102424243Y-85137246D01*
X102626412Y-85071557D01*
X102815816Y-84975051D01*
X102905554Y-84909853D01*
X102987786Y-84850109D01*
X102987788Y-84850106D01*
X102987792Y-84850104D01*
X103138104Y-84699792D01*
X103138106Y-84699788D01*
X103138109Y-84699786D01*
X103263048Y-84527820D01*
X103263047Y-84527820D01*
X103263051Y-84527816D01*
X103359557Y-84338412D01*
X103425246Y-84136243D01*
X103458500Y-83926287D01*
X103458500Y-83713713D01*
X103425246Y-83503757D01*
X103359557Y-83301588D01*
X103263051Y-83112184D01*
X103263049Y-83112181D01*
X103263048Y-83112179D01*
X103138109Y-82940213D01*
X102987786Y-82789890D01*
X102815820Y-82664951D01*
X102626414Y-82568444D01*
X102626413Y-82568443D01*
X102626412Y-82568443D01*
X102424243Y-82502754D01*
X102424241Y-82502753D01*
X102424240Y-82502753D01*
X102262957Y-82477208D01*
X102214287Y-82469500D01*
X102001713Y-82469500D01*
X101953042Y-82477208D01*
X101791760Y-82502753D01*
X101589585Y-82568444D01*
X101400179Y-82664951D01*
X101228213Y-82789890D01*
X101077890Y-82940213D01*
X100952949Y-83112182D01*
X100948484Y-83120946D01*
X100900509Y-83171742D01*
X100832688Y-83188536D01*
X100766553Y-83165998D01*
X100727516Y-83120946D01*
X100723050Y-83112182D01*
X100598109Y-82940213D01*
X100447786Y-82789890D01*
X100275820Y-82664951D01*
X100086414Y-82568444D01*
X100086413Y-82568443D01*
X100086412Y-82568443D01*
X99884243Y-82502754D01*
X99884241Y-82502753D01*
X99884240Y-82502753D01*
X99722957Y-82477208D01*
X99674287Y-82469500D01*
X99461713Y-82469500D01*
X99413042Y-82477208D01*
X99251760Y-82502753D01*
X99049585Y-82568444D01*
X98860179Y-82664951D01*
X98688213Y-82789890D01*
X98537890Y-82940213D01*
X98412951Y-83112179D01*
X98316444Y-83301585D01*
X98250753Y-83503760D01*
X98217500Y-83713713D01*
X96207321Y-83713713D01*
X96225416Y-82889272D01*
X96234581Y-82845134D01*
X96242117Y-82826673D01*
X101668701Y-69531903D01*
X101712261Y-69477275D01*
X101778440Y-69454868D01*
X101846228Y-69471797D01*
X101871187Y-69491083D01*
X101990213Y-69610109D01*
X102162182Y-69735050D01*
X102170946Y-69739516D01*
X102221742Y-69787491D01*
X102238536Y-69855312D01*
X102215998Y-69921447D01*
X102170946Y-69960484D01*
X102162182Y-69964949D01*
X101990213Y-70089890D01*
X101839890Y-70240213D01*
X101714951Y-70412179D01*
X101618444Y-70601585D01*
X101552753Y-70803760D01*
X101519500Y-71013713D01*
X101519500Y-71226286D01*
X101552753Y-71436239D01*
X101618444Y-71638414D01*
X101714951Y-71827820D01*
X101839890Y-71999786D01*
X101990213Y-72150109D01*
X102162182Y-72275050D01*
X102170946Y-72279516D01*
X102221742Y-72327491D01*
X102238536Y-72395312D01*
X102215998Y-72461447D01*
X102170946Y-72500484D01*
X102162182Y-72504949D01*
X101990213Y-72629890D01*
X101839890Y-72780213D01*
X101714951Y-72952179D01*
X101618444Y-73141585D01*
X101552753Y-73343760D01*
X101533038Y-73468239D01*
X101519500Y-73553713D01*
X101519500Y-73766287D01*
X101552754Y-73976243D01*
X101607692Y-74145325D01*
X101618444Y-74178414D01*
X101714951Y-74367820D01*
X101839890Y-74539786D01*
X101990213Y-74690109D01*
X102162182Y-74815050D01*
X102170946Y-74819516D01*
X102221742Y-74867491D01*
X102238536Y-74935312D01*
X102215998Y-75001447D01*
X102170946Y-75040484D01*
X102162182Y-75044949D01*
X101990213Y-75169890D01*
X101839890Y-75320213D01*
X101714951Y-75492179D01*
X101618444Y-75681585D01*
X101552753Y-75883760D01*
X101533038Y-76008239D01*
X101519500Y-76093713D01*
X101519500Y-76306287D01*
X101552754Y-76516243D01*
X101596046Y-76649482D01*
X101618444Y-76718414D01*
X101714951Y-76907820D01*
X101839890Y-77079786D01*
X101990213Y-77230109D01*
X102162179Y-77355048D01*
X102162181Y-77355049D01*
X102162184Y-77355051D01*
X102351588Y-77451557D01*
X102553757Y-77517246D01*
X102763713Y-77550500D01*
X102763714Y-77550500D01*
X102976286Y-77550500D01*
X102976287Y-77550500D01*
X103186243Y-77517246D01*
X103388412Y-77451557D01*
X103577816Y-77355051D01*
X103616413Y-77327009D01*
X103749786Y-77230109D01*
X103749788Y-77230106D01*
X103749792Y-77230104D01*
X103900104Y-77079792D01*
X103900106Y-77079788D01*
X103900109Y-77079786D01*
X104025048Y-76907820D01*
X104025047Y-76907820D01*
X104025051Y-76907816D01*
X104121557Y-76718412D01*
X104187246Y-76516243D01*
X104220500Y-76306287D01*
X104220500Y-76093713D01*
X104187246Y-75883757D01*
X104121557Y-75681588D01*
X104025051Y-75492184D01*
X104025049Y-75492181D01*
X104025048Y-75492179D01*
X103900109Y-75320213D01*
X103749786Y-75169890D01*
X103577820Y-75044951D01*
X103577115Y-75044591D01*
X103569054Y-75040485D01*
X103518259Y-74992512D01*
X103501463Y-74924692D01*
X103523999Y-74858556D01*
X103569054Y-74819515D01*
X103577816Y-74815051D01*
X103606631Y-74794116D01*
X103749786Y-74690109D01*
X103749788Y-74690106D01*
X103749792Y-74690104D01*
X103900104Y-74539792D01*
X103900106Y-74539788D01*
X103900109Y-74539786D01*
X104025048Y-74367820D01*
X104025047Y-74367820D01*
X104025051Y-74367816D01*
X104121557Y-74178412D01*
X104187246Y-73976243D01*
X104220500Y-73766287D01*
X104220500Y-73553713D01*
X104187246Y-73343757D01*
X104121557Y-73141588D01*
X104025051Y-72952184D01*
X104025049Y-72952181D01*
X104025048Y-72952179D01*
X103900109Y-72780213D01*
X103749786Y-72629890D01*
X103577820Y-72504951D01*
X103577115Y-72504591D01*
X103569054Y-72500485D01*
X103518259Y-72452512D01*
X103501463Y-72384692D01*
X103523999Y-72318556D01*
X103569054Y-72279515D01*
X103577816Y-72275051D01*
X103599789Y-72259086D01*
X103749786Y-72150109D01*
X103749788Y-72150106D01*
X103749792Y-72150104D01*
X103900104Y-71999792D01*
X103900106Y-71999788D01*
X103900109Y-71999786D01*
X104025048Y-71827820D01*
X104025047Y-71827820D01*
X104025051Y-71827816D01*
X104121557Y-71638412D01*
X104187246Y-71436243D01*
X104220500Y-71226287D01*
X104220500Y-71013713D01*
X104187246Y-70803757D01*
X104121557Y-70601588D01*
X104025051Y-70412184D01*
X104025049Y-70412181D01*
X104025048Y-70412179D01*
X103900109Y-70240213D01*
X103749786Y-70089890D01*
X103577820Y-69964951D01*
X103577115Y-69964591D01*
X103569054Y-69960485D01*
X103518259Y-69912512D01*
X103501463Y-69844692D01*
X103523999Y-69778556D01*
X103569054Y-69739515D01*
X103577816Y-69735051D01*
X103599789Y-69719086D01*
X103749786Y-69610109D01*
X103749788Y-69610106D01*
X103749792Y-69610104D01*
X103900104Y-69459792D01*
X103900106Y-69459788D01*
X103900109Y-69459786D01*
X104025048Y-69287820D01*
X104025047Y-69287820D01*
X104025051Y-69287816D01*
X104121557Y-69098412D01*
X104187246Y-68896243D01*
X104220500Y-68686287D01*
X104220500Y-68473713D01*
X104187246Y-68263757D01*
X104121557Y-68061588D01*
X104025051Y-67872184D01*
X103976201Y-67804947D01*
X103931517Y-67743444D01*
X103908038Y-67677637D01*
X103923864Y-67609583D01*
X103944151Y-67582882D01*
X104478506Y-67048528D01*
X104478511Y-67048524D01*
X104488714Y-67038320D01*
X104488716Y-67038320D01*
X104600520Y-66926516D01*
X104676100Y-66795607D01*
X104679577Y-66789585D01*
X104720500Y-66636857D01*
X104720500Y-66478743D01*
X104720500Y-65443143D01*
X104720500Y-64634135D01*
X105837500Y-64634135D01*
X105837500Y-66429870D01*
X105837501Y-66429876D01*
X105843908Y-66489483D01*
X105894202Y-66624328D01*
X105894206Y-66624335D01*
X105980452Y-66739544D01*
X105980455Y-66739547D01*
X106095664Y-66825793D01*
X106095671Y-66825797D01*
X106227082Y-66874810D01*
X106283016Y-66916681D01*
X106307433Y-66982145D01*
X106292582Y-67050418D01*
X106271431Y-67078673D01*
X106157889Y-67192215D01*
X106032951Y-67364179D01*
X105936444Y-67553585D01*
X105936443Y-67553587D01*
X105936443Y-67553588D01*
X105934608Y-67559235D01*
X105870753Y-67755760D01*
X105837500Y-67965713D01*
X105837500Y-68178286D01*
X105870753Y-68388239D01*
X105936444Y-68590414D01*
X106032951Y-68779820D01*
X106157890Y-68951786D01*
X106308213Y-69102109D01*
X106480182Y-69227050D01*
X106488946Y-69231516D01*
X106539742Y-69279491D01*
X106556536Y-69347312D01*
X106533998Y-69413447D01*
X106488946Y-69452484D01*
X106480182Y-69456949D01*
X106308213Y-69581890D01*
X106157890Y-69732213D01*
X106032951Y-69904179D01*
X105936444Y-70093585D01*
X105870753Y-70295760D01*
X105837500Y-70505713D01*
X105837500Y-70718286D01*
X105870753Y-70928239D01*
X105936444Y-71130414D01*
X106032951Y-71319820D01*
X106157890Y-71491786D01*
X106308213Y-71642109D01*
X106480182Y-71767050D01*
X106488946Y-71771516D01*
X106539742Y-71819491D01*
X106556536Y-71887312D01*
X106533998Y-71953447D01*
X106488946Y-71992484D01*
X106480182Y-71996949D01*
X106308213Y-72121890D01*
X106157890Y-72272213D01*
X106032951Y-72444179D01*
X105936444Y-72633585D01*
X105870753Y-72835760D01*
X105837500Y-73045713D01*
X105837500Y-73258286D01*
X105870753Y-73468239D01*
X105936444Y-73670414D01*
X106032951Y-73859820D01*
X106157890Y-74031786D01*
X106308213Y-74182109D01*
X106480182Y-74307050D01*
X106488946Y-74311516D01*
X106539742Y-74359491D01*
X106556536Y-74427312D01*
X106533998Y-74493447D01*
X106488946Y-74532484D01*
X106480182Y-74536949D01*
X106308213Y-74661890D01*
X106157890Y-74812213D01*
X106032951Y-74984179D01*
X105936444Y-75173585D01*
X105870753Y-75375760D01*
X105837500Y-75585713D01*
X105837500Y-75798286D01*
X105870753Y-76008239D01*
X105936444Y-76210414D01*
X106032951Y-76399820D01*
X106157890Y-76571786D01*
X106308213Y-76722109D01*
X106480179Y-76847048D01*
X106480181Y-76847049D01*
X106480184Y-76847051D01*
X106669588Y-76943557D01*
X106871757Y-77009246D01*
X107081713Y-77042500D01*
X107081714Y-77042500D01*
X107294286Y-77042500D01*
X107294287Y-77042500D01*
X107504243Y-77009246D01*
X107706412Y-76943557D01*
X107895816Y-76847051D01*
X107982138Y-76784335D01*
X108067786Y-76722109D01*
X108067788Y-76722106D01*
X108067792Y-76722104D01*
X108218104Y-76571792D01*
X108218106Y-76571788D01*
X108218109Y-76571786D01*
X108343048Y-76399820D01*
X108343047Y-76399820D01*
X108343051Y-76399816D01*
X108439557Y-76210412D01*
X108505246Y-76008243D01*
X108538500Y-75798287D01*
X108538500Y-75585713D01*
X108505246Y-75375757D01*
X108439557Y-75173588D01*
X108343051Y-74984184D01*
X108343049Y-74984181D01*
X108343048Y-74984179D01*
X108218109Y-74812213D01*
X108067786Y-74661890D01*
X107895820Y-74536951D01*
X107895115Y-74536591D01*
X107887054Y-74532485D01*
X107836259Y-74484512D01*
X107819463Y-74416692D01*
X107841999Y-74350556D01*
X107887054Y-74311515D01*
X107895816Y-74307051D01*
X107985554Y-74241853D01*
X108067786Y-74182109D01*
X108067788Y-74182106D01*
X108067792Y-74182104D01*
X108218104Y-74031792D01*
X108218106Y-74031788D01*
X108218109Y-74031786D01*
X108343048Y-73859820D01*
X108343047Y-73859820D01*
X108343051Y-73859816D01*
X108439557Y-73670412D01*
X108505246Y-73468243D01*
X108538500Y-73258287D01*
X108538500Y-73045713D01*
X108505246Y-72835757D01*
X108439557Y-72633588D01*
X108343051Y-72444184D01*
X108343049Y-72444181D01*
X108343048Y-72444179D01*
X108218109Y-72272213D01*
X108067786Y-72121890D01*
X107895820Y-71996951D01*
X107895115Y-71996591D01*
X107887054Y-71992485D01*
X107836259Y-71944512D01*
X107819463Y-71876692D01*
X107841999Y-71810556D01*
X107887054Y-71771515D01*
X107895816Y-71767051D01*
X107917789Y-71751086D01*
X108067786Y-71642109D01*
X108067788Y-71642106D01*
X108067792Y-71642104D01*
X108218104Y-71491792D01*
X108218106Y-71491788D01*
X108218109Y-71491786D01*
X108343048Y-71319820D01*
X108343047Y-71319820D01*
X108343051Y-71319816D01*
X108439557Y-71130412D01*
X108505246Y-70928243D01*
X108538500Y-70718287D01*
X108538500Y-70505713D01*
X108505246Y-70295757D01*
X108439557Y-70093588D01*
X108343051Y-69904184D01*
X108343049Y-69904181D01*
X108343048Y-69904179D01*
X108218109Y-69732213D01*
X108067786Y-69581890D01*
X107895820Y-69456951D01*
X107895115Y-69456591D01*
X107887054Y-69452485D01*
X107836259Y-69404512D01*
X107819463Y-69336692D01*
X107841999Y-69270556D01*
X107887054Y-69231515D01*
X107895816Y-69227051D01*
X107917789Y-69211086D01*
X108067786Y-69102109D01*
X108067788Y-69102106D01*
X108067792Y-69102104D01*
X108218104Y-68951792D01*
X108218106Y-68951788D01*
X108218109Y-68951786D01*
X108343048Y-68779820D01*
X108343047Y-68779820D01*
X108343051Y-68779816D01*
X108439557Y-68590412D01*
X108505246Y-68388243D01*
X108538500Y-68178287D01*
X108538500Y-67965713D01*
X108505246Y-67755757D01*
X108439557Y-67553588D01*
X108343051Y-67364184D01*
X108343049Y-67364181D01*
X108343048Y-67364179D01*
X108218109Y-67192213D01*
X108104569Y-67078673D01*
X108071084Y-67017350D01*
X108076068Y-66947658D01*
X108117940Y-66891725D01*
X108148915Y-66874810D01*
X108280331Y-66825796D01*
X108395546Y-66739546D01*
X108481796Y-66624331D01*
X108532091Y-66489483D01*
X108538500Y-66429873D01*
X108538499Y-64634128D01*
X108532091Y-64574517D01*
X108481796Y-64439669D01*
X108481795Y-64439668D01*
X108481793Y-64439664D01*
X108395547Y-64324455D01*
X108395544Y-64324452D01*
X108280335Y-64238206D01*
X108280328Y-64238202D01*
X108145482Y-64187908D01*
X108145483Y-64187908D01*
X108085883Y-64181501D01*
X108085881Y-64181500D01*
X108085873Y-64181500D01*
X108085864Y-64181500D01*
X106290129Y-64181500D01*
X106290123Y-64181501D01*
X106230516Y-64187908D01*
X106095671Y-64238202D01*
X106095664Y-64238206D01*
X105980455Y-64324452D01*
X105980452Y-64324455D01*
X105894206Y-64439664D01*
X105894202Y-64439671D01*
X105843908Y-64574517D01*
X105837501Y-64634116D01*
X105837501Y-64634123D01*
X105837500Y-64634135D01*
X104720500Y-64634135D01*
X104720500Y-60474443D01*
X104725513Y-60427895D01*
X104720500Y-60395711D01*
X104720500Y-60363143D01*
X104710106Y-60324352D01*
X104707358Y-60311343D01*
X104701178Y-60271664D01*
X104691886Y-60250651D01*
X104685520Y-60232598D01*
X104679577Y-60210416D01*
X104659494Y-60175630D01*
X104653474Y-60163776D01*
X104231092Y-59208517D01*
X104229033Y-59198769D01*
X104225523Y-59193308D01*
X104220500Y-59158372D01*
X104220500Y-59158371D01*
X104220500Y-59090943D01*
X104220499Y-59090942D01*
X104220499Y-57522128D01*
X104214091Y-57462517D01*
X104163796Y-57327669D01*
X104163795Y-57327668D01*
X104163793Y-57327664D01*
X104077547Y-57212455D01*
X104077544Y-57212452D01*
X103962335Y-57126206D01*
X103962328Y-57126202D01*
X103827482Y-57075908D01*
X103827483Y-57075908D01*
X103767883Y-57069501D01*
X103767881Y-57069500D01*
X103767873Y-57069500D01*
X103767864Y-57069500D01*
X101972129Y-57069500D01*
X101972123Y-57069501D01*
X101912516Y-57075908D01*
X101777671Y-57126202D01*
X101777664Y-57126206D01*
X101662455Y-57212452D01*
X101662452Y-57212455D01*
X101576206Y-57327664D01*
X101576202Y-57327671D01*
X101525908Y-57462517D01*
X101519501Y-57522116D01*
X101519501Y-57522123D01*
X101519500Y-57522135D01*
X101519500Y-59317870D01*
X101519501Y-59317876D01*
X101525908Y-59377483D01*
X101576202Y-59512328D01*
X101576206Y-59512335D01*
X101662452Y-59627544D01*
X101662455Y-59627547D01*
X101777664Y-59713793D01*
X101777671Y-59713797D01*
X101909082Y-59762810D01*
X101965016Y-59804681D01*
X101989433Y-59870145D01*
X101974582Y-59938418D01*
X101953431Y-59966673D01*
X101839889Y-60080215D01*
X101714951Y-60252179D01*
X101618444Y-60441585D01*
X101552753Y-60643760D01*
X101519500Y-60853713D01*
X101519500Y-61066286D01*
X101552753Y-61276239D01*
X101618444Y-61478414D01*
X101714951Y-61667820D01*
X101839890Y-61839786D01*
X101990213Y-61990109D01*
X102162182Y-62115050D01*
X102170946Y-62119516D01*
X102221742Y-62167491D01*
X102238536Y-62235312D01*
X102215998Y-62301447D01*
X102170946Y-62340484D01*
X102162182Y-62344949D01*
X101990213Y-62469890D01*
X101839890Y-62620213D01*
X101714951Y-62792179D01*
X101618444Y-62981585D01*
X101552753Y-63183760D01*
X101519500Y-63393713D01*
X101519500Y-63606286D01*
X101552753Y-63816239D01*
X101618444Y-64018414D01*
X101714951Y-64207820D01*
X101839890Y-64379786D01*
X101990213Y-64530109D01*
X102162182Y-64655050D01*
X102170946Y-64659516D01*
X102221742Y-64707491D01*
X102238536Y-64775312D01*
X102215998Y-64841447D01*
X102170946Y-64880484D01*
X102162182Y-64884949D01*
X101990213Y-65009890D01*
X101839890Y-65160213D01*
X101714951Y-65332179D01*
X101618444Y-65521585D01*
X101552753Y-65723760D01*
X101519500Y-65933713D01*
X101519500Y-66146286D01*
X101552753Y-66356240D01*
X101552754Y-66356244D01*
X101574798Y-66424090D01*
X101576793Y-66493931D01*
X101546159Y-66548447D01*
X100798045Y-67324838D01*
X100798046Y-67324839D01*
X100791595Y-67331533D01*
X100764565Y-67352271D01*
X100736973Y-67388220D01*
X100732141Y-67393236D01*
X100732133Y-67393246D01*
X100705524Y-67420861D01*
X100693534Y-67442547D01*
X100683388Y-67458039D01*
X100668300Y-67477698D01*
X100668298Y-67477701D01*
X100653615Y-67513136D01*
X100647583Y-67525657D01*
X100629020Y-67559235D01*
X100623051Y-67583285D01*
X100617259Y-67600877D01*
X100598543Y-67646049D01*
X100596887Y-67649420D01*
X100564980Y-67727051D01*
X100564846Y-67727378D01*
X100532705Y-67804947D01*
X100531507Y-67808490D01*
X94603800Y-82230861D01*
X94603799Y-82230860D01*
X94598454Y-82243863D01*
X94592118Y-82252822D01*
X94568480Y-82316796D01*
X94567627Y-82318873D01*
X94542530Y-82379935D01*
X94540447Y-82387798D01*
X94540253Y-82387746D01*
X94536254Y-82404017D01*
X92845806Y-86979238D01*
X92804107Y-87035300D01*
X92748890Y-87058735D01*
X92647759Y-87074753D01*
X92445585Y-87140444D01*
X92256179Y-87236951D01*
X92084213Y-87361890D01*
X91933890Y-87512213D01*
X91808951Y-87684179D01*
X91712444Y-87873585D01*
X91646753Y-88075760D01*
X91613500Y-88285713D01*
X91613500Y-88498286D01*
X91646753Y-88708239D01*
X91712444Y-88910414D01*
X91763800Y-89011205D01*
X91776696Y-89079874D01*
X91750420Y-89144614D01*
X91693314Y-89184872D01*
X91653315Y-89191500D01*
X89358500Y-89191500D01*
X89291461Y-89171815D01*
X89245706Y-89119011D01*
X89234500Y-89067500D01*
X89234499Y-87494129D01*
X89234498Y-87494123D01*
X89228091Y-87434516D01*
X89177797Y-87299671D01*
X89177793Y-87299664D01*
X89091547Y-87184455D01*
X89091544Y-87184452D01*
X88976335Y-87098206D01*
X88976328Y-87098202D01*
X88841482Y-87047908D01*
X88841483Y-87047908D01*
X88781883Y-87041501D01*
X88781881Y-87041500D01*
X88781873Y-87041500D01*
X88781865Y-87041500D01*
X88111664Y-87041500D01*
X88044625Y-87021815D01*
X88008562Y-86986391D01*
X87955790Y-86907412D01*
X87955789Y-86907411D01*
X87844289Y-86795911D01*
X87844287Y-86795909D01*
X87739736Y-86691358D01*
X87735706Y-86687134D01*
X87697291Y-86644919D01*
X87697286Y-86644915D01*
X87689466Y-86639139D01*
X87689466Y-86639138D01*
X87682007Y-86633629D01*
X87668589Y-86620211D01*
X87618721Y-86586890D01*
X87616388Y-86585167D01*
X87616361Y-86585148D01*
X85222470Y-84817143D01*
X85208456Y-84805078D01*
X85053924Y-84650546D01*
X85020439Y-84589223D01*
X85018139Y-84574357D01*
X85013807Y-84527816D01*
X84365274Y-77560003D01*
X84378661Y-77491428D01*
X84426997Y-77440977D01*
X84494936Y-77424667D01*
X84545034Y-77438027D01*
X84571588Y-77451557D01*
X84773757Y-77517246D01*
X84983713Y-77550500D01*
X84983714Y-77550500D01*
X85196286Y-77550500D01*
X85196287Y-77550500D01*
X85406243Y-77517246D01*
X85608412Y-77451557D01*
X85797816Y-77355051D01*
X85836413Y-77327009D01*
X85969786Y-77230109D01*
X85969788Y-77230106D01*
X85969792Y-77230104D01*
X86120104Y-77079792D01*
X86120106Y-77079788D01*
X86120109Y-77079786D01*
X86245048Y-76907820D01*
X86245047Y-76907820D01*
X86245051Y-76907816D01*
X86341557Y-76718412D01*
X86407246Y-76516243D01*
X86440500Y-76306287D01*
X86440500Y-76093713D01*
X86407246Y-75883757D01*
X86341557Y-75681588D01*
X86245051Y-75492184D01*
X86245049Y-75492181D01*
X86245048Y-75492179D01*
X86120109Y-75320213D01*
X85969786Y-75169890D01*
X85797820Y-75044951D01*
X85797115Y-75044591D01*
X85789054Y-75040485D01*
X85738259Y-74992512D01*
X85721463Y-74924692D01*
X85743999Y-74858556D01*
X85789054Y-74819515D01*
X85797816Y-74815051D01*
X85826631Y-74794116D01*
X85969786Y-74690109D01*
X85969788Y-74690106D01*
X85969792Y-74690104D01*
X86120104Y-74539792D01*
X86120106Y-74539788D01*
X86120109Y-74539786D01*
X86245048Y-74367820D01*
X86245047Y-74367820D01*
X86245051Y-74367816D01*
X86341557Y-74178412D01*
X86407246Y-73976243D01*
X86440500Y-73766287D01*
X86440500Y-73553713D01*
X86407246Y-73343757D01*
X86341557Y-73141588D01*
X86245051Y-72952184D01*
X86245049Y-72952181D01*
X86245048Y-72952179D01*
X86120109Y-72780213D01*
X85969786Y-72629890D01*
X85797820Y-72504951D01*
X85797115Y-72504591D01*
X85789054Y-72500485D01*
X85738259Y-72452512D01*
X85721463Y-72384692D01*
X85743999Y-72318556D01*
X85789054Y-72279515D01*
X85797816Y-72275051D01*
X85819789Y-72259086D01*
X85969786Y-72150109D01*
X85969788Y-72150106D01*
X85969792Y-72150104D01*
X86120104Y-71999792D01*
X86120106Y-71999788D01*
X86120109Y-71999786D01*
X86245048Y-71827820D01*
X86245047Y-71827820D01*
X86245051Y-71827816D01*
X86341557Y-71638412D01*
X86407246Y-71436243D01*
X86440500Y-71226287D01*
X86440500Y-71013713D01*
X86407246Y-70803757D01*
X86341557Y-70601588D01*
X86245051Y-70412184D01*
X86245049Y-70412181D01*
X86245048Y-70412179D01*
X86120109Y-70240213D01*
X85969786Y-70089890D01*
X85797820Y-69964951D01*
X85797115Y-69964591D01*
X85789054Y-69960485D01*
X85738259Y-69912512D01*
X85721463Y-69844692D01*
X85743999Y-69778556D01*
X85789054Y-69739515D01*
X85797816Y-69735051D01*
X85819789Y-69719086D01*
X85969786Y-69610109D01*
X85969788Y-69610106D01*
X85969792Y-69610104D01*
X86120104Y-69459792D01*
X86120106Y-69459788D01*
X86120109Y-69459786D01*
X86245048Y-69287820D01*
X86245047Y-69287820D01*
X86245051Y-69287816D01*
X86341557Y-69098412D01*
X86407246Y-68896243D01*
X86440500Y-68686287D01*
X86440500Y-68473713D01*
X86407246Y-68263757D01*
X86341557Y-68061588D01*
X86245051Y-67872184D01*
X86245049Y-67872181D01*
X86245048Y-67872179D01*
X86120109Y-67700213D01*
X85969786Y-67549890D01*
X85797820Y-67424951D01*
X85797115Y-67424591D01*
X85789054Y-67420485D01*
X85738259Y-67372512D01*
X85721463Y-67304692D01*
X85743999Y-67238556D01*
X85789054Y-67199515D01*
X85797816Y-67195051D01*
X85819789Y-67179086D01*
X85969786Y-67070109D01*
X85969788Y-67070106D01*
X85969792Y-67070104D01*
X86120104Y-66919792D01*
X86120106Y-66919788D01*
X86120109Y-66919786D01*
X86245048Y-66747820D01*
X86245047Y-66747820D01*
X86245051Y-66747816D01*
X86341557Y-66558412D01*
X86407246Y-66356243D01*
X86440500Y-66146287D01*
X86440500Y-65933713D01*
X86407246Y-65723757D01*
X86341557Y-65521588D01*
X86245051Y-65332184D01*
X86245049Y-65332181D01*
X86245048Y-65332179D01*
X86120109Y-65160213D01*
X85969786Y-65009890D01*
X85797820Y-64884951D01*
X85797115Y-64884591D01*
X85789054Y-64880485D01*
X85738259Y-64832512D01*
X85721463Y-64764692D01*
X85743999Y-64698556D01*
X85789054Y-64659515D01*
X85797816Y-64655051D01*
X85826631Y-64634116D01*
X85969786Y-64530109D01*
X85969788Y-64530106D01*
X85969792Y-64530104D01*
X86120104Y-64379792D01*
X86120106Y-64379788D01*
X86120109Y-64379786D01*
X86245048Y-64207820D01*
X86245047Y-64207820D01*
X86245051Y-64207816D01*
X86341557Y-64018412D01*
X86407246Y-63816243D01*
X86440500Y-63606287D01*
X86440500Y-63393713D01*
X86407246Y-63183757D01*
X86341557Y-62981588D01*
X86245051Y-62792184D01*
X86245049Y-62792181D01*
X86245048Y-62792179D01*
X86120109Y-62620213D01*
X85969786Y-62469890D01*
X85797820Y-62344951D01*
X85608414Y-62248444D01*
X85608413Y-62248443D01*
X85608412Y-62248443D01*
X85406243Y-62182754D01*
X85406241Y-62182753D01*
X85406240Y-62182753D01*
X85244957Y-62157208D01*
X85196287Y-62149500D01*
X84983713Y-62149500D01*
X84935042Y-62157208D01*
X84773760Y-62182753D01*
X84571585Y-62248444D01*
X84382179Y-62344951D01*
X84210213Y-62469890D01*
X84059890Y-62620213D01*
X83934951Y-62792179D01*
X83838444Y-62981585D01*
X83772753Y-63183760D01*
X83739500Y-63393713D01*
X83739500Y-63606286D01*
X83763623Y-63758595D01*
X83754668Y-63827889D01*
X83735673Y-63858252D01*
X82953944Y-64778917D01*
X82953943Y-64778916D01*
X82950680Y-64782758D01*
X82917916Y-64815550D01*
X82899798Y-64842685D01*
X82895173Y-64848133D01*
X82895167Y-64848141D01*
X82878662Y-64867581D01*
X82858557Y-64903723D01*
X82858558Y-64903724D01*
X82856111Y-64908122D01*
X82830361Y-64946693D01*
X82817882Y-64976850D01*
X82814400Y-64983110D01*
X82814398Y-64983111D01*
X82802013Y-65005381D01*
X82789345Y-65044757D01*
X82785887Y-65054177D01*
X82750602Y-65139455D01*
X82750585Y-65139496D01*
X82750584Y-65139499D01*
X82750584Y-65139500D01*
X82720263Y-65212703D01*
X82720233Y-65212852D01*
X82720173Y-65212998D01*
X82720161Y-65213053D01*
X82720161Y-65213056D01*
X82704815Y-65290368D01*
X82704814Y-65290367D01*
X82704502Y-65291936D01*
X82689500Y-65367358D01*
X82689500Y-65367512D01*
X82689470Y-65367664D01*
X82689500Y-65446506D01*
X82689500Y-75527358D01*
X82689500Y-76752318D01*
X82685638Y-76789484D01*
X82689500Y-76830977D01*
X82689500Y-76872646D01*
X82695534Y-76902980D01*
X82697383Y-76915679D01*
X83254115Y-82897186D01*
X83251219Y-82912016D01*
X83253290Y-82926984D01*
X83244661Y-82945613D01*
X83240728Y-82965762D01*
X83230275Y-82976671D01*
X83223925Y-82990383D01*
X83206593Y-83001390D01*
X83192392Y-83016213D01*
X83177700Y-83019739D01*
X83164945Y-83027841D01*
X83144414Y-83027730D01*
X83124453Y-83032523D01*
X83110186Y-83027547D01*
X83095076Y-83027466D01*
X83077864Y-83016273D01*
X83058481Y-83009513D01*
X83048237Y-82997007D01*
X83036501Y-82989376D01*
X83017580Y-82959583D01*
X83008860Y-82940215D01*
X82968181Y-82849859D01*
X82966669Y-82846358D01*
X82955725Y-82819906D01*
X82941960Y-82786633D01*
X82935064Y-82776302D01*
X82929966Y-82764979D01*
X82891350Y-82710818D01*
X82854413Y-82655484D01*
X82852906Y-82653976D01*
X82852906Y-82653975D01*
X82845632Y-82646695D01*
X82838425Y-82636586D01*
X82790013Y-82591026D01*
X82788671Y-82589683D01*
X82788639Y-82589652D01*
X82158780Y-81959238D01*
X82125322Y-81897900D01*
X82122500Y-81871595D01*
X82122500Y-81736725D01*
X82122499Y-81736715D01*
X82122499Y-80382129D01*
X82122498Y-80382123D01*
X82122497Y-80382116D01*
X82116091Y-80322517D01*
X82065796Y-80187669D01*
X82065795Y-80187668D01*
X82065793Y-80187664D01*
X81979547Y-80072455D01*
X81979544Y-80072452D01*
X81864335Y-79986206D01*
X81864328Y-79986202D01*
X81729482Y-79935908D01*
X81729483Y-79935908D01*
X81669883Y-79929501D01*
X81669881Y-79929500D01*
X81669873Y-79929500D01*
X81669864Y-79929500D01*
X79874129Y-79929500D01*
X79874123Y-79929501D01*
X79814516Y-79935908D01*
X79679671Y-79986202D01*
X79679664Y-79986206D01*
X79564455Y-80072452D01*
X79564452Y-80072455D01*
X79478206Y-80187664D01*
X79478202Y-80187671D01*
X79427908Y-80322517D01*
X79421501Y-80382116D01*
X79421501Y-80382123D01*
X79421500Y-80382135D01*
X76700500Y-80382135D01*
X76700500Y-65425713D01*
X79421500Y-65425713D01*
X79421500Y-65638286D01*
X79454753Y-65848239D01*
X79520444Y-66050414D01*
X79616951Y-66239820D01*
X79741890Y-66411786D01*
X79892213Y-66562109D01*
X80064182Y-66687050D01*
X80072946Y-66691516D01*
X80123742Y-66739491D01*
X80140536Y-66807312D01*
X80117998Y-66873447D01*
X80072946Y-66912484D01*
X80064182Y-66916949D01*
X79892213Y-67041890D01*
X79741890Y-67192213D01*
X79616951Y-67364179D01*
X79520444Y-67553585D01*
X79520443Y-67553587D01*
X79520443Y-67553588D01*
X79518608Y-67559235D01*
X79454753Y-67755760D01*
X79421500Y-67965713D01*
X79421500Y-68178286D01*
X79454753Y-68388239D01*
X79520444Y-68590414D01*
X79616951Y-68779820D01*
X79741890Y-68951786D01*
X79892213Y-69102109D01*
X80064182Y-69227050D01*
X80072946Y-69231516D01*
X80123742Y-69279491D01*
X80140536Y-69347312D01*
X80117998Y-69413447D01*
X80072946Y-69452484D01*
X80064182Y-69456949D01*
X79892213Y-69581890D01*
X79741890Y-69732213D01*
X79616951Y-69904179D01*
X79520444Y-70093585D01*
X79454753Y-70295760D01*
X79421500Y-70505713D01*
X79421500Y-70718286D01*
X79454753Y-70928239D01*
X79520444Y-71130414D01*
X79616951Y-71319820D01*
X79741890Y-71491786D01*
X79892213Y-71642109D01*
X80064182Y-71767050D01*
X80072946Y-71771516D01*
X80123742Y-71819491D01*
X80140536Y-71887312D01*
X80117998Y-71953447D01*
X80072946Y-71992484D01*
X80064182Y-71996949D01*
X79892213Y-72121890D01*
X79741890Y-72272213D01*
X79616951Y-72444179D01*
X79520444Y-72633585D01*
X79454753Y-72835760D01*
X79421500Y-73045713D01*
X79421500Y-73258286D01*
X79454753Y-73468239D01*
X79520444Y-73670414D01*
X79616951Y-73859820D01*
X79741890Y-74031786D01*
X79855430Y-74145326D01*
X79888915Y-74206649D01*
X79883931Y-74276341D01*
X79842059Y-74332274D01*
X79811083Y-74349189D01*
X79679669Y-74398203D01*
X79679664Y-74398206D01*
X79564455Y-74484452D01*
X79564452Y-74484455D01*
X79478206Y-74599664D01*
X79478202Y-74599671D01*
X79427908Y-74734517D01*
X79421501Y-74794116D01*
X79421501Y-74794123D01*
X79421500Y-74794135D01*
X79421500Y-76589870D01*
X79421501Y-76589876D01*
X79427908Y-76649483D01*
X79478202Y-76784328D01*
X79478206Y-76784335D01*
X79564452Y-76899544D01*
X79564455Y-76899547D01*
X79679664Y-76985793D01*
X79679671Y-76985797D01*
X79814517Y-77036091D01*
X79814516Y-77036091D01*
X79821444Y-77036835D01*
X79874127Y-77042500D01*
X81669872Y-77042499D01*
X81729483Y-77036091D01*
X81864331Y-76985796D01*
X81979546Y-76899546D01*
X82065796Y-76784331D01*
X82116091Y-76649483D01*
X82122500Y-76589873D01*
X82122499Y-74794128D01*
X82116091Y-74734517D01*
X82065796Y-74599669D01*
X82065795Y-74599668D01*
X82065793Y-74599664D01*
X81979547Y-74484455D01*
X81979544Y-74484452D01*
X81864335Y-74398206D01*
X81864328Y-74398202D01*
X81732917Y-74349189D01*
X81676983Y-74307318D01*
X81652566Y-74241853D01*
X81667418Y-74173580D01*
X81688563Y-74145332D01*
X81802104Y-74031792D01*
X81842463Y-73976243D01*
X81927048Y-73859820D01*
X81927047Y-73859820D01*
X81927051Y-73859816D01*
X82023557Y-73670412D01*
X82089246Y-73468243D01*
X82122500Y-73258287D01*
X82122500Y-73045713D01*
X82089246Y-72835757D01*
X82023557Y-72633588D01*
X81927051Y-72444184D01*
X81927049Y-72444181D01*
X81927048Y-72444179D01*
X81802109Y-72272213D01*
X81651786Y-72121890D01*
X81479820Y-71996951D01*
X81479115Y-71996591D01*
X81471054Y-71992485D01*
X81420259Y-71944512D01*
X81403463Y-71876692D01*
X81425999Y-71810556D01*
X81471054Y-71771515D01*
X81479816Y-71767051D01*
X81501789Y-71751086D01*
X81651786Y-71642109D01*
X81651788Y-71642106D01*
X81651792Y-71642104D01*
X81802104Y-71491792D01*
X81802106Y-71491788D01*
X81802109Y-71491786D01*
X81927048Y-71319820D01*
X81927047Y-71319820D01*
X81927051Y-71319816D01*
X82023557Y-71130412D01*
X82089246Y-70928243D01*
X82122500Y-70718287D01*
X82122500Y-70505713D01*
X82089246Y-70295757D01*
X82023557Y-70093588D01*
X81927051Y-69904184D01*
X81927049Y-69904181D01*
X81927048Y-69904179D01*
X81802109Y-69732213D01*
X81651786Y-69581890D01*
X81479820Y-69456951D01*
X81479115Y-69456591D01*
X81471054Y-69452485D01*
X81420259Y-69404512D01*
X81403463Y-69336692D01*
X81425999Y-69270556D01*
X81471054Y-69231515D01*
X81479816Y-69227051D01*
X81501789Y-69211086D01*
X81651786Y-69102109D01*
X81651788Y-69102106D01*
X81651792Y-69102104D01*
X81802104Y-68951792D01*
X81802106Y-68951788D01*
X81802109Y-68951786D01*
X81927048Y-68779820D01*
X81927047Y-68779820D01*
X81927051Y-68779816D01*
X82023557Y-68590412D01*
X82089246Y-68388243D01*
X82122500Y-68178287D01*
X82122500Y-67965713D01*
X82089246Y-67755757D01*
X82023557Y-67553588D01*
X81927051Y-67364184D01*
X81927049Y-67364181D01*
X81927048Y-67364179D01*
X81802109Y-67192213D01*
X81651786Y-67041890D01*
X81479820Y-66916951D01*
X81479115Y-66916591D01*
X81471054Y-66912485D01*
X81420259Y-66864512D01*
X81403463Y-66796692D01*
X81425999Y-66730556D01*
X81471054Y-66691515D01*
X81479816Y-66687051D01*
X81548904Y-66636856D01*
X81651786Y-66562109D01*
X81651788Y-66562106D01*
X81651792Y-66562104D01*
X81802104Y-66411792D01*
X81802106Y-66411788D01*
X81802109Y-66411786D01*
X81927048Y-66239820D01*
X81927047Y-66239820D01*
X81927051Y-66239816D01*
X82023557Y-66050412D01*
X82089246Y-65848243D01*
X82122500Y-65638287D01*
X82122500Y-65425713D01*
X82089246Y-65215757D01*
X82023557Y-65013588D01*
X81927051Y-64824184D01*
X81927049Y-64824181D01*
X81927048Y-64824179D01*
X81802109Y-64652213D01*
X81651786Y-64501890D01*
X81479820Y-64376951D01*
X81290414Y-64280444D01*
X81290413Y-64280443D01*
X81290412Y-64280443D01*
X81088243Y-64214754D01*
X81088241Y-64214753D01*
X81088240Y-64214753D01*
X80926957Y-64189208D01*
X80878287Y-64181500D01*
X80665713Y-64181500D01*
X80617042Y-64189208D01*
X80455760Y-64214753D01*
X80253585Y-64280444D01*
X80064179Y-64376951D01*
X79892213Y-64501890D01*
X79741890Y-64652213D01*
X79616951Y-64824179D01*
X79520444Y-65013585D01*
X79454753Y-65215760D01*
X79421500Y-65425713D01*
X76700500Y-65425713D01*
X76700500Y-57522135D01*
X83739500Y-57522135D01*
X83739500Y-59317870D01*
X83739501Y-59317876D01*
X83745908Y-59377483D01*
X83796202Y-59512328D01*
X83796206Y-59512335D01*
X83882452Y-59627544D01*
X83882455Y-59627547D01*
X83997664Y-59713793D01*
X83997671Y-59713797D01*
X84132517Y-59764091D01*
X84132516Y-59764091D01*
X84139444Y-59764835D01*
X84192127Y-59770500D01*
X85987872Y-59770499D01*
X86047483Y-59764091D01*
X86182331Y-59713796D01*
X86297546Y-59627546D01*
X86383796Y-59512331D01*
X86434091Y-59377483D01*
X86440500Y-59317873D01*
X86440499Y-57522128D01*
X86434091Y-57462517D01*
X86383796Y-57327669D01*
X86383795Y-57327668D01*
X86383793Y-57327664D01*
X86297547Y-57212455D01*
X86297544Y-57212452D01*
X86182335Y-57126206D01*
X86182328Y-57126202D01*
X86047482Y-57075908D01*
X86047483Y-57075908D01*
X85987883Y-57069501D01*
X85987881Y-57069500D01*
X85987873Y-57069500D01*
X85987864Y-57069500D01*
X84192129Y-57069500D01*
X84192123Y-57069501D01*
X84132516Y-57075908D01*
X83997671Y-57126202D01*
X83997664Y-57126206D01*
X83882455Y-57212452D01*
X83882452Y-57212455D01*
X83796206Y-57327664D01*
X83796202Y-57327671D01*
X83745908Y-57462517D01*
X83739501Y-57522116D01*
X83739501Y-57522123D01*
X83739500Y-57522135D01*
X76700500Y-57522135D01*
X76700500Y-55488500D01*
X76720185Y-55421461D01*
X76772989Y-55375706D01*
X76824500Y-55364500D01*
X110627500Y-55364500D01*
X110694539Y-55384185D01*
G37*
%TD.AperFunction*%
%TD*%
M02*
