M48
; DRILL file {KiCad 9.0.6} date 2026-09-17T04:04:12+1000
; FORMAT={-:-/ absolute / metric / decimal}
; #@! TF.CreationDate,2026-09-17T04:04:12+10:00
; #@! TF.GenerationSoftware,Kicad,Pcbnew,9.0.6
; #@! TF.FileFunction,Plated,1,2,PTH
FMAT,2
METRIC
; #@! TA.AperFunction,Plated,PTH,ViaDrill
T1C0.300
; #@! TA.AperFunction,Plated,PTH,ComponentDrill
T2C0.800
; #@! TA.AperFunction,Plated,PTH,ComponentDrill
T3C1.000
; #@! TA.AperFunction,Plated,PTH,ComponentDrill
T4C2.200
%
G90
G05
T1
X93.599Y-72.39
X98.806Y-67.691
T2
X85.09Y-58.42
X85.09Y-60.96
X85.09Y-63.5
X85.09Y-66.04
X85.09Y-68.58
X85.09Y-71.12
X85.09Y-73.66
X102.87Y-58.42
X102.87Y-60.96
X102.87Y-63.5
X102.87Y-66.04
X102.87Y-68.58
X102.87Y-71.12
X102.87Y-73.66
X102.87Y-76.2
T3
X80.772Y-65.532
X80.772Y-68.072
X80.772Y-70.612
X80.772Y-73.152
X80.772Y-75.692
X80.772Y-81.28
X80.772Y-83.82
X80.772Y-86.36
X85.09Y-76.2
X85.852Y-83.82
X87.884Y-88.392
X88.392Y-83.82
X90.424Y-88.392
X90.932Y-83.82
X92.964Y-88.392
X95.504Y-88.392
X97.028Y-83.82
X98.044Y-88.392
X99.568Y-83.82
X100.584Y-88.392
X102.108Y-83.82
X107.188Y-65.532
X107.188Y-68.072
X107.188Y-70.612
X107.188Y-73.152
X107.188Y-75.692
X107.188Y-81.28
X107.188Y-83.82
X107.188Y-86.36
T4
X78.74Y-57.404
X78.74Y-91.948
X108.712Y-57.404
X108.712Y-91.948
M30
