%TF.GenerationSoftware,KiCad,Pcbnew,9.0.6*%
%TF.CreationDate,2026-09-17T04:04:04+10:00*%
%TF.ProjectId,ESP32Seatalk,45535033-3253-4656-9174-616c6b2e6b69,rev?*%
%TF.SameCoordinates,Original*%
%TF.FileFunction,Copper,L2,Bot*%
%TF.FilePolarity,Positive*%
%FSLAX46Y46*%
G04 Gerber Fmt 4.6, Leading zero omitted, Abs format (unit mm)*
G04 Created by KiCad (PCBNEW 9.0.6) date 2026-09-17 04:04:04*
%MOMM*%
%LPD*%
G01*
G04 APERTURE LIST*
G04 Aperture macros list*
%AMRoundRect*
0 Rectangle with rounded corners*
0 $1 Rounding radius*
0 $2 $3 $4 $5 $6 $7 $8 $9 X,Y pos of 4 corners*
0 Add a 4 corners polygon primitive as box body*
4,1,4,$2,$3,$4,$5,$6,$7,$8,$9,$2,$3,0*
0 Add four circle primitives for the rounded corners*
1,1,$1+$1,$2,$3*
1,1,$1+$1,$4,$5*
1,1,$1+$1,$6,$7*
1,1,$1+$1,$8,$9*
0 Add four rect primitives between the rounded corners*
20,1,$1+$1,$2,$3,$4,$5,0*
20,1,$1+$1,$4,$5,$6,$7,0*
20,1,$1+$1,$6,$7,$8,$9,0*
20,1,$1+$1,$8,$9,$2,$3,0*%
G04 Aperture macros list end*
%TA.AperFunction,ComponentPad*%
%ADD10C,1.700000*%
%TD*%
%TA.AperFunction,ComponentPad*%
%ADD11R,1.700000X1.700000*%
%TD*%
%TA.AperFunction,ComponentPad*%
%ADD12C,3.500000*%
%TD*%
%TA.AperFunction,SMDPad,CuDef*%
%ADD13RoundRect,0.250000X-0.337500X-0.475000X0.337500X-0.475000X0.337500X0.475000X-0.337500X0.475000X0*%
%TD*%
%TA.AperFunction,SMDPad,CuDef*%
%ADD14RoundRect,0.250000X0.337500X0.475000X-0.337500X0.475000X-0.337500X-0.475000X0.337500X-0.475000X0*%
%TD*%
%TA.AperFunction,SMDPad,CuDef*%
%ADD15RoundRect,0.250000X-0.545000X-0.445000X0.545000X-0.445000X0.545000X0.445000X-0.545000X0.445000X0*%
%TD*%
%TA.AperFunction,SMDPad,CuDef*%
%ADD16RoundRect,0.250000X-0.450000X0.350000X-0.450000X-0.350000X0.450000X-0.350000X0.450000X0.350000X0*%
%TD*%
%TA.AperFunction,SMDPad,CuDef*%
%ADD17RoundRect,0.375000X0.375000X-0.625000X0.375000X0.625000X-0.375000X0.625000X-0.375000X-0.625000X0*%
%TD*%
%TA.AperFunction,SMDPad,CuDef*%
%ADD18RoundRect,0.500000X1.400000X-0.500000X1.400000X0.500000X-1.400000X0.500000X-1.400000X-0.500000X0*%
%TD*%
%TA.AperFunction,SMDPad,CuDef*%
%ADD19RoundRect,0.150000X0.587500X0.150000X-0.587500X0.150000X-0.587500X-0.150000X0.587500X-0.150000X0*%
%TD*%
%TA.AperFunction,ViaPad*%
%ADD20C,0.600000*%
%TD*%
%TA.AperFunction,Conductor*%
%ADD21C,0.600000*%
%TD*%
%TA.AperFunction,Conductor*%
%ADD22C,0.200000*%
%TD*%
G04 APERTURE END LIST*
D10*
%TO.P,U2,0,GPIO0*%
%TO.N,Net-(J5-Pin_1)*%
X85090000Y-76200000D03*
%TO.P,U2,1,GPIO1*%
%TO.N,Net-(J5-Pin_2)*%
X85090000Y-73660000D03*
%TO.P,U2,2,GPIO2*%
%TO.N,Net-(J5-Pin_3)*%
X85090000Y-71120000D03*
%TO.P,U2,3,GPIO21*%
%TO.N,Net-(J5-Pin_4)*%
X85090000Y-68580000D03*
%TO.P,U2,4,GPIO20*%
%TO.N,Net-(J5-Pin_5)*%
X85090000Y-66040000D03*
%TO.P,U2,5,3.3v*%
%TO.N,+3.3V*%
X85090000Y-63500000D03*
%TO.P,U2,6,GND*%
%TO.N,GND*%
X85090000Y-60960000D03*
D11*
%TO.P,U2,7,5v*%
%TO.N,unconnected-(U2-5v-Pad7)*%
X85090000Y-58420000D03*
%TO.P,U2,8,GPIO10*%
%TO.N,CAN_RX_LL*%
X102870000Y-58420000D03*
D10*
%TO.P,U2,9,GPIO9*%
%TO.N,Net-(J6-Pin_1)*%
X102870000Y-60960000D03*
%TO.P,U2,10,GPIO8*%
%TO.N,Net-(J6-Pin_2)*%
X102870000Y-63500000D03*
%TO.P,U2,11,GPIO7*%
%TO.N,CAN_TX_LL*%
X102870000Y-66040000D03*
%TO.P,U2,12,GPIO6*%
%TO.N,Net-(J6-Pin_3)*%
X102870000Y-68580000D03*
%TO.P,U2,13,GPIO5*%
%TO.N,Net-(J6-Pin_4)*%
X102870000Y-71120000D03*
%TO.P,U2,14,GPIO4*%
%TO.N,LV_SEATALK*%
X102870000Y-73660000D03*
%TO.P,U2,15,GPIO3*%
%TO.N,Net-(J6-Pin_5)*%
X102870000Y-76200000D03*
%TD*%
D11*
%TO.P,J1,1,Pin_1*%
%TO.N,+12V*%
X107188000Y-86360000D03*
D10*
%TO.P,J1,2,Pin_2*%
%TO.N,HV_SEATALK*%
X107188000Y-83820000D03*
%TO.P,J1,3,Pin_3*%
%TO.N,GND*%
X107188000Y-81280000D03*
%TD*%
D12*
%TO.P,H2,1,1*%
%TO.N,GND*%
X108712000Y-57404000D03*
%TD*%
D11*
%TO.P,J7,1,Pin_1*%
%TO.N,GND*%
X85852000Y-83820000D03*
D10*
%TO.P,J7,2,Pin_2*%
X88392000Y-83820000D03*
%TO.P,J7,3,Pin_3*%
X90932000Y-83820000D03*
%TD*%
D12*
%TO.P,H1,1,1*%
%TO.N,GND*%
X78740000Y-57404000D03*
%TD*%
D11*
%TO.P,J4,1,Pin_1*%
%TO.N,+3.3V*%
X87884000Y-88392000D03*
D10*
%TO.P,J4,2,Pin_2*%
%TO.N,GND*%
X90424000Y-88392000D03*
%TO.P,J4,3,Pin_3*%
%TO.N,CAN_TX_LL*%
X92964000Y-88392000D03*
%TO.P,J4,4,Pin_4*%
%TO.N,CAN_RX_LL*%
X95504000Y-88392000D03*
%TO.P,J4,5,Pin_5*%
%TO.N,CANH*%
X98044000Y-88392000D03*
%TO.P,J4,6,Pin_6*%
%TO.N,CANL*%
X100584000Y-88392000D03*
%TD*%
D11*
%TO.P,J5,1,Pin_1*%
%TO.N,Net-(J5-Pin_1)*%
X80772000Y-75692000D03*
D10*
%TO.P,J5,2,Pin_2*%
%TO.N,Net-(J5-Pin_2)*%
X80772000Y-73152000D03*
%TO.P,J5,3,Pin_3*%
%TO.N,Net-(J5-Pin_3)*%
X80772000Y-70612000D03*
%TO.P,J5,4,Pin_4*%
%TO.N,Net-(J5-Pin_4)*%
X80772000Y-68072000D03*
%TO.P,J5,5,Pin_5*%
%TO.N,Net-(J5-Pin_5)*%
X80772000Y-65532000D03*
%TD*%
D11*
%TO.P,J3,1,Pin_1*%
%TO.N,GND*%
X97028000Y-83820000D03*
D10*
%TO.P,J3,2,Pin_2*%
%TO.N,CANH*%
X99568000Y-83820000D03*
%TO.P,J3,3,Pin_3*%
%TO.N,CANL*%
X102108000Y-83820000D03*
%TD*%
D11*
%TO.P,J6,1,Pin_1*%
%TO.N,Net-(J6-Pin_1)*%
X107188000Y-65532000D03*
D10*
%TO.P,J6,2,Pin_2*%
%TO.N,Net-(J6-Pin_2)*%
X107188000Y-68072000D03*
%TO.P,J6,3,Pin_3*%
%TO.N,Net-(J6-Pin_3)*%
X107188000Y-70612000D03*
%TO.P,J6,4,Pin_4*%
%TO.N,Net-(J6-Pin_4)*%
X107188000Y-73152000D03*
%TO.P,J6,5,Pin_5*%
%TO.N,Net-(J6-Pin_5)*%
X107188000Y-75692000D03*
%TD*%
D11*
%TO.P,J2,1,Pin_1*%
%TO.N,+12V*%
X80772000Y-81280000D03*
D10*
%TO.P,J2,2,Pin_2*%
%TO.N,HV_SEATALK*%
X80772000Y-83820000D03*
%TO.P,J2,3,Pin_3*%
%TO.N,GND*%
X80772000Y-86360000D03*
%TD*%
D12*
%TO.P,H4,1,1*%
%TO.N,GND*%
X108712000Y-91948000D03*
%TD*%
%TO.P,H3,1,1*%
%TO.N,GND*%
X78740000Y-91948000D03*
%TD*%
D13*
%TO.P,C2,1*%
%TO.N,+12V*%
X90381000Y-74168000D03*
%TO.P,C2,2*%
%TO.N,GND*%
X92456000Y-74168000D03*
%TD*%
D14*
%TO.P,C4,1*%
%TO.N,GND*%
X98573500Y-74168000D03*
%TO.P,C4,2*%
%TO.N,+3.3V*%
X96498500Y-74168000D03*
%TD*%
D15*
%TO.P,C3,1*%
%TO.N,+3.3V*%
X96096000Y-70612000D03*
%TO.P,C3,2*%
%TO.N,GND*%
X98976000Y-70612000D03*
%TD*%
%TO.P,C1,1*%
%TO.N,+12V*%
X90000000Y-70612000D03*
%TO.P,C1,2*%
%TO.N,GND*%
X92880000Y-70612000D03*
%TD*%
D16*
%TO.P,R1,1*%
%TO.N,+3.3V*%
X98044000Y-76724000D03*
%TO.P,R1,2*%
%TO.N,LV_SEATALK*%
X98044000Y-78724000D03*
%TD*%
D17*
%TO.P,U1,1,GND*%
%TO.N,GND*%
X96788000Y-65634000D03*
%TO.P,U1,2,VO*%
%TO.N,+3.3V*%
X94488000Y-65634000D03*
D18*
X94488000Y-59334000D03*
D17*
%TO.P,U1,3,VI*%
%TO.N,+12V*%
X92188000Y-65634000D03*
%TD*%
D19*
%TO.P,Q1,1,G*%
%TO.N,+3.3V*%
X95425500Y-76774000D03*
%TO.P,Q1,2,S*%
%TO.N,LV_SEATALK*%
X95425500Y-78674000D03*
%TO.P,Q1,3,D*%
%TO.N,HV_SEATALK*%
X93550500Y-77724000D03*
%TD*%
D16*
%TO.P,R2,1*%
%TO.N,+12V*%
X90424000Y-76708000D03*
%TO.P,R2,2*%
%TO.N,HV_SEATALK*%
X90424000Y-78708000D03*
%TD*%
D20*
%TO.N,GND*%
X98806000Y-67691000D03*
X93599000Y-72390000D03*
%TD*%
D21*
%TO.N,GND*%
X98679000Y-67818000D02*
X98806000Y-67691000D01*
X98731000Y-71308000D02*
X98731000Y-71008000D01*
X84877700Y-84370000D02*
X85002000Y-84370000D01*
X92635000Y-71008000D02*
X92880000Y-70612000D01*
X98611000Y-73742000D02*
X98611000Y-73442000D01*
X85002000Y-84370000D02*
X85302000Y-84370000D01*
X92635000Y-71308000D02*
X92635000Y-71008000D01*
X92456000Y-74168000D02*
X92493500Y-73742000D01*
X92493500Y-73317700D02*
X92563124Y-72390000D01*
X92493500Y-73442000D02*
X92493500Y-73317700D01*
X97717047Y-67818000D02*
X98679000Y-67818000D01*
X85302000Y-84370000D02*
X85852000Y-83820000D01*
X92880000Y-70612000D02*
X92384000Y-70757000D01*
X97717047Y-67818000D02*
X97328900Y-66595600D01*
X98573500Y-74168000D02*
X98611000Y-73742000D01*
X98383000Y-69915300D02*
X97717047Y-67818000D01*
X98731000Y-71008000D02*
X98976000Y-70612000D01*
X98611000Y-73442000D02*
X98611000Y-73317700D01*
X98976000Y-70612000D02*
X98383000Y-69925600D01*
X96178000Y-83820000D02*
X96478000Y-83820000D01*
X92635000Y-71432300D02*
X92635000Y-71308000D01*
X97326000Y-66592600D02*
X96788000Y-65634000D01*
X98611000Y-73317700D02*
X98731000Y-71432300D01*
X92563124Y-72390000D02*
X93599000Y-72390000D01*
X96478000Y-83820000D02*
X97028000Y-83820000D01*
X92493500Y-73742000D02*
X92493500Y-73442000D01*
X92563124Y-72390000D02*
X92635000Y-71432300D01*
X98731000Y-71432300D02*
X98731000Y-71308000D01*
X97328900Y-66595600D02*
X97326000Y-66592600D01*
X98383000Y-69925600D02*
X98383000Y-69915300D01*
X86402000Y-83820000D02*
X86702000Y-83820000D01*
X85852000Y-83820000D02*
X86402000Y-83820000D01*
%TO.N,+12V*%
X90381000Y-74168000D02*
X90402500Y-74594000D01*
X90343500Y-73742000D02*
X90381000Y-74168000D01*
X90000000Y-70612000D02*
X90245000Y-71008000D01*
X90402500Y-74894000D02*
X90402500Y-76107000D01*
X90402500Y-76407000D02*
X90424000Y-76708000D01*
X81746300Y-80730000D02*
X89722300Y-77106000D01*
X89722300Y-77106000D02*
X89732600Y-77106000D01*
X89732600Y-77106000D02*
X90424000Y-76708000D01*
X91649900Y-66592600D02*
X91647000Y-66595500D01*
X90593000Y-69925600D02*
X90000000Y-70612000D01*
X90343500Y-73442000D02*
X90343500Y-73742000D01*
X81622000Y-80730000D02*
X81746300Y-80730000D01*
X81322000Y-80730000D02*
X81622000Y-80730000D01*
X90402500Y-76107000D02*
X90402500Y-76407000D01*
X90245000Y-71432300D02*
X90343500Y-73317700D01*
X90245000Y-71008000D02*
X90245000Y-71308000D01*
X90593000Y-69915300D02*
X90593000Y-69925600D01*
X90245000Y-71308000D02*
X90245000Y-71432300D01*
X90402500Y-74594000D02*
X90402500Y-74894000D01*
X91647000Y-66595500D02*
X90593000Y-69915300D01*
X80772000Y-81280000D02*
X81322000Y-80730000D01*
X90343500Y-73317700D02*
X90343500Y-73442000D01*
X92188000Y-65634000D02*
X91649900Y-66592600D01*
%TO.N,+3.3V*%
X94488000Y-59334000D02*
X92622500Y-60007600D01*
X96041800Y-76479100D02*
X96113000Y-74884400D01*
X92619800Y-60007600D02*
X85090000Y-63500000D01*
X94916700Y-66627600D02*
X94488000Y-65634000D01*
X94916700Y-66642000D02*
X94916700Y-66627600D01*
X96461000Y-73742000D02*
X96461000Y-73442000D01*
X94488000Y-60035900D02*
X94488000Y-59334000D01*
X94488000Y-64632600D02*
X94488000Y-60335900D01*
X92622500Y-60007600D02*
X92619800Y-60007600D01*
X96096000Y-70612000D02*
X95503000Y-69925600D01*
X97643000Y-76774000D02*
X98044000Y-76724000D01*
X96341000Y-71308000D02*
X96341000Y-71008000D01*
X94488000Y-60335900D02*
X94488000Y-60035900D01*
X95425500Y-76774000D02*
X96041800Y-76479100D01*
X96461000Y-73317700D02*
X96341000Y-71432300D01*
X94488000Y-65634000D02*
X94488000Y-64932600D01*
X97343000Y-76774000D02*
X97643000Y-76774000D01*
X96341000Y-71008000D02*
X96096000Y-70612000D01*
X95425500Y-76774000D02*
X96163600Y-76774000D01*
X96113000Y-74884400D02*
X96498500Y-74168000D01*
X96498500Y-74168000D02*
X96461000Y-73742000D01*
X96341000Y-71432300D02*
X96341000Y-71308000D01*
X96461000Y-73442000D02*
X96461000Y-73317700D01*
X95503000Y-69925600D02*
X94916700Y-66642000D01*
X94488000Y-64932600D02*
X94488000Y-64632600D01*
X96163600Y-76774000D02*
X97343000Y-76774000D01*
D22*
%TO.N,HV_SEATALK*%
X90424000Y-78708000D02*
X91115400Y-79106000D01*
X91115400Y-79106000D02*
X91125700Y-79106000D01*
X91115400Y-78310000D02*
X91125700Y-78310000D01*
X80772000Y-83820000D02*
X89762100Y-79202000D01*
X92818100Y-77902800D02*
X93550500Y-77724000D01*
X90424000Y-78708000D02*
X91115400Y-78310000D01*
X89769400Y-79194700D02*
X90424000Y-78708000D01*
X92812000Y-77902800D02*
X92818100Y-77902800D01*
X91125700Y-78310000D02*
X92812000Y-77902800D01*
X89762100Y-79202000D02*
X89769400Y-79194700D01*
X91125700Y-79106000D02*
X107188000Y-83820000D01*
%TO.N,CANH*%
X98044000Y-88392000D02*
X99568000Y-83820000D01*
%TO.N,CANL*%
X100584000Y-88392000D02*
X102108000Y-83820000D01*
%TO.N,Net-(J5-Pin_3)*%
X80772000Y-70612000D02*
X85090000Y-71120000D01*
%TO.N,Net-(J5-Pin_2)*%
X80772000Y-73152000D02*
X85090000Y-73660000D01*
%TO.N,Net-(J5-Pin_1)*%
X80772000Y-75692000D02*
X81522000Y-76200000D01*
X81522000Y-76200000D02*
X81622000Y-76200000D01*
X81622000Y-76200000D02*
X85090000Y-76200000D01*
%TO.N,Net-(J5-Pin_4)*%
X80772000Y-68072000D02*
X85090000Y-68580000D01*
%TO.N,Net-(J5-Pin_5)*%
X80772000Y-65532000D02*
X85090000Y-66040000D01*
%TO.N,Net-(J6-Pin_4)*%
X107188000Y-73152000D02*
X102870000Y-71120000D01*
%TO.N,Net-(J6-Pin_3)*%
X107188000Y-70612000D02*
X102870000Y-68580000D01*
%TO.N,Net-(J6-Pin_5)*%
X107188000Y-75692000D02*
X102870000Y-76200000D01*
%TO.N,Net-(J6-Pin_1)*%
X106438000Y-64782000D02*
X106438000Y-64682000D01*
X107188000Y-65532000D02*
X106438000Y-64782000D01*
X106438000Y-64682000D02*
X106438000Y-64640600D01*
X106438000Y-64640600D02*
X102870000Y-60960000D01*
%TO.N,Net-(J6-Pin_2)*%
X107188000Y-68072000D02*
X102870000Y-63500000D01*
%TO.N,LV_SEATALK*%
X98630700Y-78169400D02*
X98638000Y-78162100D01*
X96063600Y-78699000D02*
X96163600Y-78699000D01*
X98044000Y-78724000D02*
X98630700Y-78169400D01*
X97343000Y-78699000D02*
X97443000Y-78699000D01*
X96163600Y-78699000D02*
X97343000Y-78699000D01*
X98638000Y-78162100D02*
X102870000Y-73660000D01*
X97443000Y-78699000D02*
X98044000Y-78724000D01*
X95425500Y-78674000D02*
X96063600Y-78699000D01*
%TD*%
M02*
