%TF.GenerationSoftware,KiCad,Pcbnew,9.0.6*%
%TF.CreationDate,2026-09-17T04:04:12+10:00*%
%TF.ProjectId,ESP32Seatalk,45535033-3253-4656-9174-616c6b2e6b69,rev?*%
%TF.SameCoordinates,Original*%
%TF.FileFunction,Drillmap*%
%TF.FilePolarity,Positive*%
%FSLAX45Y45*%
G04 Gerber Fmt 4.5, Leading zero omitted, Abs format (unit mm)*
G04 Created by KiCad (PCBNEW 9.0.6) date 2026-09-17 04:04:12*
%MOMM*%
%LPD*%
G01*
G04 APERTURE LIST*
%ADD10C,0.050000*%
%ADD11C,0.200000*%
%ADD12C,0.100000*%
%ADD13C,0.220000*%
G04 APERTURE END LIST*
D10*
X7620000Y-9499600D02*
X11125200Y-9499600D01*
X7620000Y-5486400D02*
X7620000Y-9499600D01*
X11125200Y-9499600D02*
X11125200Y-5486400D01*
X11125200Y-5486400D02*
X7620000Y-5486400D01*
D11*
D12*
X9344900Y-7224000D02*
X9374900Y-7254000D01*
X9374900Y-7224000D02*
X9344900Y-7254000D01*
X9865600Y-6754100D02*
X9895600Y-6784100D01*
X9895600Y-6754100D02*
X9865600Y-6784100D01*
X8549000Y-5842000D02*
G75*
G02*
X8469000Y-5842000I-40000J0D01*
G01*
X8469000Y-5842000D02*
G75*
G02*
X8549000Y-5842000I40000J0D01*
G01*
X8549000Y-6096000D02*
G75*
G02*
X8469000Y-6096000I-40000J0D01*
G01*
X8469000Y-6096000D02*
G75*
G02*
X8549000Y-6096000I40000J0D01*
G01*
X8549000Y-6350000D02*
G75*
G02*
X8469000Y-6350000I-40000J0D01*
G01*
X8469000Y-6350000D02*
G75*
G02*
X8549000Y-6350000I40000J0D01*
G01*
X8549000Y-6604000D02*
G75*
G02*
X8469000Y-6604000I-40000J0D01*
G01*
X8469000Y-6604000D02*
G75*
G02*
X8549000Y-6604000I40000J0D01*
G01*
X8549000Y-6858000D02*
G75*
G02*
X8469000Y-6858000I-40000J0D01*
G01*
X8469000Y-6858000D02*
G75*
G02*
X8549000Y-6858000I40000J0D01*
G01*
X8549000Y-7112000D02*
G75*
G02*
X8469000Y-7112000I-40000J0D01*
G01*
X8469000Y-7112000D02*
G75*
G02*
X8549000Y-7112000I40000J0D01*
G01*
X8549000Y-7366000D02*
G75*
G02*
X8469000Y-7366000I-40000J0D01*
G01*
X8469000Y-7366000D02*
G75*
G02*
X8549000Y-7366000I40000J0D01*
G01*
X10327000Y-5842000D02*
G75*
G02*
X10247000Y-5842000I-40000J0D01*
G01*
X10247000Y-5842000D02*
G75*
G02*
X10327000Y-5842000I40000J0D01*
G01*
X10327000Y-6096000D02*
G75*
G02*
X10247000Y-6096000I-40000J0D01*
G01*
X10247000Y-6096000D02*
G75*
G02*
X10327000Y-6096000I40000J0D01*
G01*
X10327000Y-6350000D02*
G75*
G02*
X10247000Y-6350000I-40000J0D01*
G01*
X10247000Y-6350000D02*
G75*
G02*
X10327000Y-6350000I40000J0D01*
G01*
X10327000Y-6604000D02*
G75*
G02*
X10247000Y-6604000I-40000J0D01*
G01*
X10247000Y-6604000D02*
G75*
G02*
X10327000Y-6604000I40000J0D01*
G01*
X10327000Y-6858000D02*
G75*
G02*
X10247000Y-6858000I-40000J0D01*
G01*
X10247000Y-6858000D02*
G75*
G02*
X10327000Y-6858000I40000J0D01*
G01*
X10327000Y-7112000D02*
G75*
G02*
X10247000Y-7112000I-40000J0D01*
G01*
X10247000Y-7112000D02*
G75*
G02*
X10327000Y-7112000I40000J0D01*
G01*
X10327000Y-7366000D02*
G75*
G02*
X10247000Y-7366000I-40000J0D01*
G01*
X10247000Y-7366000D02*
G75*
G02*
X10327000Y-7366000I40000J0D01*
G01*
X10327000Y-7620000D02*
G75*
G02*
X10247000Y-7620000I-40000J0D01*
G01*
X10247000Y-7620000D02*
G75*
G02*
X10327000Y-7620000I40000J0D01*
G01*
X8077200Y-6503200D02*
X8077200Y-6603200D01*
X8027200Y-6553200D02*
X8127200Y-6553200D01*
X8077200Y-6757200D02*
X8077200Y-6857200D01*
X8027200Y-6807200D02*
X8127200Y-6807200D01*
X8077200Y-7011200D02*
X8077200Y-7111200D01*
X8027200Y-7061200D02*
X8127200Y-7061200D01*
X8077200Y-7265200D02*
X8077200Y-7365200D01*
X8027200Y-7315200D02*
X8127200Y-7315200D01*
X8077200Y-7519200D02*
X8077200Y-7619200D01*
X8027200Y-7569200D02*
X8127200Y-7569200D01*
X8077200Y-8078000D02*
X8077200Y-8178000D01*
X8027200Y-8128000D02*
X8127200Y-8128000D01*
X8077200Y-8332000D02*
X8077200Y-8432000D01*
X8027200Y-8382000D02*
X8127200Y-8382000D01*
X8077200Y-8586000D02*
X8077200Y-8686000D01*
X8027200Y-8636000D02*
X8127200Y-8636000D01*
X8509000Y-7570000D02*
X8509000Y-7670000D01*
X8459000Y-7620000D02*
X8559000Y-7620000D01*
X8585200Y-8332000D02*
X8585200Y-8432000D01*
X8535200Y-8382000D02*
X8635200Y-8382000D01*
X8788400Y-8789200D02*
X8788400Y-8889200D01*
X8738400Y-8839200D02*
X8838400Y-8839200D01*
X8839200Y-8332000D02*
X8839200Y-8432000D01*
X8789200Y-8382000D02*
X8889200Y-8382000D01*
X9042400Y-8789200D02*
X9042400Y-8889200D01*
X8992400Y-8839200D02*
X9092400Y-8839200D01*
X9093200Y-8332000D02*
X9093200Y-8432000D01*
X9043200Y-8382000D02*
X9143200Y-8382000D01*
X9296400Y-8789200D02*
X9296400Y-8889200D01*
X9246400Y-8839200D02*
X9346400Y-8839200D01*
X9550400Y-8789200D02*
X9550400Y-8889200D01*
X9500400Y-8839200D02*
X9600400Y-8839200D01*
X9702800Y-8332000D02*
X9702800Y-8432000D01*
X9652800Y-8382000D02*
X9752800Y-8382000D01*
X9804400Y-8789200D02*
X9804400Y-8889200D01*
X9754400Y-8839200D02*
X9854400Y-8839200D01*
X9956800Y-8332000D02*
X9956800Y-8432000D01*
X9906800Y-8382000D02*
X10006800Y-8382000D01*
X10058400Y-8789200D02*
X10058400Y-8889200D01*
X10008400Y-8839200D02*
X10108400Y-8839200D01*
X10210800Y-8332000D02*
X10210800Y-8432000D01*
X10160800Y-8382000D02*
X10260800Y-8382000D01*
X10718800Y-6503200D02*
X10718800Y-6603200D01*
X10668800Y-6553200D02*
X10768800Y-6553200D01*
X10718800Y-6757200D02*
X10718800Y-6857200D01*
X10668800Y-6807200D02*
X10768800Y-6807200D01*
X10718800Y-7011200D02*
X10718800Y-7111200D01*
X10668800Y-7061200D02*
X10768800Y-7061200D01*
X10718800Y-7265200D02*
X10718800Y-7365200D01*
X10668800Y-7315200D02*
X10768800Y-7315200D01*
X10718800Y-7519200D02*
X10718800Y-7619200D01*
X10668800Y-7569200D02*
X10768800Y-7569200D01*
X10718800Y-8078000D02*
X10718800Y-8178000D01*
X10668800Y-8128000D02*
X10768800Y-8128000D01*
X10718800Y-8332000D02*
X10718800Y-8432000D01*
X10668800Y-8382000D02*
X10768800Y-8382000D01*
X10718800Y-8586000D02*
X10718800Y-8686000D01*
X10668800Y-8636000D02*
X10768800Y-8636000D01*
D13*
X7951782Y-5818182D02*
X7951782Y-5662617D01*
X7796217Y-5662617D01*
X7796217Y-5818182D01*
X7951782Y-5818182D01*
X7951782Y-9272583D02*
X7951782Y-9117018D01*
X7796217Y-9117018D01*
X7796217Y-9272583D01*
X7951782Y-9272583D01*
X10948983Y-5818182D02*
X10948983Y-5662617D01*
X10793418Y-5662617D01*
X10793418Y-5818182D01*
X10948983Y-5818182D01*
X10948983Y-9272583D02*
X10948983Y-9117018D01*
X10793418Y-9117018D01*
X10793418Y-9272583D01*
X10948983Y-9272583D01*
D11*
X7878277Y-9813584D02*
X7878277Y-9613584D01*
X7878277Y-9613584D02*
X7925896Y-9613584D01*
X7925896Y-9613584D02*
X7954467Y-9623108D01*
X7954467Y-9623108D02*
X7973515Y-9642155D01*
X7973515Y-9642155D02*
X7983039Y-9661203D01*
X7983039Y-9661203D02*
X7992562Y-9699298D01*
X7992562Y-9699298D02*
X7992562Y-9727870D01*
X7992562Y-9727870D02*
X7983039Y-9765965D01*
X7983039Y-9765965D02*
X7973515Y-9785012D01*
X7973515Y-9785012D02*
X7954467Y-9804060D01*
X7954467Y-9804060D02*
X7925896Y-9813584D01*
X7925896Y-9813584D02*
X7878277Y-9813584D01*
X8078277Y-9813584D02*
X8078277Y-9680250D01*
X8078277Y-9718346D02*
X8087801Y-9699298D01*
X8087801Y-9699298D02*
X8097324Y-9689774D01*
X8097324Y-9689774D02*
X8116372Y-9680250D01*
X8116372Y-9680250D02*
X8135420Y-9680250D01*
X8202086Y-9813584D02*
X8202086Y-9680250D01*
X8202086Y-9613584D02*
X8192562Y-9623108D01*
X8192562Y-9623108D02*
X8202086Y-9632631D01*
X8202086Y-9632631D02*
X8211610Y-9623108D01*
X8211610Y-9623108D02*
X8202086Y-9613584D01*
X8202086Y-9613584D02*
X8202086Y-9632631D01*
X8325896Y-9813584D02*
X8306848Y-9804060D01*
X8306848Y-9804060D02*
X8297324Y-9785012D01*
X8297324Y-9785012D02*
X8297324Y-9613584D01*
X8430658Y-9813584D02*
X8411610Y-9804060D01*
X8411610Y-9804060D02*
X8402086Y-9785012D01*
X8402086Y-9785012D02*
X8402086Y-9613584D01*
X8659229Y-9813584D02*
X8659229Y-9613584D01*
X8659229Y-9613584D02*
X8725896Y-9756441D01*
X8725896Y-9756441D02*
X8792563Y-9613584D01*
X8792563Y-9613584D02*
X8792563Y-9813584D01*
X8973515Y-9813584D02*
X8973515Y-9708822D01*
X8973515Y-9708822D02*
X8963991Y-9689774D01*
X8963991Y-9689774D02*
X8944944Y-9680250D01*
X8944944Y-9680250D02*
X8906848Y-9680250D01*
X8906848Y-9680250D02*
X8887801Y-9689774D01*
X8973515Y-9804060D02*
X8954467Y-9813584D01*
X8954467Y-9813584D02*
X8906848Y-9813584D01*
X8906848Y-9813584D02*
X8887801Y-9804060D01*
X8887801Y-9804060D02*
X8878277Y-9785012D01*
X8878277Y-9785012D02*
X8878277Y-9765965D01*
X8878277Y-9765965D02*
X8887801Y-9746917D01*
X8887801Y-9746917D02*
X8906848Y-9737393D01*
X8906848Y-9737393D02*
X8954467Y-9737393D01*
X8954467Y-9737393D02*
X8973515Y-9727870D01*
X9068753Y-9680250D02*
X9068753Y-9880250D01*
X9068753Y-9689774D02*
X9087801Y-9680250D01*
X9087801Y-9680250D02*
X9125896Y-9680250D01*
X9125896Y-9680250D02*
X9144944Y-9689774D01*
X9144944Y-9689774D02*
X9154467Y-9699298D01*
X9154467Y-9699298D02*
X9163991Y-9718346D01*
X9163991Y-9718346D02*
X9163991Y-9775489D01*
X9163991Y-9775489D02*
X9154467Y-9794536D01*
X9154467Y-9794536D02*
X9144944Y-9804060D01*
X9144944Y-9804060D02*
X9125896Y-9813584D01*
X9125896Y-9813584D02*
X9087801Y-9813584D01*
X9087801Y-9813584D02*
X9068753Y-9804060D01*
X9249705Y-9794536D02*
X9259229Y-9804060D01*
X9259229Y-9804060D02*
X9249705Y-9813584D01*
X9249705Y-9813584D02*
X9240182Y-9804060D01*
X9240182Y-9804060D02*
X9249705Y-9794536D01*
X9249705Y-9794536D02*
X9249705Y-9813584D01*
X9249705Y-9689774D02*
X9259229Y-9699298D01*
X9259229Y-9699298D02*
X9249705Y-9708822D01*
X9249705Y-9708822D02*
X9240182Y-9699298D01*
X9240182Y-9699298D02*
X9249705Y-9689774D01*
X9249705Y-9689774D02*
X9249705Y-9708822D01*
D12*
X7587500Y-10127100D02*
X7617500Y-10157100D01*
X7617500Y-10127100D02*
X7587500Y-10157100D01*
D11*
X7916372Y-10033584D02*
X7935420Y-10033584D01*
X7935420Y-10033584D02*
X7954467Y-10043108D01*
X7954467Y-10043108D02*
X7963991Y-10052631D01*
X7963991Y-10052631D02*
X7973515Y-10071679D01*
X7973515Y-10071679D02*
X7983039Y-10109774D01*
X7983039Y-10109774D02*
X7983039Y-10157393D01*
X7983039Y-10157393D02*
X7973515Y-10195489D01*
X7973515Y-10195489D02*
X7963991Y-10214536D01*
X7963991Y-10214536D02*
X7954467Y-10224060D01*
X7954467Y-10224060D02*
X7935420Y-10233584D01*
X7935420Y-10233584D02*
X7916372Y-10233584D01*
X7916372Y-10233584D02*
X7897324Y-10224060D01*
X7897324Y-10224060D02*
X7887801Y-10214536D01*
X7887801Y-10214536D02*
X7878277Y-10195489D01*
X7878277Y-10195489D02*
X7868753Y-10157393D01*
X7868753Y-10157393D02*
X7868753Y-10109774D01*
X7868753Y-10109774D02*
X7878277Y-10071679D01*
X7878277Y-10071679D02*
X7887801Y-10052631D01*
X7887801Y-10052631D02*
X7897324Y-10043108D01*
X7897324Y-10043108D02*
X7916372Y-10033584D01*
X8068753Y-10214536D02*
X8078277Y-10224060D01*
X8078277Y-10224060D02*
X8068753Y-10233584D01*
X8068753Y-10233584D02*
X8059229Y-10224060D01*
X8059229Y-10224060D02*
X8068753Y-10214536D01*
X8068753Y-10214536D02*
X8068753Y-10233584D01*
X8144943Y-10033584D02*
X8268753Y-10033584D01*
X8268753Y-10033584D02*
X8202086Y-10109774D01*
X8202086Y-10109774D02*
X8230658Y-10109774D01*
X8230658Y-10109774D02*
X8249705Y-10119298D01*
X8249705Y-10119298D02*
X8259229Y-10128822D01*
X8259229Y-10128822D02*
X8268753Y-10147870D01*
X8268753Y-10147870D02*
X8268753Y-10195489D01*
X8268753Y-10195489D02*
X8259229Y-10214536D01*
X8259229Y-10214536D02*
X8249705Y-10224060D01*
X8249705Y-10224060D02*
X8230658Y-10233584D01*
X8230658Y-10233584D02*
X8173515Y-10233584D01*
X8173515Y-10233584D02*
X8154467Y-10224060D01*
X8154467Y-10224060D02*
X8144943Y-10214536D01*
X8392563Y-10033584D02*
X8411610Y-10033584D01*
X8411610Y-10033584D02*
X8430658Y-10043108D01*
X8430658Y-10043108D02*
X8440182Y-10052631D01*
X8440182Y-10052631D02*
X8449705Y-10071679D01*
X8449705Y-10071679D02*
X8459229Y-10109774D01*
X8459229Y-10109774D02*
X8459229Y-10157393D01*
X8459229Y-10157393D02*
X8449705Y-10195489D01*
X8449705Y-10195489D02*
X8440182Y-10214536D01*
X8440182Y-10214536D02*
X8430658Y-10224060D01*
X8430658Y-10224060D02*
X8411610Y-10233584D01*
X8411610Y-10233584D02*
X8392563Y-10233584D01*
X8392563Y-10233584D02*
X8373515Y-10224060D01*
X8373515Y-10224060D02*
X8363991Y-10214536D01*
X8363991Y-10214536D02*
X8354467Y-10195489D01*
X8354467Y-10195489D02*
X8344943Y-10157393D01*
X8344943Y-10157393D02*
X8344943Y-10109774D01*
X8344943Y-10109774D02*
X8354467Y-10071679D01*
X8354467Y-10071679D02*
X8363991Y-10052631D01*
X8363991Y-10052631D02*
X8373515Y-10043108D01*
X8373515Y-10043108D02*
X8392563Y-10033584D01*
X8583039Y-10033584D02*
X8602086Y-10033584D01*
X8602086Y-10033584D02*
X8621134Y-10043108D01*
X8621134Y-10043108D02*
X8630658Y-10052631D01*
X8630658Y-10052631D02*
X8640182Y-10071679D01*
X8640182Y-10071679D02*
X8649705Y-10109774D01*
X8649705Y-10109774D02*
X8649705Y-10157393D01*
X8649705Y-10157393D02*
X8640182Y-10195489D01*
X8640182Y-10195489D02*
X8630658Y-10214536D01*
X8630658Y-10214536D02*
X8621134Y-10224060D01*
X8621134Y-10224060D02*
X8602086Y-10233584D01*
X8602086Y-10233584D02*
X8583039Y-10233584D01*
X8583039Y-10233584D02*
X8563991Y-10224060D01*
X8563991Y-10224060D02*
X8554467Y-10214536D01*
X8554467Y-10214536D02*
X8544944Y-10195489D01*
X8544944Y-10195489D02*
X8535420Y-10157393D01*
X8535420Y-10157393D02*
X8535420Y-10109774D01*
X8535420Y-10109774D02*
X8544944Y-10071679D01*
X8544944Y-10071679D02*
X8554467Y-10052631D01*
X8554467Y-10052631D02*
X8563991Y-10043108D01*
X8563991Y-10043108D02*
X8583039Y-10033584D01*
X8735420Y-10233584D02*
X8735420Y-10100250D01*
X8735420Y-10119298D02*
X8744944Y-10109774D01*
X8744944Y-10109774D02*
X8763991Y-10100250D01*
X8763991Y-10100250D02*
X8792563Y-10100250D01*
X8792563Y-10100250D02*
X8811610Y-10109774D01*
X8811610Y-10109774D02*
X8821134Y-10128822D01*
X8821134Y-10128822D02*
X8821134Y-10233584D01*
X8821134Y-10128822D02*
X8830658Y-10109774D01*
X8830658Y-10109774D02*
X8849705Y-10100250D01*
X8849705Y-10100250D02*
X8878277Y-10100250D01*
X8878277Y-10100250D02*
X8897325Y-10109774D01*
X8897325Y-10109774D02*
X8906848Y-10128822D01*
X8906848Y-10128822D02*
X8906848Y-10233584D01*
X9002086Y-10233584D02*
X9002086Y-10100250D01*
X9002086Y-10119298D02*
X9011610Y-10109774D01*
X9011610Y-10109774D02*
X9030658Y-10100250D01*
X9030658Y-10100250D02*
X9059229Y-10100250D01*
X9059229Y-10100250D02*
X9078277Y-10109774D01*
X9078277Y-10109774D02*
X9087801Y-10128822D01*
X9087801Y-10128822D02*
X9087801Y-10233584D01*
X9087801Y-10128822D02*
X9097325Y-10109774D01*
X9097325Y-10109774D02*
X9116372Y-10100250D01*
X9116372Y-10100250D02*
X9144944Y-10100250D01*
X9144944Y-10100250D02*
X9163991Y-10109774D01*
X9163991Y-10109774D02*
X9173515Y-10128822D01*
X9173515Y-10128822D02*
X9173515Y-10233584D01*
X9563991Y-10024060D02*
X9392563Y-10281203D01*
X9821134Y-10033584D02*
X9840182Y-10033584D01*
X9840182Y-10033584D02*
X9859229Y-10043108D01*
X9859229Y-10043108D02*
X9868753Y-10052631D01*
X9868753Y-10052631D02*
X9878277Y-10071679D01*
X9878277Y-10071679D02*
X9887801Y-10109774D01*
X9887801Y-10109774D02*
X9887801Y-10157393D01*
X9887801Y-10157393D02*
X9878277Y-10195489D01*
X9878277Y-10195489D02*
X9868753Y-10214536D01*
X9868753Y-10214536D02*
X9859229Y-10224060D01*
X9859229Y-10224060D02*
X9840182Y-10233584D01*
X9840182Y-10233584D02*
X9821134Y-10233584D01*
X9821134Y-10233584D02*
X9802087Y-10224060D01*
X9802087Y-10224060D02*
X9792563Y-10214536D01*
X9792563Y-10214536D02*
X9783039Y-10195489D01*
X9783039Y-10195489D02*
X9773515Y-10157393D01*
X9773515Y-10157393D02*
X9773515Y-10109774D01*
X9773515Y-10109774D02*
X9783039Y-10071679D01*
X9783039Y-10071679D02*
X9792563Y-10052631D01*
X9792563Y-10052631D02*
X9802087Y-10043108D01*
X9802087Y-10043108D02*
X9821134Y-10033584D01*
X9973515Y-10214536D02*
X9983039Y-10224060D01*
X9983039Y-10224060D02*
X9973515Y-10233584D01*
X9973515Y-10233584D02*
X9963991Y-10224060D01*
X9963991Y-10224060D02*
X9973515Y-10214536D01*
X9973515Y-10214536D02*
X9973515Y-10233584D01*
X10106848Y-10033584D02*
X10125896Y-10033584D01*
X10125896Y-10033584D02*
X10144944Y-10043108D01*
X10144944Y-10043108D02*
X10154468Y-10052631D01*
X10154468Y-10052631D02*
X10163991Y-10071679D01*
X10163991Y-10071679D02*
X10173515Y-10109774D01*
X10173515Y-10109774D02*
X10173515Y-10157393D01*
X10173515Y-10157393D02*
X10163991Y-10195489D01*
X10163991Y-10195489D02*
X10154468Y-10214536D01*
X10154468Y-10214536D02*
X10144944Y-10224060D01*
X10144944Y-10224060D02*
X10125896Y-10233584D01*
X10125896Y-10233584D02*
X10106848Y-10233584D01*
X10106848Y-10233584D02*
X10087801Y-10224060D01*
X10087801Y-10224060D02*
X10078277Y-10214536D01*
X10078277Y-10214536D02*
X10068753Y-10195489D01*
X10068753Y-10195489D02*
X10059229Y-10157393D01*
X10059229Y-10157393D02*
X10059229Y-10109774D01*
X10059229Y-10109774D02*
X10068753Y-10071679D01*
X10068753Y-10071679D02*
X10078277Y-10052631D01*
X10078277Y-10052631D02*
X10087801Y-10043108D01*
X10087801Y-10043108D02*
X10106848Y-10033584D01*
X10363991Y-10233584D02*
X10249706Y-10233584D01*
X10306848Y-10233584D02*
X10306848Y-10033584D01*
X10306848Y-10033584D02*
X10287801Y-10062155D01*
X10287801Y-10062155D02*
X10268753Y-10081203D01*
X10268753Y-10081203D02*
X10249706Y-10090727D01*
X10554468Y-10233584D02*
X10440182Y-10233584D01*
X10497325Y-10233584D02*
X10497325Y-10033584D01*
X10497325Y-10033584D02*
X10478277Y-10062155D01*
X10478277Y-10062155D02*
X10459229Y-10081203D01*
X10459229Y-10081203D02*
X10440182Y-10090727D01*
X10668753Y-10119298D02*
X10649706Y-10109774D01*
X10649706Y-10109774D02*
X10640182Y-10100250D01*
X10640182Y-10100250D02*
X10630658Y-10081203D01*
X10630658Y-10081203D02*
X10630658Y-10071679D01*
X10630658Y-10071679D02*
X10640182Y-10052631D01*
X10640182Y-10052631D02*
X10649706Y-10043108D01*
X10649706Y-10043108D02*
X10668753Y-10033584D01*
X10668753Y-10033584D02*
X10706849Y-10033584D01*
X10706849Y-10033584D02*
X10725896Y-10043108D01*
X10725896Y-10043108D02*
X10735420Y-10052631D01*
X10735420Y-10052631D02*
X10744944Y-10071679D01*
X10744944Y-10071679D02*
X10744944Y-10081203D01*
X10744944Y-10081203D02*
X10735420Y-10100250D01*
X10735420Y-10100250D02*
X10725896Y-10109774D01*
X10725896Y-10109774D02*
X10706849Y-10119298D01*
X10706849Y-10119298D02*
X10668753Y-10119298D01*
X10668753Y-10119298D02*
X10649706Y-10128822D01*
X10649706Y-10128822D02*
X10640182Y-10138346D01*
X10640182Y-10138346D02*
X10630658Y-10157393D01*
X10630658Y-10157393D02*
X10630658Y-10195489D01*
X10630658Y-10195489D02*
X10640182Y-10214536D01*
X10640182Y-10214536D02*
X10649706Y-10224060D01*
X10649706Y-10224060D02*
X10668753Y-10233584D01*
X10668753Y-10233584D02*
X10706849Y-10233584D01*
X10706849Y-10233584D02*
X10725896Y-10224060D01*
X10725896Y-10224060D02*
X10735420Y-10214536D01*
X10735420Y-10214536D02*
X10744944Y-10195489D01*
X10744944Y-10195489D02*
X10744944Y-10157393D01*
X10744944Y-10157393D02*
X10735420Y-10138346D01*
X10735420Y-10138346D02*
X10725896Y-10128822D01*
X10725896Y-10128822D02*
X10706849Y-10119298D01*
X10821134Y-10033584D02*
X10821134Y-10071679D01*
X10897325Y-10033584D02*
X10897325Y-10071679D01*
X11192563Y-10309774D02*
X11183039Y-10300250D01*
X11183039Y-10300250D02*
X11163991Y-10271679D01*
X11163991Y-10271679D02*
X11154468Y-10252631D01*
X11154468Y-10252631D02*
X11144944Y-10224060D01*
X11144944Y-10224060D02*
X11135420Y-10176441D01*
X11135420Y-10176441D02*
X11135420Y-10138346D01*
X11135420Y-10138346D02*
X11144944Y-10090727D01*
X11144944Y-10090727D02*
X11154468Y-10062155D01*
X11154468Y-10062155D02*
X11163991Y-10043108D01*
X11163991Y-10043108D02*
X11183039Y-10014536D01*
X11183039Y-10014536D02*
X11192563Y-10005012D01*
X11259229Y-10052631D02*
X11268753Y-10043108D01*
X11268753Y-10043108D02*
X11287801Y-10033584D01*
X11287801Y-10033584D02*
X11335420Y-10033584D01*
X11335420Y-10033584D02*
X11354468Y-10043108D01*
X11354468Y-10043108D02*
X11363991Y-10052631D01*
X11363991Y-10052631D02*
X11373515Y-10071679D01*
X11373515Y-10071679D02*
X11373515Y-10090727D01*
X11373515Y-10090727D02*
X11363991Y-10119298D01*
X11363991Y-10119298D02*
X11249706Y-10233584D01*
X11249706Y-10233584D02*
X11373515Y-10233584D01*
X11611610Y-10233584D02*
X11611610Y-10033584D01*
X11697325Y-10233584D02*
X11697325Y-10128822D01*
X11697325Y-10128822D02*
X11687801Y-10109774D01*
X11687801Y-10109774D02*
X11668753Y-10100250D01*
X11668753Y-10100250D02*
X11640182Y-10100250D01*
X11640182Y-10100250D02*
X11621134Y-10109774D01*
X11621134Y-10109774D02*
X11611610Y-10119298D01*
X11821134Y-10233584D02*
X11802087Y-10224060D01*
X11802087Y-10224060D02*
X11792563Y-10214536D01*
X11792563Y-10214536D02*
X11783039Y-10195489D01*
X11783039Y-10195489D02*
X11783039Y-10138346D01*
X11783039Y-10138346D02*
X11792563Y-10119298D01*
X11792563Y-10119298D02*
X11802087Y-10109774D01*
X11802087Y-10109774D02*
X11821134Y-10100250D01*
X11821134Y-10100250D02*
X11849706Y-10100250D01*
X11849706Y-10100250D02*
X11868753Y-10109774D01*
X11868753Y-10109774D02*
X11878277Y-10119298D01*
X11878277Y-10119298D02*
X11887801Y-10138346D01*
X11887801Y-10138346D02*
X11887801Y-10195489D01*
X11887801Y-10195489D02*
X11878277Y-10214536D01*
X11878277Y-10214536D02*
X11868753Y-10224060D01*
X11868753Y-10224060D02*
X11849706Y-10233584D01*
X11849706Y-10233584D02*
X11821134Y-10233584D01*
X12002087Y-10233584D02*
X11983039Y-10224060D01*
X11983039Y-10224060D02*
X11973515Y-10205012D01*
X11973515Y-10205012D02*
X11973515Y-10033584D01*
X12154468Y-10224060D02*
X12135420Y-10233584D01*
X12135420Y-10233584D02*
X12097325Y-10233584D01*
X12097325Y-10233584D02*
X12078277Y-10224060D01*
X12078277Y-10224060D02*
X12068753Y-10205012D01*
X12068753Y-10205012D02*
X12068753Y-10128822D01*
X12068753Y-10128822D02*
X12078277Y-10109774D01*
X12078277Y-10109774D02*
X12097325Y-10100250D01*
X12097325Y-10100250D02*
X12135420Y-10100250D01*
X12135420Y-10100250D02*
X12154468Y-10109774D01*
X12154468Y-10109774D02*
X12163991Y-10128822D01*
X12163991Y-10128822D02*
X12163991Y-10147870D01*
X12163991Y-10147870D02*
X12068753Y-10166917D01*
X12240182Y-10224060D02*
X12259230Y-10233584D01*
X12259230Y-10233584D02*
X12297325Y-10233584D01*
X12297325Y-10233584D02*
X12316372Y-10224060D01*
X12316372Y-10224060D02*
X12325896Y-10205012D01*
X12325896Y-10205012D02*
X12325896Y-10195489D01*
X12325896Y-10195489D02*
X12316372Y-10176441D01*
X12316372Y-10176441D02*
X12297325Y-10166917D01*
X12297325Y-10166917D02*
X12268753Y-10166917D01*
X12268753Y-10166917D02*
X12249706Y-10157393D01*
X12249706Y-10157393D02*
X12240182Y-10138346D01*
X12240182Y-10138346D02*
X12240182Y-10128822D01*
X12240182Y-10128822D02*
X12249706Y-10109774D01*
X12249706Y-10109774D02*
X12268753Y-10100250D01*
X12268753Y-10100250D02*
X12297325Y-10100250D01*
X12297325Y-10100250D02*
X12316372Y-10109774D01*
X12392563Y-10309774D02*
X12402087Y-10300250D01*
X12402087Y-10300250D02*
X12421134Y-10271679D01*
X12421134Y-10271679D02*
X12430658Y-10252631D01*
X12430658Y-10252631D02*
X12440182Y-10224060D01*
X12440182Y-10224060D02*
X12449706Y-10176441D01*
X12449706Y-10176441D02*
X12449706Y-10138346D01*
X12449706Y-10138346D02*
X12440182Y-10090727D01*
X12440182Y-10090727D02*
X12430658Y-10062155D01*
X12430658Y-10062155D02*
X12421134Y-10043108D01*
X12421134Y-10043108D02*
X12402087Y-10014536D01*
X12402087Y-10014536D02*
X12392563Y-10005012D01*
D12*
X7617500Y-10406100D02*
G75*
G02*
X7537500Y-10406100I-40000J0D01*
G01*
X7537500Y-10406100D02*
G75*
G02*
X7617500Y-10406100I40000J0D01*
G01*
D11*
X7916372Y-10297584D02*
X7935420Y-10297584D01*
X7935420Y-10297584D02*
X7954467Y-10307108D01*
X7954467Y-10307108D02*
X7963991Y-10316631D01*
X7963991Y-10316631D02*
X7973515Y-10335679D01*
X7973515Y-10335679D02*
X7983039Y-10373774D01*
X7983039Y-10373774D02*
X7983039Y-10421393D01*
X7983039Y-10421393D02*
X7973515Y-10459489D01*
X7973515Y-10459489D02*
X7963991Y-10478536D01*
X7963991Y-10478536D02*
X7954467Y-10488060D01*
X7954467Y-10488060D02*
X7935420Y-10497584D01*
X7935420Y-10497584D02*
X7916372Y-10497584D01*
X7916372Y-10497584D02*
X7897324Y-10488060D01*
X7897324Y-10488060D02*
X7887801Y-10478536D01*
X7887801Y-10478536D02*
X7878277Y-10459489D01*
X7878277Y-10459489D02*
X7868753Y-10421393D01*
X7868753Y-10421393D02*
X7868753Y-10373774D01*
X7868753Y-10373774D02*
X7878277Y-10335679D01*
X7878277Y-10335679D02*
X7887801Y-10316631D01*
X7887801Y-10316631D02*
X7897324Y-10307108D01*
X7897324Y-10307108D02*
X7916372Y-10297584D01*
X8068753Y-10478536D02*
X8078277Y-10488060D01*
X8078277Y-10488060D02*
X8068753Y-10497584D01*
X8068753Y-10497584D02*
X8059229Y-10488060D01*
X8059229Y-10488060D02*
X8068753Y-10478536D01*
X8068753Y-10478536D02*
X8068753Y-10497584D01*
X8192562Y-10383298D02*
X8173515Y-10373774D01*
X8173515Y-10373774D02*
X8163991Y-10364250D01*
X8163991Y-10364250D02*
X8154467Y-10345203D01*
X8154467Y-10345203D02*
X8154467Y-10335679D01*
X8154467Y-10335679D02*
X8163991Y-10316631D01*
X8163991Y-10316631D02*
X8173515Y-10307108D01*
X8173515Y-10307108D02*
X8192562Y-10297584D01*
X8192562Y-10297584D02*
X8230658Y-10297584D01*
X8230658Y-10297584D02*
X8249705Y-10307108D01*
X8249705Y-10307108D02*
X8259229Y-10316631D01*
X8259229Y-10316631D02*
X8268753Y-10335679D01*
X8268753Y-10335679D02*
X8268753Y-10345203D01*
X8268753Y-10345203D02*
X8259229Y-10364250D01*
X8259229Y-10364250D02*
X8249705Y-10373774D01*
X8249705Y-10373774D02*
X8230658Y-10383298D01*
X8230658Y-10383298D02*
X8192562Y-10383298D01*
X8192562Y-10383298D02*
X8173515Y-10392822D01*
X8173515Y-10392822D02*
X8163991Y-10402346D01*
X8163991Y-10402346D02*
X8154467Y-10421393D01*
X8154467Y-10421393D02*
X8154467Y-10459489D01*
X8154467Y-10459489D02*
X8163991Y-10478536D01*
X8163991Y-10478536D02*
X8173515Y-10488060D01*
X8173515Y-10488060D02*
X8192562Y-10497584D01*
X8192562Y-10497584D02*
X8230658Y-10497584D01*
X8230658Y-10497584D02*
X8249705Y-10488060D01*
X8249705Y-10488060D02*
X8259229Y-10478536D01*
X8259229Y-10478536D02*
X8268753Y-10459489D01*
X8268753Y-10459489D02*
X8268753Y-10421393D01*
X8268753Y-10421393D02*
X8259229Y-10402346D01*
X8259229Y-10402346D02*
X8249705Y-10392822D01*
X8249705Y-10392822D02*
X8230658Y-10383298D01*
X8392563Y-10297584D02*
X8411610Y-10297584D01*
X8411610Y-10297584D02*
X8430658Y-10307108D01*
X8430658Y-10307108D02*
X8440182Y-10316631D01*
X8440182Y-10316631D02*
X8449705Y-10335679D01*
X8449705Y-10335679D02*
X8459229Y-10373774D01*
X8459229Y-10373774D02*
X8459229Y-10421393D01*
X8459229Y-10421393D02*
X8449705Y-10459489D01*
X8449705Y-10459489D02*
X8440182Y-10478536D01*
X8440182Y-10478536D02*
X8430658Y-10488060D01*
X8430658Y-10488060D02*
X8411610Y-10497584D01*
X8411610Y-10497584D02*
X8392563Y-10497584D01*
X8392563Y-10497584D02*
X8373515Y-10488060D01*
X8373515Y-10488060D02*
X8363991Y-10478536D01*
X8363991Y-10478536D02*
X8354467Y-10459489D01*
X8354467Y-10459489D02*
X8344943Y-10421393D01*
X8344943Y-10421393D02*
X8344943Y-10373774D01*
X8344943Y-10373774D02*
X8354467Y-10335679D01*
X8354467Y-10335679D02*
X8363991Y-10316631D01*
X8363991Y-10316631D02*
X8373515Y-10307108D01*
X8373515Y-10307108D02*
X8392563Y-10297584D01*
X8583039Y-10297584D02*
X8602086Y-10297584D01*
X8602086Y-10297584D02*
X8621134Y-10307108D01*
X8621134Y-10307108D02*
X8630658Y-10316631D01*
X8630658Y-10316631D02*
X8640182Y-10335679D01*
X8640182Y-10335679D02*
X8649705Y-10373774D01*
X8649705Y-10373774D02*
X8649705Y-10421393D01*
X8649705Y-10421393D02*
X8640182Y-10459489D01*
X8640182Y-10459489D02*
X8630658Y-10478536D01*
X8630658Y-10478536D02*
X8621134Y-10488060D01*
X8621134Y-10488060D02*
X8602086Y-10497584D01*
X8602086Y-10497584D02*
X8583039Y-10497584D01*
X8583039Y-10497584D02*
X8563991Y-10488060D01*
X8563991Y-10488060D02*
X8554467Y-10478536D01*
X8554467Y-10478536D02*
X8544944Y-10459489D01*
X8544944Y-10459489D02*
X8535420Y-10421393D01*
X8535420Y-10421393D02*
X8535420Y-10373774D01*
X8535420Y-10373774D02*
X8544944Y-10335679D01*
X8544944Y-10335679D02*
X8554467Y-10316631D01*
X8554467Y-10316631D02*
X8563991Y-10307108D01*
X8563991Y-10307108D02*
X8583039Y-10297584D01*
X8735420Y-10497584D02*
X8735420Y-10364250D01*
X8735420Y-10383298D02*
X8744944Y-10373774D01*
X8744944Y-10373774D02*
X8763991Y-10364250D01*
X8763991Y-10364250D02*
X8792563Y-10364250D01*
X8792563Y-10364250D02*
X8811610Y-10373774D01*
X8811610Y-10373774D02*
X8821134Y-10392822D01*
X8821134Y-10392822D02*
X8821134Y-10497584D01*
X8821134Y-10392822D02*
X8830658Y-10373774D01*
X8830658Y-10373774D02*
X8849705Y-10364250D01*
X8849705Y-10364250D02*
X8878277Y-10364250D01*
X8878277Y-10364250D02*
X8897325Y-10373774D01*
X8897325Y-10373774D02*
X8906848Y-10392822D01*
X8906848Y-10392822D02*
X8906848Y-10497584D01*
X9002086Y-10497584D02*
X9002086Y-10364250D01*
X9002086Y-10383298D02*
X9011610Y-10373774D01*
X9011610Y-10373774D02*
X9030658Y-10364250D01*
X9030658Y-10364250D02*
X9059229Y-10364250D01*
X9059229Y-10364250D02*
X9078277Y-10373774D01*
X9078277Y-10373774D02*
X9087801Y-10392822D01*
X9087801Y-10392822D02*
X9087801Y-10497584D01*
X9087801Y-10392822D02*
X9097325Y-10373774D01*
X9097325Y-10373774D02*
X9116372Y-10364250D01*
X9116372Y-10364250D02*
X9144944Y-10364250D01*
X9144944Y-10364250D02*
X9163991Y-10373774D01*
X9163991Y-10373774D02*
X9173515Y-10392822D01*
X9173515Y-10392822D02*
X9173515Y-10497584D01*
X9563991Y-10288060D02*
X9392563Y-10545203D01*
X9821134Y-10297584D02*
X9840182Y-10297584D01*
X9840182Y-10297584D02*
X9859229Y-10307108D01*
X9859229Y-10307108D02*
X9868753Y-10316631D01*
X9868753Y-10316631D02*
X9878277Y-10335679D01*
X9878277Y-10335679D02*
X9887801Y-10373774D01*
X9887801Y-10373774D02*
X9887801Y-10421393D01*
X9887801Y-10421393D02*
X9878277Y-10459489D01*
X9878277Y-10459489D02*
X9868753Y-10478536D01*
X9868753Y-10478536D02*
X9859229Y-10488060D01*
X9859229Y-10488060D02*
X9840182Y-10497584D01*
X9840182Y-10497584D02*
X9821134Y-10497584D01*
X9821134Y-10497584D02*
X9802087Y-10488060D01*
X9802087Y-10488060D02*
X9792563Y-10478536D01*
X9792563Y-10478536D02*
X9783039Y-10459489D01*
X9783039Y-10459489D02*
X9773515Y-10421393D01*
X9773515Y-10421393D02*
X9773515Y-10373774D01*
X9773515Y-10373774D02*
X9783039Y-10335679D01*
X9783039Y-10335679D02*
X9792563Y-10316631D01*
X9792563Y-10316631D02*
X9802087Y-10307108D01*
X9802087Y-10307108D02*
X9821134Y-10297584D01*
X9973515Y-10478536D02*
X9983039Y-10488060D01*
X9983039Y-10488060D02*
X9973515Y-10497584D01*
X9973515Y-10497584D02*
X9963991Y-10488060D01*
X9963991Y-10488060D02*
X9973515Y-10478536D01*
X9973515Y-10478536D02*
X9973515Y-10497584D01*
X10106848Y-10297584D02*
X10125896Y-10297584D01*
X10125896Y-10297584D02*
X10144944Y-10307108D01*
X10144944Y-10307108D02*
X10154468Y-10316631D01*
X10154468Y-10316631D02*
X10163991Y-10335679D01*
X10163991Y-10335679D02*
X10173515Y-10373774D01*
X10173515Y-10373774D02*
X10173515Y-10421393D01*
X10173515Y-10421393D02*
X10163991Y-10459489D01*
X10163991Y-10459489D02*
X10154468Y-10478536D01*
X10154468Y-10478536D02*
X10144944Y-10488060D01*
X10144944Y-10488060D02*
X10125896Y-10497584D01*
X10125896Y-10497584D02*
X10106848Y-10497584D01*
X10106848Y-10497584D02*
X10087801Y-10488060D01*
X10087801Y-10488060D02*
X10078277Y-10478536D01*
X10078277Y-10478536D02*
X10068753Y-10459489D01*
X10068753Y-10459489D02*
X10059229Y-10421393D01*
X10059229Y-10421393D02*
X10059229Y-10373774D01*
X10059229Y-10373774D02*
X10068753Y-10335679D01*
X10068753Y-10335679D02*
X10078277Y-10316631D01*
X10078277Y-10316631D02*
X10087801Y-10307108D01*
X10087801Y-10307108D02*
X10106848Y-10297584D01*
X10240182Y-10297584D02*
X10363991Y-10297584D01*
X10363991Y-10297584D02*
X10297325Y-10373774D01*
X10297325Y-10373774D02*
X10325896Y-10373774D01*
X10325896Y-10373774D02*
X10344944Y-10383298D01*
X10344944Y-10383298D02*
X10354468Y-10392822D01*
X10354468Y-10392822D02*
X10363991Y-10411870D01*
X10363991Y-10411870D02*
X10363991Y-10459489D01*
X10363991Y-10459489D02*
X10354468Y-10478536D01*
X10354468Y-10478536D02*
X10344944Y-10488060D01*
X10344944Y-10488060D02*
X10325896Y-10497584D01*
X10325896Y-10497584D02*
X10268753Y-10497584D01*
X10268753Y-10497584D02*
X10249706Y-10488060D01*
X10249706Y-10488060D02*
X10240182Y-10478536D01*
X10554468Y-10497584D02*
X10440182Y-10497584D01*
X10497325Y-10497584D02*
X10497325Y-10297584D01*
X10497325Y-10297584D02*
X10478277Y-10326155D01*
X10478277Y-10326155D02*
X10459229Y-10345203D01*
X10459229Y-10345203D02*
X10440182Y-10354727D01*
X10735420Y-10297584D02*
X10640182Y-10297584D01*
X10640182Y-10297584D02*
X10630658Y-10392822D01*
X10630658Y-10392822D02*
X10640182Y-10383298D01*
X10640182Y-10383298D02*
X10659229Y-10373774D01*
X10659229Y-10373774D02*
X10706849Y-10373774D01*
X10706849Y-10373774D02*
X10725896Y-10383298D01*
X10725896Y-10383298D02*
X10735420Y-10392822D01*
X10735420Y-10392822D02*
X10744944Y-10411870D01*
X10744944Y-10411870D02*
X10744944Y-10459489D01*
X10744944Y-10459489D02*
X10735420Y-10478536D01*
X10735420Y-10478536D02*
X10725896Y-10488060D01*
X10725896Y-10488060D02*
X10706849Y-10497584D01*
X10706849Y-10497584D02*
X10659229Y-10497584D01*
X10659229Y-10497584D02*
X10640182Y-10488060D01*
X10640182Y-10488060D02*
X10630658Y-10478536D01*
X10821134Y-10297584D02*
X10821134Y-10335679D01*
X10897325Y-10297584D02*
X10897325Y-10335679D01*
X11192563Y-10573774D02*
X11183039Y-10564250D01*
X11183039Y-10564250D02*
X11163991Y-10535679D01*
X11163991Y-10535679D02*
X11154468Y-10516631D01*
X11154468Y-10516631D02*
X11144944Y-10488060D01*
X11144944Y-10488060D02*
X11135420Y-10440441D01*
X11135420Y-10440441D02*
X11135420Y-10402346D01*
X11135420Y-10402346D02*
X11144944Y-10354727D01*
X11144944Y-10354727D02*
X11154468Y-10326155D01*
X11154468Y-10326155D02*
X11163991Y-10307108D01*
X11163991Y-10307108D02*
X11183039Y-10278536D01*
X11183039Y-10278536D02*
X11192563Y-10269012D01*
X11373515Y-10497584D02*
X11259229Y-10497584D01*
X11316372Y-10497584D02*
X11316372Y-10297584D01*
X11316372Y-10297584D02*
X11297325Y-10326155D01*
X11297325Y-10326155D02*
X11278277Y-10345203D01*
X11278277Y-10345203D02*
X11259229Y-10354727D01*
X11554468Y-10297584D02*
X11459229Y-10297584D01*
X11459229Y-10297584D02*
X11449706Y-10392822D01*
X11449706Y-10392822D02*
X11459229Y-10383298D01*
X11459229Y-10383298D02*
X11478277Y-10373774D01*
X11478277Y-10373774D02*
X11525896Y-10373774D01*
X11525896Y-10373774D02*
X11544944Y-10383298D01*
X11544944Y-10383298D02*
X11554468Y-10392822D01*
X11554468Y-10392822D02*
X11563991Y-10411870D01*
X11563991Y-10411870D02*
X11563991Y-10459489D01*
X11563991Y-10459489D02*
X11554468Y-10478536D01*
X11554468Y-10478536D02*
X11544944Y-10488060D01*
X11544944Y-10488060D02*
X11525896Y-10497584D01*
X11525896Y-10497584D02*
X11478277Y-10497584D01*
X11478277Y-10497584D02*
X11459229Y-10488060D01*
X11459229Y-10488060D02*
X11449706Y-10478536D01*
X11802087Y-10497584D02*
X11802087Y-10297584D01*
X11887801Y-10497584D02*
X11887801Y-10392822D01*
X11887801Y-10392822D02*
X11878277Y-10373774D01*
X11878277Y-10373774D02*
X11859230Y-10364250D01*
X11859230Y-10364250D02*
X11830658Y-10364250D01*
X11830658Y-10364250D02*
X11811610Y-10373774D01*
X11811610Y-10373774D02*
X11802087Y-10383298D01*
X12011610Y-10497584D02*
X11992563Y-10488060D01*
X11992563Y-10488060D02*
X11983039Y-10478536D01*
X11983039Y-10478536D02*
X11973515Y-10459489D01*
X11973515Y-10459489D02*
X11973515Y-10402346D01*
X11973515Y-10402346D02*
X11983039Y-10383298D01*
X11983039Y-10383298D02*
X11992563Y-10373774D01*
X11992563Y-10373774D02*
X12011610Y-10364250D01*
X12011610Y-10364250D02*
X12040182Y-10364250D01*
X12040182Y-10364250D02*
X12059230Y-10373774D01*
X12059230Y-10373774D02*
X12068753Y-10383298D01*
X12068753Y-10383298D02*
X12078277Y-10402346D01*
X12078277Y-10402346D02*
X12078277Y-10459489D01*
X12078277Y-10459489D02*
X12068753Y-10478536D01*
X12068753Y-10478536D02*
X12059230Y-10488060D01*
X12059230Y-10488060D02*
X12040182Y-10497584D01*
X12040182Y-10497584D02*
X12011610Y-10497584D01*
X12192563Y-10497584D02*
X12173515Y-10488060D01*
X12173515Y-10488060D02*
X12163991Y-10469012D01*
X12163991Y-10469012D02*
X12163991Y-10297584D01*
X12344944Y-10488060D02*
X12325896Y-10497584D01*
X12325896Y-10497584D02*
X12287801Y-10497584D01*
X12287801Y-10497584D02*
X12268753Y-10488060D01*
X12268753Y-10488060D02*
X12259230Y-10469012D01*
X12259230Y-10469012D02*
X12259230Y-10392822D01*
X12259230Y-10392822D02*
X12268753Y-10373774D01*
X12268753Y-10373774D02*
X12287801Y-10364250D01*
X12287801Y-10364250D02*
X12325896Y-10364250D01*
X12325896Y-10364250D02*
X12344944Y-10373774D01*
X12344944Y-10373774D02*
X12354468Y-10392822D01*
X12354468Y-10392822D02*
X12354468Y-10411870D01*
X12354468Y-10411870D02*
X12259230Y-10430917D01*
X12430658Y-10488060D02*
X12449706Y-10497584D01*
X12449706Y-10497584D02*
X12487801Y-10497584D01*
X12487801Y-10497584D02*
X12506849Y-10488060D01*
X12506849Y-10488060D02*
X12516372Y-10469012D01*
X12516372Y-10469012D02*
X12516372Y-10459489D01*
X12516372Y-10459489D02*
X12506849Y-10440441D01*
X12506849Y-10440441D02*
X12487801Y-10430917D01*
X12487801Y-10430917D02*
X12459230Y-10430917D01*
X12459230Y-10430917D02*
X12440182Y-10421393D01*
X12440182Y-10421393D02*
X12430658Y-10402346D01*
X12430658Y-10402346D02*
X12430658Y-10392822D01*
X12430658Y-10392822D02*
X12440182Y-10373774D01*
X12440182Y-10373774D02*
X12459230Y-10364250D01*
X12459230Y-10364250D02*
X12487801Y-10364250D01*
X12487801Y-10364250D02*
X12506849Y-10373774D01*
X12583039Y-10573774D02*
X12592563Y-10564250D01*
X12592563Y-10564250D02*
X12611611Y-10535679D01*
X12611611Y-10535679D02*
X12621134Y-10516631D01*
X12621134Y-10516631D02*
X12630658Y-10488060D01*
X12630658Y-10488060D02*
X12640182Y-10440441D01*
X12640182Y-10440441D02*
X12640182Y-10402346D01*
X12640182Y-10402346D02*
X12630658Y-10354727D01*
X12630658Y-10354727D02*
X12621134Y-10326155D01*
X12621134Y-10326155D02*
X12611611Y-10307108D01*
X12611611Y-10307108D02*
X12592563Y-10278536D01*
X12592563Y-10278536D02*
X12583039Y-10269012D01*
D12*
X7567500Y-10620100D02*
X7567500Y-10720100D01*
X7517500Y-10670100D02*
X7617500Y-10670100D01*
D11*
X7983039Y-10761584D02*
X7868753Y-10761584D01*
X7925896Y-10761584D02*
X7925896Y-10561584D01*
X7925896Y-10561584D02*
X7906848Y-10590155D01*
X7906848Y-10590155D02*
X7887801Y-10609203D01*
X7887801Y-10609203D02*
X7868753Y-10618727D01*
X8068753Y-10742536D02*
X8078277Y-10752060D01*
X8078277Y-10752060D02*
X8068753Y-10761584D01*
X8068753Y-10761584D02*
X8059229Y-10752060D01*
X8059229Y-10752060D02*
X8068753Y-10742536D01*
X8068753Y-10742536D02*
X8068753Y-10761584D01*
X8202086Y-10561584D02*
X8221134Y-10561584D01*
X8221134Y-10561584D02*
X8240182Y-10571108D01*
X8240182Y-10571108D02*
X8249705Y-10580631D01*
X8249705Y-10580631D02*
X8259229Y-10599679D01*
X8259229Y-10599679D02*
X8268753Y-10637774D01*
X8268753Y-10637774D02*
X8268753Y-10685393D01*
X8268753Y-10685393D02*
X8259229Y-10723489D01*
X8259229Y-10723489D02*
X8249705Y-10742536D01*
X8249705Y-10742536D02*
X8240182Y-10752060D01*
X8240182Y-10752060D02*
X8221134Y-10761584D01*
X8221134Y-10761584D02*
X8202086Y-10761584D01*
X8202086Y-10761584D02*
X8183039Y-10752060D01*
X8183039Y-10752060D02*
X8173515Y-10742536D01*
X8173515Y-10742536D02*
X8163991Y-10723489D01*
X8163991Y-10723489D02*
X8154467Y-10685393D01*
X8154467Y-10685393D02*
X8154467Y-10637774D01*
X8154467Y-10637774D02*
X8163991Y-10599679D01*
X8163991Y-10599679D02*
X8173515Y-10580631D01*
X8173515Y-10580631D02*
X8183039Y-10571108D01*
X8183039Y-10571108D02*
X8202086Y-10561584D01*
X8392563Y-10561584D02*
X8411610Y-10561584D01*
X8411610Y-10561584D02*
X8430658Y-10571108D01*
X8430658Y-10571108D02*
X8440182Y-10580631D01*
X8440182Y-10580631D02*
X8449705Y-10599679D01*
X8449705Y-10599679D02*
X8459229Y-10637774D01*
X8459229Y-10637774D02*
X8459229Y-10685393D01*
X8459229Y-10685393D02*
X8449705Y-10723489D01*
X8449705Y-10723489D02*
X8440182Y-10742536D01*
X8440182Y-10742536D02*
X8430658Y-10752060D01*
X8430658Y-10752060D02*
X8411610Y-10761584D01*
X8411610Y-10761584D02*
X8392563Y-10761584D01*
X8392563Y-10761584D02*
X8373515Y-10752060D01*
X8373515Y-10752060D02*
X8363991Y-10742536D01*
X8363991Y-10742536D02*
X8354467Y-10723489D01*
X8354467Y-10723489D02*
X8344943Y-10685393D01*
X8344943Y-10685393D02*
X8344943Y-10637774D01*
X8344943Y-10637774D02*
X8354467Y-10599679D01*
X8354467Y-10599679D02*
X8363991Y-10580631D01*
X8363991Y-10580631D02*
X8373515Y-10571108D01*
X8373515Y-10571108D02*
X8392563Y-10561584D01*
X8583039Y-10561584D02*
X8602086Y-10561584D01*
X8602086Y-10561584D02*
X8621134Y-10571108D01*
X8621134Y-10571108D02*
X8630658Y-10580631D01*
X8630658Y-10580631D02*
X8640182Y-10599679D01*
X8640182Y-10599679D02*
X8649705Y-10637774D01*
X8649705Y-10637774D02*
X8649705Y-10685393D01*
X8649705Y-10685393D02*
X8640182Y-10723489D01*
X8640182Y-10723489D02*
X8630658Y-10742536D01*
X8630658Y-10742536D02*
X8621134Y-10752060D01*
X8621134Y-10752060D02*
X8602086Y-10761584D01*
X8602086Y-10761584D02*
X8583039Y-10761584D01*
X8583039Y-10761584D02*
X8563991Y-10752060D01*
X8563991Y-10752060D02*
X8554467Y-10742536D01*
X8554467Y-10742536D02*
X8544944Y-10723489D01*
X8544944Y-10723489D02*
X8535420Y-10685393D01*
X8535420Y-10685393D02*
X8535420Y-10637774D01*
X8535420Y-10637774D02*
X8544944Y-10599679D01*
X8544944Y-10599679D02*
X8554467Y-10580631D01*
X8554467Y-10580631D02*
X8563991Y-10571108D01*
X8563991Y-10571108D02*
X8583039Y-10561584D01*
X8735420Y-10761584D02*
X8735420Y-10628250D01*
X8735420Y-10647298D02*
X8744944Y-10637774D01*
X8744944Y-10637774D02*
X8763991Y-10628250D01*
X8763991Y-10628250D02*
X8792563Y-10628250D01*
X8792563Y-10628250D02*
X8811610Y-10637774D01*
X8811610Y-10637774D02*
X8821134Y-10656822D01*
X8821134Y-10656822D02*
X8821134Y-10761584D01*
X8821134Y-10656822D02*
X8830658Y-10637774D01*
X8830658Y-10637774D02*
X8849705Y-10628250D01*
X8849705Y-10628250D02*
X8878277Y-10628250D01*
X8878277Y-10628250D02*
X8897325Y-10637774D01*
X8897325Y-10637774D02*
X8906848Y-10656822D01*
X8906848Y-10656822D02*
X8906848Y-10761584D01*
X9002086Y-10761584D02*
X9002086Y-10628250D01*
X9002086Y-10647298D02*
X9011610Y-10637774D01*
X9011610Y-10637774D02*
X9030658Y-10628250D01*
X9030658Y-10628250D02*
X9059229Y-10628250D01*
X9059229Y-10628250D02*
X9078277Y-10637774D01*
X9078277Y-10637774D02*
X9087801Y-10656822D01*
X9087801Y-10656822D02*
X9087801Y-10761584D01*
X9087801Y-10656822D02*
X9097325Y-10637774D01*
X9097325Y-10637774D02*
X9116372Y-10628250D01*
X9116372Y-10628250D02*
X9144944Y-10628250D01*
X9144944Y-10628250D02*
X9163991Y-10637774D01*
X9163991Y-10637774D02*
X9173515Y-10656822D01*
X9173515Y-10656822D02*
X9173515Y-10761584D01*
X9563991Y-10552060D02*
X9392563Y-10809203D01*
X9821134Y-10561584D02*
X9840182Y-10561584D01*
X9840182Y-10561584D02*
X9859229Y-10571108D01*
X9859229Y-10571108D02*
X9868753Y-10580631D01*
X9868753Y-10580631D02*
X9878277Y-10599679D01*
X9878277Y-10599679D02*
X9887801Y-10637774D01*
X9887801Y-10637774D02*
X9887801Y-10685393D01*
X9887801Y-10685393D02*
X9878277Y-10723489D01*
X9878277Y-10723489D02*
X9868753Y-10742536D01*
X9868753Y-10742536D02*
X9859229Y-10752060D01*
X9859229Y-10752060D02*
X9840182Y-10761584D01*
X9840182Y-10761584D02*
X9821134Y-10761584D01*
X9821134Y-10761584D02*
X9802087Y-10752060D01*
X9802087Y-10752060D02*
X9792563Y-10742536D01*
X9792563Y-10742536D02*
X9783039Y-10723489D01*
X9783039Y-10723489D02*
X9773515Y-10685393D01*
X9773515Y-10685393D02*
X9773515Y-10637774D01*
X9773515Y-10637774D02*
X9783039Y-10599679D01*
X9783039Y-10599679D02*
X9792563Y-10580631D01*
X9792563Y-10580631D02*
X9802087Y-10571108D01*
X9802087Y-10571108D02*
X9821134Y-10561584D01*
X9973515Y-10742536D02*
X9983039Y-10752060D01*
X9983039Y-10752060D02*
X9973515Y-10761584D01*
X9973515Y-10761584D02*
X9963991Y-10752060D01*
X9963991Y-10752060D02*
X9973515Y-10742536D01*
X9973515Y-10742536D02*
X9973515Y-10761584D01*
X10106848Y-10561584D02*
X10125896Y-10561584D01*
X10125896Y-10561584D02*
X10144944Y-10571108D01*
X10144944Y-10571108D02*
X10154468Y-10580631D01*
X10154468Y-10580631D02*
X10163991Y-10599679D01*
X10163991Y-10599679D02*
X10173515Y-10637774D01*
X10173515Y-10637774D02*
X10173515Y-10685393D01*
X10173515Y-10685393D02*
X10163991Y-10723489D01*
X10163991Y-10723489D02*
X10154468Y-10742536D01*
X10154468Y-10742536D02*
X10144944Y-10752060D01*
X10144944Y-10752060D02*
X10125896Y-10761584D01*
X10125896Y-10761584D02*
X10106848Y-10761584D01*
X10106848Y-10761584D02*
X10087801Y-10752060D01*
X10087801Y-10752060D02*
X10078277Y-10742536D01*
X10078277Y-10742536D02*
X10068753Y-10723489D01*
X10068753Y-10723489D02*
X10059229Y-10685393D01*
X10059229Y-10685393D02*
X10059229Y-10637774D01*
X10059229Y-10637774D02*
X10068753Y-10599679D01*
X10068753Y-10599679D02*
X10078277Y-10580631D01*
X10078277Y-10580631D02*
X10087801Y-10571108D01*
X10087801Y-10571108D02*
X10106848Y-10561584D01*
X10240182Y-10561584D02*
X10363991Y-10561584D01*
X10363991Y-10561584D02*
X10297325Y-10637774D01*
X10297325Y-10637774D02*
X10325896Y-10637774D01*
X10325896Y-10637774D02*
X10344944Y-10647298D01*
X10344944Y-10647298D02*
X10354468Y-10656822D01*
X10354468Y-10656822D02*
X10363991Y-10675870D01*
X10363991Y-10675870D02*
X10363991Y-10723489D01*
X10363991Y-10723489D02*
X10354468Y-10742536D01*
X10354468Y-10742536D02*
X10344944Y-10752060D01*
X10344944Y-10752060D02*
X10325896Y-10761584D01*
X10325896Y-10761584D02*
X10268753Y-10761584D01*
X10268753Y-10761584D02*
X10249706Y-10752060D01*
X10249706Y-10752060D02*
X10240182Y-10742536D01*
X10459229Y-10761584D02*
X10497325Y-10761584D01*
X10497325Y-10761584D02*
X10516372Y-10752060D01*
X10516372Y-10752060D02*
X10525896Y-10742536D01*
X10525896Y-10742536D02*
X10544944Y-10713965D01*
X10544944Y-10713965D02*
X10554468Y-10675870D01*
X10554468Y-10675870D02*
X10554468Y-10599679D01*
X10554468Y-10599679D02*
X10544944Y-10580631D01*
X10544944Y-10580631D02*
X10535420Y-10571108D01*
X10535420Y-10571108D02*
X10516372Y-10561584D01*
X10516372Y-10561584D02*
X10478277Y-10561584D01*
X10478277Y-10561584D02*
X10459229Y-10571108D01*
X10459229Y-10571108D02*
X10449706Y-10580631D01*
X10449706Y-10580631D02*
X10440182Y-10599679D01*
X10440182Y-10599679D02*
X10440182Y-10647298D01*
X10440182Y-10647298D02*
X10449706Y-10666346D01*
X10449706Y-10666346D02*
X10459229Y-10675870D01*
X10459229Y-10675870D02*
X10478277Y-10685393D01*
X10478277Y-10685393D02*
X10516372Y-10685393D01*
X10516372Y-10685393D02*
X10535420Y-10675870D01*
X10535420Y-10675870D02*
X10544944Y-10666346D01*
X10544944Y-10666346D02*
X10554468Y-10647298D01*
X10725896Y-10628250D02*
X10725896Y-10761584D01*
X10678277Y-10552060D02*
X10630658Y-10694917D01*
X10630658Y-10694917D02*
X10754468Y-10694917D01*
X10821134Y-10561584D02*
X10821134Y-10599679D01*
X10897325Y-10561584D02*
X10897325Y-10599679D01*
X11192563Y-10837774D02*
X11183039Y-10828250D01*
X11183039Y-10828250D02*
X11163991Y-10799679D01*
X11163991Y-10799679D02*
X11154468Y-10780631D01*
X11154468Y-10780631D02*
X11144944Y-10752060D01*
X11144944Y-10752060D02*
X11135420Y-10704441D01*
X11135420Y-10704441D02*
X11135420Y-10666346D01*
X11135420Y-10666346D02*
X11144944Y-10618727D01*
X11144944Y-10618727D02*
X11154468Y-10590155D01*
X11154468Y-10590155D02*
X11163991Y-10571108D01*
X11163991Y-10571108D02*
X11183039Y-10542536D01*
X11183039Y-10542536D02*
X11192563Y-10533012D01*
X11259229Y-10580631D02*
X11268753Y-10571108D01*
X11268753Y-10571108D02*
X11287801Y-10561584D01*
X11287801Y-10561584D02*
X11335420Y-10561584D01*
X11335420Y-10561584D02*
X11354468Y-10571108D01*
X11354468Y-10571108D02*
X11363991Y-10580631D01*
X11363991Y-10580631D02*
X11373515Y-10599679D01*
X11373515Y-10599679D02*
X11373515Y-10618727D01*
X11373515Y-10618727D02*
X11363991Y-10647298D01*
X11363991Y-10647298D02*
X11249706Y-10761584D01*
X11249706Y-10761584D02*
X11373515Y-10761584D01*
X11468753Y-10761584D02*
X11506848Y-10761584D01*
X11506848Y-10761584D02*
X11525896Y-10752060D01*
X11525896Y-10752060D02*
X11535420Y-10742536D01*
X11535420Y-10742536D02*
X11554468Y-10713965D01*
X11554468Y-10713965D02*
X11563991Y-10675870D01*
X11563991Y-10675870D02*
X11563991Y-10599679D01*
X11563991Y-10599679D02*
X11554468Y-10580631D01*
X11554468Y-10580631D02*
X11544944Y-10571108D01*
X11544944Y-10571108D02*
X11525896Y-10561584D01*
X11525896Y-10561584D02*
X11487801Y-10561584D01*
X11487801Y-10561584D02*
X11468753Y-10571108D01*
X11468753Y-10571108D02*
X11459229Y-10580631D01*
X11459229Y-10580631D02*
X11449706Y-10599679D01*
X11449706Y-10599679D02*
X11449706Y-10647298D01*
X11449706Y-10647298D02*
X11459229Y-10666346D01*
X11459229Y-10666346D02*
X11468753Y-10675870D01*
X11468753Y-10675870D02*
X11487801Y-10685393D01*
X11487801Y-10685393D02*
X11525896Y-10685393D01*
X11525896Y-10685393D02*
X11544944Y-10675870D01*
X11544944Y-10675870D02*
X11554468Y-10666346D01*
X11554468Y-10666346D02*
X11563991Y-10647298D01*
X11802087Y-10761584D02*
X11802087Y-10561584D01*
X11887801Y-10761584D02*
X11887801Y-10656822D01*
X11887801Y-10656822D02*
X11878277Y-10637774D01*
X11878277Y-10637774D02*
X11859230Y-10628250D01*
X11859230Y-10628250D02*
X11830658Y-10628250D01*
X11830658Y-10628250D02*
X11811610Y-10637774D01*
X11811610Y-10637774D02*
X11802087Y-10647298D01*
X12011610Y-10761584D02*
X11992563Y-10752060D01*
X11992563Y-10752060D02*
X11983039Y-10742536D01*
X11983039Y-10742536D02*
X11973515Y-10723489D01*
X11973515Y-10723489D02*
X11973515Y-10666346D01*
X11973515Y-10666346D02*
X11983039Y-10647298D01*
X11983039Y-10647298D02*
X11992563Y-10637774D01*
X11992563Y-10637774D02*
X12011610Y-10628250D01*
X12011610Y-10628250D02*
X12040182Y-10628250D01*
X12040182Y-10628250D02*
X12059230Y-10637774D01*
X12059230Y-10637774D02*
X12068753Y-10647298D01*
X12068753Y-10647298D02*
X12078277Y-10666346D01*
X12078277Y-10666346D02*
X12078277Y-10723489D01*
X12078277Y-10723489D02*
X12068753Y-10742536D01*
X12068753Y-10742536D02*
X12059230Y-10752060D01*
X12059230Y-10752060D02*
X12040182Y-10761584D01*
X12040182Y-10761584D02*
X12011610Y-10761584D01*
X12192563Y-10761584D02*
X12173515Y-10752060D01*
X12173515Y-10752060D02*
X12163991Y-10733012D01*
X12163991Y-10733012D02*
X12163991Y-10561584D01*
X12344944Y-10752060D02*
X12325896Y-10761584D01*
X12325896Y-10761584D02*
X12287801Y-10761584D01*
X12287801Y-10761584D02*
X12268753Y-10752060D01*
X12268753Y-10752060D02*
X12259230Y-10733012D01*
X12259230Y-10733012D02*
X12259230Y-10656822D01*
X12259230Y-10656822D02*
X12268753Y-10637774D01*
X12268753Y-10637774D02*
X12287801Y-10628250D01*
X12287801Y-10628250D02*
X12325896Y-10628250D01*
X12325896Y-10628250D02*
X12344944Y-10637774D01*
X12344944Y-10637774D02*
X12354468Y-10656822D01*
X12354468Y-10656822D02*
X12354468Y-10675870D01*
X12354468Y-10675870D02*
X12259230Y-10694917D01*
X12430658Y-10752060D02*
X12449706Y-10761584D01*
X12449706Y-10761584D02*
X12487801Y-10761584D01*
X12487801Y-10761584D02*
X12506849Y-10752060D01*
X12506849Y-10752060D02*
X12516372Y-10733012D01*
X12516372Y-10733012D02*
X12516372Y-10723489D01*
X12516372Y-10723489D02*
X12506849Y-10704441D01*
X12506849Y-10704441D02*
X12487801Y-10694917D01*
X12487801Y-10694917D02*
X12459230Y-10694917D01*
X12459230Y-10694917D02*
X12440182Y-10685393D01*
X12440182Y-10685393D02*
X12430658Y-10666346D01*
X12430658Y-10666346D02*
X12430658Y-10656822D01*
X12430658Y-10656822D02*
X12440182Y-10637774D01*
X12440182Y-10637774D02*
X12459230Y-10628250D01*
X12459230Y-10628250D02*
X12487801Y-10628250D01*
X12487801Y-10628250D02*
X12506849Y-10637774D01*
X12583039Y-10837774D02*
X12592563Y-10828250D01*
X12592563Y-10828250D02*
X12611611Y-10799679D01*
X12611611Y-10799679D02*
X12621134Y-10780631D01*
X12621134Y-10780631D02*
X12630658Y-10752060D01*
X12630658Y-10752060D02*
X12640182Y-10704441D01*
X12640182Y-10704441D02*
X12640182Y-10666346D01*
X12640182Y-10666346D02*
X12630658Y-10618727D01*
X12630658Y-10618727D02*
X12621134Y-10590155D01*
X12621134Y-10590155D02*
X12611611Y-10571108D01*
X12611611Y-10571108D02*
X12592563Y-10542536D01*
X12592563Y-10542536D02*
X12583039Y-10533012D01*
X7588211Y-11004811D02*
X7588211Y-10863389D01*
X7446789Y-10863389D01*
X7446789Y-11004811D01*
X7588211Y-11004811D01*
X7868753Y-10844631D02*
X7878277Y-10835108D01*
X7878277Y-10835108D02*
X7897324Y-10825584D01*
X7897324Y-10825584D02*
X7944943Y-10825584D01*
X7944943Y-10825584D02*
X7963991Y-10835108D01*
X7963991Y-10835108D02*
X7973515Y-10844631D01*
X7973515Y-10844631D02*
X7983039Y-10863679D01*
X7983039Y-10863679D02*
X7983039Y-10882727D01*
X7983039Y-10882727D02*
X7973515Y-10911298D01*
X7973515Y-10911298D02*
X7859229Y-11025584D01*
X7859229Y-11025584D02*
X7983039Y-11025584D01*
X8068753Y-11006536D02*
X8078277Y-11016060D01*
X8078277Y-11016060D02*
X8068753Y-11025584D01*
X8068753Y-11025584D02*
X8059229Y-11016060D01*
X8059229Y-11016060D02*
X8068753Y-11006536D01*
X8068753Y-11006536D02*
X8068753Y-11025584D01*
X8154467Y-10844631D02*
X8163991Y-10835108D01*
X8163991Y-10835108D02*
X8183039Y-10825584D01*
X8183039Y-10825584D02*
X8230658Y-10825584D01*
X8230658Y-10825584D02*
X8249705Y-10835108D01*
X8249705Y-10835108D02*
X8259229Y-10844631D01*
X8259229Y-10844631D02*
X8268753Y-10863679D01*
X8268753Y-10863679D02*
X8268753Y-10882727D01*
X8268753Y-10882727D02*
X8259229Y-10911298D01*
X8259229Y-10911298D02*
X8144943Y-11025584D01*
X8144943Y-11025584D02*
X8268753Y-11025584D01*
X8392563Y-10825584D02*
X8411610Y-10825584D01*
X8411610Y-10825584D02*
X8430658Y-10835108D01*
X8430658Y-10835108D02*
X8440182Y-10844631D01*
X8440182Y-10844631D02*
X8449705Y-10863679D01*
X8449705Y-10863679D02*
X8459229Y-10901774D01*
X8459229Y-10901774D02*
X8459229Y-10949393D01*
X8459229Y-10949393D02*
X8449705Y-10987489D01*
X8449705Y-10987489D02*
X8440182Y-11006536D01*
X8440182Y-11006536D02*
X8430658Y-11016060D01*
X8430658Y-11016060D02*
X8411610Y-11025584D01*
X8411610Y-11025584D02*
X8392563Y-11025584D01*
X8392563Y-11025584D02*
X8373515Y-11016060D01*
X8373515Y-11016060D02*
X8363991Y-11006536D01*
X8363991Y-11006536D02*
X8354467Y-10987489D01*
X8354467Y-10987489D02*
X8344943Y-10949393D01*
X8344943Y-10949393D02*
X8344943Y-10901774D01*
X8344943Y-10901774D02*
X8354467Y-10863679D01*
X8354467Y-10863679D02*
X8363991Y-10844631D01*
X8363991Y-10844631D02*
X8373515Y-10835108D01*
X8373515Y-10835108D02*
X8392563Y-10825584D01*
X8583039Y-10825584D02*
X8602086Y-10825584D01*
X8602086Y-10825584D02*
X8621134Y-10835108D01*
X8621134Y-10835108D02*
X8630658Y-10844631D01*
X8630658Y-10844631D02*
X8640182Y-10863679D01*
X8640182Y-10863679D02*
X8649705Y-10901774D01*
X8649705Y-10901774D02*
X8649705Y-10949393D01*
X8649705Y-10949393D02*
X8640182Y-10987489D01*
X8640182Y-10987489D02*
X8630658Y-11006536D01*
X8630658Y-11006536D02*
X8621134Y-11016060D01*
X8621134Y-11016060D02*
X8602086Y-11025584D01*
X8602086Y-11025584D02*
X8583039Y-11025584D01*
X8583039Y-11025584D02*
X8563991Y-11016060D01*
X8563991Y-11016060D02*
X8554467Y-11006536D01*
X8554467Y-11006536D02*
X8544944Y-10987489D01*
X8544944Y-10987489D02*
X8535420Y-10949393D01*
X8535420Y-10949393D02*
X8535420Y-10901774D01*
X8535420Y-10901774D02*
X8544944Y-10863679D01*
X8544944Y-10863679D02*
X8554467Y-10844631D01*
X8554467Y-10844631D02*
X8563991Y-10835108D01*
X8563991Y-10835108D02*
X8583039Y-10825584D01*
X8735420Y-11025584D02*
X8735420Y-10892250D01*
X8735420Y-10911298D02*
X8744944Y-10901774D01*
X8744944Y-10901774D02*
X8763991Y-10892250D01*
X8763991Y-10892250D02*
X8792563Y-10892250D01*
X8792563Y-10892250D02*
X8811610Y-10901774D01*
X8811610Y-10901774D02*
X8821134Y-10920822D01*
X8821134Y-10920822D02*
X8821134Y-11025584D01*
X8821134Y-10920822D02*
X8830658Y-10901774D01*
X8830658Y-10901774D02*
X8849705Y-10892250D01*
X8849705Y-10892250D02*
X8878277Y-10892250D01*
X8878277Y-10892250D02*
X8897325Y-10901774D01*
X8897325Y-10901774D02*
X8906848Y-10920822D01*
X8906848Y-10920822D02*
X8906848Y-11025584D01*
X9002086Y-11025584D02*
X9002086Y-10892250D01*
X9002086Y-10911298D02*
X9011610Y-10901774D01*
X9011610Y-10901774D02*
X9030658Y-10892250D01*
X9030658Y-10892250D02*
X9059229Y-10892250D01*
X9059229Y-10892250D02*
X9078277Y-10901774D01*
X9078277Y-10901774D02*
X9087801Y-10920822D01*
X9087801Y-10920822D02*
X9087801Y-11025584D01*
X9087801Y-10920822D02*
X9097325Y-10901774D01*
X9097325Y-10901774D02*
X9116372Y-10892250D01*
X9116372Y-10892250D02*
X9144944Y-10892250D01*
X9144944Y-10892250D02*
X9163991Y-10901774D01*
X9163991Y-10901774D02*
X9173515Y-10920822D01*
X9173515Y-10920822D02*
X9173515Y-11025584D01*
X9563991Y-10816060D02*
X9392563Y-11073203D01*
X9821134Y-10825584D02*
X9840182Y-10825584D01*
X9840182Y-10825584D02*
X9859229Y-10835108D01*
X9859229Y-10835108D02*
X9868753Y-10844631D01*
X9868753Y-10844631D02*
X9878277Y-10863679D01*
X9878277Y-10863679D02*
X9887801Y-10901774D01*
X9887801Y-10901774D02*
X9887801Y-10949393D01*
X9887801Y-10949393D02*
X9878277Y-10987489D01*
X9878277Y-10987489D02*
X9868753Y-11006536D01*
X9868753Y-11006536D02*
X9859229Y-11016060D01*
X9859229Y-11016060D02*
X9840182Y-11025584D01*
X9840182Y-11025584D02*
X9821134Y-11025584D01*
X9821134Y-11025584D02*
X9802087Y-11016060D01*
X9802087Y-11016060D02*
X9792563Y-11006536D01*
X9792563Y-11006536D02*
X9783039Y-10987489D01*
X9783039Y-10987489D02*
X9773515Y-10949393D01*
X9773515Y-10949393D02*
X9773515Y-10901774D01*
X9773515Y-10901774D02*
X9783039Y-10863679D01*
X9783039Y-10863679D02*
X9792563Y-10844631D01*
X9792563Y-10844631D02*
X9802087Y-10835108D01*
X9802087Y-10835108D02*
X9821134Y-10825584D01*
X9973515Y-11006536D02*
X9983039Y-11016060D01*
X9983039Y-11016060D02*
X9973515Y-11025584D01*
X9973515Y-11025584D02*
X9963991Y-11016060D01*
X9963991Y-11016060D02*
X9973515Y-11006536D01*
X9973515Y-11006536D02*
X9973515Y-11025584D01*
X10106848Y-10825584D02*
X10125896Y-10825584D01*
X10125896Y-10825584D02*
X10144944Y-10835108D01*
X10144944Y-10835108D02*
X10154468Y-10844631D01*
X10154468Y-10844631D02*
X10163991Y-10863679D01*
X10163991Y-10863679D02*
X10173515Y-10901774D01*
X10173515Y-10901774D02*
X10173515Y-10949393D01*
X10173515Y-10949393D02*
X10163991Y-10987489D01*
X10163991Y-10987489D02*
X10154468Y-11006536D01*
X10154468Y-11006536D02*
X10144944Y-11016060D01*
X10144944Y-11016060D02*
X10125896Y-11025584D01*
X10125896Y-11025584D02*
X10106848Y-11025584D01*
X10106848Y-11025584D02*
X10087801Y-11016060D01*
X10087801Y-11016060D02*
X10078277Y-11006536D01*
X10078277Y-11006536D02*
X10068753Y-10987489D01*
X10068753Y-10987489D02*
X10059229Y-10949393D01*
X10059229Y-10949393D02*
X10059229Y-10901774D01*
X10059229Y-10901774D02*
X10068753Y-10863679D01*
X10068753Y-10863679D02*
X10078277Y-10844631D01*
X10078277Y-10844631D02*
X10087801Y-10835108D01*
X10087801Y-10835108D02*
X10106848Y-10825584D01*
X10287801Y-10911298D02*
X10268753Y-10901774D01*
X10268753Y-10901774D02*
X10259229Y-10892250D01*
X10259229Y-10892250D02*
X10249706Y-10873203D01*
X10249706Y-10873203D02*
X10249706Y-10863679D01*
X10249706Y-10863679D02*
X10259229Y-10844631D01*
X10259229Y-10844631D02*
X10268753Y-10835108D01*
X10268753Y-10835108D02*
X10287801Y-10825584D01*
X10287801Y-10825584D02*
X10325896Y-10825584D01*
X10325896Y-10825584D02*
X10344944Y-10835108D01*
X10344944Y-10835108D02*
X10354468Y-10844631D01*
X10354468Y-10844631D02*
X10363991Y-10863679D01*
X10363991Y-10863679D02*
X10363991Y-10873203D01*
X10363991Y-10873203D02*
X10354468Y-10892250D01*
X10354468Y-10892250D02*
X10344944Y-10901774D01*
X10344944Y-10901774D02*
X10325896Y-10911298D01*
X10325896Y-10911298D02*
X10287801Y-10911298D01*
X10287801Y-10911298D02*
X10268753Y-10920822D01*
X10268753Y-10920822D02*
X10259229Y-10930346D01*
X10259229Y-10930346D02*
X10249706Y-10949393D01*
X10249706Y-10949393D02*
X10249706Y-10987489D01*
X10249706Y-10987489D02*
X10259229Y-11006536D01*
X10259229Y-11006536D02*
X10268753Y-11016060D01*
X10268753Y-11016060D02*
X10287801Y-11025584D01*
X10287801Y-11025584D02*
X10325896Y-11025584D01*
X10325896Y-11025584D02*
X10344944Y-11016060D01*
X10344944Y-11016060D02*
X10354468Y-11006536D01*
X10354468Y-11006536D02*
X10363991Y-10987489D01*
X10363991Y-10987489D02*
X10363991Y-10949393D01*
X10363991Y-10949393D02*
X10354468Y-10930346D01*
X10354468Y-10930346D02*
X10344944Y-10920822D01*
X10344944Y-10920822D02*
X10325896Y-10911298D01*
X10535420Y-10825584D02*
X10497325Y-10825584D01*
X10497325Y-10825584D02*
X10478277Y-10835108D01*
X10478277Y-10835108D02*
X10468753Y-10844631D01*
X10468753Y-10844631D02*
X10449706Y-10873203D01*
X10449706Y-10873203D02*
X10440182Y-10911298D01*
X10440182Y-10911298D02*
X10440182Y-10987489D01*
X10440182Y-10987489D02*
X10449706Y-11006536D01*
X10449706Y-11006536D02*
X10459229Y-11016060D01*
X10459229Y-11016060D02*
X10478277Y-11025584D01*
X10478277Y-11025584D02*
X10516372Y-11025584D01*
X10516372Y-11025584D02*
X10535420Y-11016060D01*
X10535420Y-11016060D02*
X10544944Y-11006536D01*
X10544944Y-11006536D02*
X10554468Y-10987489D01*
X10554468Y-10987489D02*
X10554468Y-10939870D01*
X10554468Y-10939870D02*
X10544944Y-10920822D01*
X10544944Y-10920822D02*
X10535420Y-10911298D01*
X10535420Y-10911298D02*
X10516372Y-10901774D01*
X10516372Y-10901774D02*
X10478277Y-10901774D01*
X10478277Y-10901774D02*
X10459229Y-10911298D01*
X10459229Y-10911298D02*
X10449706Y-10920822D01*
X10449706Y-10920822D02*
X10440182Y-10939870D01*
X10725896Y-10825584D02*
X10687801Y-10825584D01*
X10687801Y-10825584D02*
X10668753Y-10835108D01*
X10668753Y-10835108D02*
X10659229Y-10844631D01*
X10659229Y-10844631D02*
X10640182Y-10873203D01*
X10640182Y-10873203D02*
X10630658Y-10911298D01*
X10630658Y-10911298D02*
X10630658Y-10987489D01*
X10630658Y-10987489D02*
X10640182Y-11006536D01*
X10640182Y-11006536D02*
X10649706Y-11016060D01*
X10649706Y-11016060D02*
X10668753Y-11025584D01*
X10668753Y-11025584D02*
X10706849Y-11025584D01*
X10706849Y-11025584D02*
X10725896Y-11016060D01*
X10725896Y-11016060D02*
X10735420Y-11006536D01*
X10735420Y-11006536D02*
X10744944Y-10987489D01*
X10744944Y-10987489D02*
X10744944Y-10939870D01*
X10744944Y-10939870D02*
X10735420Y-10920822D01*
X10735420Y-10920822D02*
X10725896Y-10911298D01*
X10725896Y-10911298D02*
X10706849Y-10901774D01*
X10706849Y-10901774D02*
X10668753Y-10901774D01*
X10668753Y-10901774D02*
X10649706Y-10911298D01*
X10649706Y-10911298D02*
X10640182Y-10920822D01*
X10640182Y-10920822D02*
X10630658Y-10939870D01*
X10821134Y-10825584D02*
X10821134Y-10863679D01*
X10897325Y-10825584D02*
X10897325Y-10863679D01*
X11192563Y-11101774D02*
X11183039Y-11092250D01*
X11183039Y-11092250D02*
X11163991Y-11063679D01*
X11163991Y-11063679D02*
X11154468Y-11044631D01*
X11154468Y-11044631D02*
X11144944Y-11016060D01*
X11144944Y-11016060D02*
X11135420Y-10968441D01*
X11135420Y-10968441D02*
X11135420Y-10930346D01*
X11135420Y-10930346D02*
X11144944Y-10882727D01*
X11144944Y-10882727D02*
X11154468Y-10854155D01*
X11154468Y-10854155D02*
X11163991Y-10835108D01*
X11163991Y-10835108D02*
X11183039Y-10806536D01*
X11183039Y-10806536D02*
X11192563Y-10797012D01*
X11354468Y-10892250D02*
X11354468Y-11025584D01*
X11306848Y-10816060D02*
X11259229Y-10958917D01*
X11259229Y-10958917D02*
X11383039Y-10958917D01*
X11611610Y-11025584D02*
X11611610Y-10825584D01*
X11697325Y-11025584D02*
X11697325Y-10920822D01*
X11697325Y-10920822D02*
X11687801Y-10901774D01*
X11687801Y-10901774D02*
X11668753Y-10892250D01*
X11668753Y-10892250D02*
X11640182Y-10892250D01*
X11640182Y-10892250D02*
X11621134Y-10901774D01*
X11621134Y-10901774D02*
X11611610Y-10911298D01*
X11821134Y-11025584D02*
X11802087Y-11016060D01*
X11802087Y-11016060D02*
X11792563Y-11006536D01*
X11792563Y-11006536D02*
X11783039Y-10987489D01*
X11783039Y-10987489D02*
X11783039Y-10930346D01*
X11783039Y-10930346D02*
X11792563Y-10911298D01*
X11792563Y-10911298D02*
X11802087Y-10901774D01*
X11802087Y-10901774D02*
X11821134Y-10892250D01*
X11821134Y-10892250D02*
X11849706Y-10892250D01*
X11849706Y-10892250D02*
X11868753Y-10901774D01*
X11868753Y-10901774D02*
X11878277Y-10911298D01*
X11878277Y-10911298D02*
X11887801Y-10930346D01*
X11887801Y-10930346D02*
X11887801Y-10987489D01*
X11887801Y-10987489D02*
X11878277Y-11006536D01*
X11878277Y-11006536D02*
X11868753Y-11016060D01*
X11868753Y-11016060D02*
X11849706Y-11025584D01*
X11849706Y-11025584D02*
X11821134Y-11025584D01*
X12002087Y-11025584D02*
X11983039Y-11016060D01*
X11983039Y-11016060D02*
X11973515Y-10997012D01*
X11973515Y-10997012D02*
X11973515Y-10825584D01*
X12154468Y-11016060D02*
X12135420Y-11025584D01*
X12135420Y-11025584D02*
X12097325Y-11025584D01*
X12097325Y-11025584D02*
X12078277Y-11016060D01*
X12078277Y-11016060D02*
X12068753Y-10997012D01*
X12068753Y-10997012D02*
X12068753Y-10920822D01*
X12068753Y-10920822D02*
X12078277Y-10901774D01*
X12078277Y-10901774D02*
X12097325Y-10892250D01*
X12097325Y-10892250D02*
X12135420Y-10892250D01*
X12135420Y-10892250D02*
X12154468Y-10901774D01*
X12154468Y-10901774D02*
X12163991Y-10920822D01*
X12163991Y-10920822D02*
X12163991Y-10939870D01*
X12163991Y-10939870D02*
X12068753Y-10958917D01*
X12240182Y-11016060D02*
X12259230Y-11025584D01*
X12259230Y-11025584D02*
X12297325Y-11025584D01*
X12297325Y-11025584D02*
X12316372Y-11016060D01*
X12316372Y-11016060D02*
X12325896Y-10997012D01*
X12325896Y-10997012D02*
X12325896Y-10987489D01*
X12325896Y-10987489D02*
X12316372Y-10968441D01*
X12316372Y-10968441D02*
X12297325Y-10958917D01*
X12297325Y-10958917D02*
X12268753Y-10958917D01*
X12268753Y-10958917D02*
X12249706Y-10949393D01*
X12249706Y-10949393D02*
X12240182Y-10930346D01*
X12240182Y-10930346D02*
X12240182Y-10920822D01*
X12240182Y-10920822D02*
X12249706Y-10901774D01*
X12249706Y-10901774D02*
X12268753Y-10892250D01*
X12268753Y-10892250D02*
X12297325Y-10892250D01*
X12297325Y-10892250D02*
X12316372Y-10901774D01*
X12392563Y-11101774D02*
X12402087Y-11092250D01*
X12402087Y-11092250D02*
X12421134Y-11063679D01*
X12421134Y-11063679D02*
X12430658Y-11044631D01*
X12430658Y-11044631D02*
X12440182Y-11016060D01*
X12440182Y-11016060D02*
X12449706Y-10968441D01*
X12449706Y-10968441D02*
X12449706Y-10930346D01*
X12449706Y-10930346D02*
X12440182Y-10882727D01*
X12440182Y-10882727D02*
X12430658Y-10854155D01*
X12430658Y-10854155D02*
X12421134Y-10835108D01*
X12421134Y-10835108D02*
X12402087Y-10806536D01*
X12402087Y-10806536D02*
X12392563Y-10797012D01*
M02*
