%TF.GenerationSoftware,KiCad,Pcbnew,9.0.6*%
%TF.CreationDate,2026-09-17T04:04:04+10:00*%
%TF.ProjectId,ESP32Seatalk,45535033-3253-4656-9174-616c6b2e6b69,rev?*%
%TF.SameCoordinates,Original*%
%TF.FileFunction,Legend,Bot*%
%TF.FilePolarity,Positive*%
%FSLAX46Y46*%
G04 Gerber Fmt 4.6, Leading zero omitted, Abs format (unit mm)*
G04 Created by KiCad (PCBNEW 9.0.6) date 2026-09-17 04:04:04*
%MOMM*%
%LPD*%
G01*
G04 APERTURE LIST*
%ADD10C,0.150000*%
%ADD11C,0.120000*%
G04 APERTURE END LIST*
D10*
X92622666Y-76305580D02*
X92670285Y-76353200D01*
X92670285Y-76353200D02*
X92813142Y-76400819D01*
X92813142Y-76400819D02*
X92908380Y-76400819D01*
X92908380Y-76400819D02*
X93051237Y-76353200D01*
X93051237Y-76353200D02*
X93146475Y-76257961D01*
X93146475Y-76257961D02*
X93194094Y-76162723D01*
X93194094Y-76162723D02*
X93241713Y-75972247D01*
X93241713Y-75972247D02*
X93241713Y-75829390D01*
X93241713Y-75829390D02*
X93194094Y-75638914D01*
X93194094Y-75638914D02*
X93146475Y-75543676D01*
X93146475Y-75543676D02*
X93051237Y-75448438D01*
X93051237Y-75448438D02*
X92908380Y-75400819D01*
X92908380Y-75400819D02*
X92813142Y-75400819D01*
X92813142Y-75400819D02*
X92670285Y-75448438D01*
X92670285Y-75448438D02*
X92622666Y-75496057D01*
X92241713Y-75496057D02*
X92194094Y-75448438D01*
X92194094Y-75448438D02*
X92098856Y-75400819D01*
X92098856Y-75400819D02*
X91860761Y-75400819D01*
X91860761Y-75400819D02*
X91765523Y-75448438D01*
X91765523Y-75448438D02*
X91717904Y-75496057D01*
X91717904Y-75496057D02*
X91670285Y-75591295D01*
X91670285Y-75591295D02*
X91670285Y-75686533D01*
X91670285Y-75686533D02*
X91717904Y-75829390D01*
X91717904Y-75829390D02*
X92289332Y-76400819D01*
X92289332Y-76400819D02*
X91670285Y-76400819D01*
X95355580Y-73239333D02*
X95403200Y-73191714D01*
X95403200Y-73191714D02*
X95450819Y-73048857D01*
X95450819Y-73048857D02*
X95450819Y-72953619D01*
X95450819Y-72953619D02*
X95403200Y-72810762D01*
X95403200Y-72810762D02*
X95307961Y-72715524D01*
X95307961Y-72715524D02*
X95212723Y-72667905D01*
X95212723Y-72667905D02*
X95022247Y-72620286D01*
X95022247Y-72620286D02*
X94879390Y-72620286D01*
X94879390Y-72620286D02*
X94688914Y-72667905D01*
X94688914Y-72667905D02*
X94593676Y-72715524D01*
X94593676Y-72715524D02*
X94498438Y-72810762D01*
X94498438Y-72810762D02*
X94450819Y-72953619D01*
X94450819Y-72953619D02*
X94450819Y-73048857D01*
X94450819Y-73048857D02*
X94498438Y-73191714D01*
X94498438Y-73191714D02*
X94546057Y-73239333D01*
X94784152Y-74096476D02*
X95450819Y-74096476D01*
X94403200Y-73858381D02*
X95117485Y-73620286D01*
X95117485Y-73620286D02*
X95117485Y-74239333D01*
X96813666Y-68939580D02*
X96861285Y-68987200D01*
X96861285Y-68987200D02*
X97004142Y-69034819D01*
X97004142Y-69034819D02*
X97099380Y-69034819D01*
X97099380Y-69034819D02*
X97242237Y-68987200D01*
X97242237Y-68987200D02*
X97337475Y-68891961D01*
X97337475Y-68891961D02*
X97385094Y-68796723D01*
X97385094Y-68796723D02*
X97432713Y-68606247D01*
X97432713Y-68606247D02*
X97432713Y-68463390D01*
X97432713Y-68463390D02*
X97385094Y-68272914D01*
X97385094Y-68272914D02*
X97337475Y-68177676D01*
X97337475Y-68177676D02*
X97242237Y-68082438D01*
X97242237Y-68082438D02*
X97099380Y-68034819D01*
X97099380Y-68034819D02*
X97004142Y-68034819D01*
X97004142Y-68034819D02*
X96861285Y-68082438D01*
X96861285Y-68082438D02*
X96813666Y-68130057D01*
X96480332Y-68034819D02*
X95861285Y-68034819D01*
X95861285Y-68034819D02*
X96194618Y-68415771D01*
X96194618Y-68415771D02*
X96051761Y-68415771D01*
X96051761Y-68415771D02*
X95956523Y-68463390D01*
X95956523Y-68463390D02*
X95908904Y-68511009D01*
X95908904Y-68511009D02*
X95861285Y-68606247D01*
X95861285Y-68606247D02*
X95861285Y-68844342D01*
X95861285Y-68844342D02*
X95908904Y-68939580D01*
X95908904Y-68939580D02*
X95956523Y-68987200D01*
X95956523Y-68987200D02*
X96051761Y-69034819D01*
X96051761Y-69034819D02*
X96337475Y-69034819D01*
X96337475Y-69034819D02*
X96432713Y-68987200D01*
X96432713Y-68987200D02*
X96480332Y-68939580D01*
X91606666Y-72721580D02*
X91654285Y-72769200D01*
X91654285Y-72769200D02*
X91797142Y-72816819D01*
X91797142Y-72816819D02*
X91892380Y-72816819D01*
X91892380Y-72816819D02*
X92035237Y-72769200D01*
X92035237Y-72769200D02*
X92130475Y-72673961D01*
X92130475Y-72673961D02*
X92178094Y-72578723D01*
X92178094Y-72578723D02*
X92225713Y-72388247D01*
X92225713Y-72388247D02*
X92225713Y-72245390D01*
X92225713Y-72245390D02*
X92178094Y-72054914D01*
X92178094Y-72054914D02*
X92130475Y-71959676D01*
X92130475Y-71959676D02*
X92035237Y-71864438D01*
X92035237Y-71864438D02*
X91892380Y-71816819D01*
X91892380Y-71816819D02*
X91797142Y-71816819D01*
X91797142Y-71816819D02*
X91654285Y-71864438D01*
X91654285Y-71864438D02*
X91606666Y-71912057D01*
X90654285Y-72816819D02*
X91225713Y-72816819D01*
X90939999Y-72816819D02*
X90939999Y-71816819D01*
X90939999Y-71816819D02*
X91035237Y-71959676D01*
X91035237Y-71959676D02*
X91130475Y-72054914D01*
X91130475Y-72054914D02*
X91225713Y-72102533D01*
X100276819Y-79970333D02*
X99800628Y-79637000D01*
X100276819Y-79398905D02*
X99276819Y-79398905D01*
X99276819Y-79398905D02*
X99276819Y-79779857D01*
X99276819Y-79779857D02*
X99324438Y-79875095D01*
X99324438Y-79875095D02*
X99372057Y-79922714D01*
X99372057Y-79922714D02*
X99467295Y-79970333D01*
X99467295Y-79970333D02*
X99610152Y-79970333D01*
X99610152Y-79970333D02*
X99705390Y-79922714D01*
X99705390Y-79922714D02*
X99753009Y-79875095D01*
X99753009Y-79875095D02*
X99800628Y-79779857D01*
X99800628Y-79779857D02*
X99800628Y-79398905D01*
X100276819Y-80922714D02*
X100276819Y-80351286D01*
X100276819Y-80637000D02*
X99276819Y-80637000D01*
X99276819Y-80637000D02*
X99419676Y-80541762D01*
X99419676Y-80541762D02*
X99514914Y-80446524D01*
X99514914Y-80446524D02*
X99562533Y-80351286D01*
X98442819Y-61722095D02*
X99252342Y-61722095D01*
X99252342Y-61722095D02*
X99347580Y-61769714D01*
X99347580Y-61769714D02*
X99395200Y-61817333D01*
X99395200Y-61817333D02*
X99442819Y-61912571D01*
X99442819Y-61912571D02*
X99442819Y-62103047D01*
X99442819Y-62103047D02*
X99395200Y-62198285D01*
X99395200Y-62198285D02*
X99347580Y-62245904D01*
X99347580Y-62245904D02*
X99252342Y-62293523D01*
X99252342Y-62293523D02*
X98442819Y-62293523D01*
X99442819Y-63293523D02*
X99442819Y-62722095D01*
X99442819Y-63007809D02*
X98442819Y-63007809D01*
X98442819Y-63007809D02*
X98585676Y-62912571D01*
X98585676Y-62912571D02*
X98680914Y-62817333D01*
X98680914Y-62817333D02*
X98728533Y-62722095D01*
X94583238Y-75874057D02*
X94678476Y-75826438D01*
X94678476Y-75826438D02*
X94773714Y-75731200D01*
X94773714Y-75731200D02*
X94916571Y-75588342D01*
X94916571Y-75588342D02*
X95011809Y-75540723D01*
X95011809Y-75540723D02*
X95107047Y-75540723D01*
X95059428Y-75778819D02*
X95154666Y-75731200D01*
X95154666Y-75731200D02*
X95249904Y-75635961D01*
X95249904Y-75635961D02*
X95297523Y-75445485D01*
X95297523Y-75445485D02*
X95297523Y-75112152D01*
X95297523Y-75112152D02*
X95249904Y-74921676D01*
X95249904Y-74921676D02*
X95154666Y-74826438D01*
X95154666Y-74826438D02*
X95059428Y-74778819D01*
X95059428Y-74778819D02*
X94868952Y-74778819D01*
X94868952Y-74778819D02*
X94773714Y-74826438D01*
X94773714Y-74826438D02*
X94678476Y-74921676D01*
X94678476Y-74921676D02*
X94630857Y-75112152D01*
X94630857Y-75112152D02*
X94630857Y-75445485D01*
X94630857Y-75445485D02*
X94678476Y-75635961D01*
X94678476Y-75635961D02*
X94773714Y-75731200D01*
X94773714Y-75731200D02*
X94868952Y-75778819D01*
X94868952Y-75778819D02*
X95059428Y-75778819D01*
X93678476Y-75778819D02*
X94249904Y-75778819D01*
X93964190Y-75778819D02*
X93964190Y-74778819D01*
X93964190Y-74778819D02*
X94059428Y-74921676D01*
X94059428Y-74921676D02*
X94154666Y-75016914D01*
X94154666Y-75016914D02*
X94249904Y-75064533D01*
X90463666Y-80718819D02*
X90796999Y-80242628D01*
X91035094Y-80718819D02*
X91035094Y-79718819D01*
X91035094Y-79718819D02*
X90654142Y-79718819D01*
X90654142Y-79718819D02*
X90558904Y-79766438D01*
X90558904Y-79766438D02*
X90511285Y-79814057D01*
X90511285Y-79814057D02*
X90463666Y-79909295D01*
X90463666Y-79909295D02*
X90463666Y-80052152D01*
X90463666Y-80052152D02*
X90511285Y-80147390D01*
X90511285Y-80147390D02*
X90558904Y-80195009D01*
X90558904Y-80195009D02*
X90654142Y-80242628D01*
X90654142Y-80242628D02*
X91035094Y-80242628D01*
X90082713Y-79814057D02*
X90035094Y-79766438D01*
X90035094Y-79766438D02*
X89939856Y-79718819D01*
X89939856Y-79718819D02*
X89701761Y-79718819D01*
X89701761Y-79718819D02*
X89606523Y-79766438D01*
X89606523Y-79766438D02*
X89558904Y-79814057D01*
X89558904Y-79814057D02*
X89511285Y-79909295D01*
X89511285Y-79909295D02*
X89511285Y-80004533D01*
X89511285Y-80004533D02*
X89558904Y-80147390D01*
X89558904Y-80147390D02*
X90130332Y-80718819D01*
X90130332Y-80718819D02*
X89511285Y-80718819D01*
D11*
%TO.C,C2*%
X91157248Y-73433000D02*
X91679752Y-73433000D01*
X91157248Y-74903000D02*
X91679752Y-74903000D01*
%TO.C,C4*%
X97797252Y-73433000D02*
X97274748Y-73433000D01*
X97797252Y-74903000D02*
X97274748Y-74903000D01*
%TO.C,C3*%
X95041000Y-69657000D02*
X99136000Y-69657000D01*
X95041000Y-71567000D02*
X95041000Y-69657000D01*
X99136000Y-71567000D02*
X95041000Y-71567000D01*
%TO.C,C1*%
X88945000Y-69657000D02*
X93040000Y-69657000D01*
X88945000Y-71567000D02*
X88945000Y-69657000D01*
X93040000Y-71567000D02*
X88945000Y-71567000D01*
%TO.C,R1*%
X97309000Y-77496936D02*
X97309000Y-77951064D01*
X98779000Y-77496936D02*
X98779000Y-77951064D01*
%TO.C,U1*%
X91078000Y-60574000D02*
X92338000Y-60574000D01*
X91078000Y-64334000D02*
X91078000Y-60574000D01*
X97898000Y-60574000D02*
X96638000Y-60574000D01*
X97898000Y-64334000D02*
X97898000Y-60574000D01*
X98128000Y-65854000D02*
X97798000Y-65614000D01*
X98128000Y-65374000D01*
X98128000Y-65854000D01*
G36*
X98128000Y-65854000D02*
G01*
X97798000Y-65614000D01*
X98128000Y-65374000D01*
X98128000Y-65854000D01*
G37*
%TO.C,Q1*%
X93728000Y-76164000D02*
X93728000Y-77164000D01*
X93728000Y-78284000D02*
X93728000Y-79284000D01*
X93728000Y-79284000D02*
X95248000Y-79284000D01*
X95248000Y-76164000D02*
X93728000Y-76164000D01*
X95248000Y-76214000D02*
X95248000Y-76164000D01*
X95248000Y-78114000D02*
X95248000Y-77334000D01*
X95248000Y-79284000D02*
X95248000Y-79234000D01*
X96028000Y-77674000D02*
X95548000Y-77674000D01*
X95788000Y-77344000D01*
X96028000Y-77674000D01*
G36*
X96028000Y-77674000D02*
G01*
X95548000Y-77674000D01*
X95788000Y-77344000D01*
X96028000Y-77674000D01*
G37*
%TO.C,R2*%
X89689000Y-77480936D02*
X89689000Y-77935064D01*
X91159000Y-77480936D02*
X91159000Y-77935064D01*
%TD*%
M02*
