%TF.GenerationSoftware,KiCad,Pcbnew,9.0.6*%
%TF.CreationDate,2026-09-17T04:04:04+10:00*%
%TF.ProjectId,ESP32Seatalk,45535033-3253-4656-9174-616c6b2e6b69,rev?*%
%TF.SameCoordinates,Original*%
%TF.FileFunction,Soldermask,Top*%
%TF.FilePolarity,Negative*%
%FSLAX46Y46*%
G04 Gerber Fmt 4.6, Leading zero omitted, Abs format (unit mm)*
G04 Created by KiCad (PCBNEW 9.0.6) date 2026-09-17 04:04:04*
%MOMM*%
%LPD*%
G01*
G04 APERTURE LIST*
%ADD10C,1.700000*%
%ADD11R,1.700000X1.700000*%
%ADD12C,3.500000*%
G04 APERTURE END LIST*
D10*
%TO.C,U2*%
X85090000Y-76200000D03*
X85090000Y-73660000D03*
X85090000Y-71120000D03*
X85090000Y-68580000D03*
X85090000Y-66040000D03*
X85090000Y-63500000D03*
X85090000Y-60960000D03*
D11*
X85090000Y-58420000D03*
X102870000Y-58420000D03*
D10*
X102870000Y-60960000D03*
X102870000Y-63500000D03*
X102870000Y-66040000D03*
X102870000Y-68580000D03*
X102870000Y-71120000D03*
X102870000Y-73660000D03*
X102870000Y-76200000D03*
%TD*%
D11*
%TO.C,J1*%
X107188000Y-86360000D03*
D10*
X107188000Y-83820000D03*
X107188000Y-81280000D03*
%TD*%
D12*
%TO.C,H2*%
X108712000Y-57404000D03*
%TD*%
D11*
%TO.C,J7*%
X85852000Y-83820000D03*
D10*
X88392000Y-83820000D03*
X90932000Y-83820000D03*
%TD*%
D12*
%TO.C,H1*%
X78740000Y-57404000D03*
%TD*%
D11*
%TO.C,J4*%
X87884000Y-88392000D03*
D10*
X90424000Y-88392000D03*
X92964000Y-88392000D03*
X95504000Y-88392000D03*
X98044000Y-88392000D03*
X100584000Y-88392000D03*
%TD*%
D11*
%TO.C,J5*%
X80772000Y-75692000D03*
D10*
X80772000Y-73152000D03*
X80772000Y-70612000D03*
X80772000Y-68072000D03*
X80772000Y-65532000D03*
%TD*%
D11*
%TO.C,J3*%
X97028000Y-83820000D03*
D10*
X99568000Y-83820000D03*
X102108000Y-83820000D03*
%TD*%
D11*
%TO.C,J6*%
X107188000Y-65532000D03*
D10*
X107188000Y-68072000D03*
X107188000Y-70612000D03*
X107188000Y-73152000D03*
X107188000Y-75692000D03*
%TD*%
D11*
%TO.C,J2*%
X80772000Y-81280000D03*
D10*
X80772000Y-83820000D03*
X80772000Y-86360000D03*
%TD*%
D12*
%TO.C,H4*%
X108712000Y-91948000D03*
%TD*%
%TO.C,H3*%
X78740000Y-91948000D03*
%TD*%
M02*
