%TF.GenerationSoftware,KiCad,Pcbnew,9.0.6*%
%TF.CreationDate,2026-09-17T04:04:04+10:00*%
%TF.ProjectId,ESP32Seatalk,45535033-3253-4656-9174-616c6b2e6b69,rev?*%
%TF.SameCoordinates,Original*%
%TF.FileFunction,Legend,Top*%
%TF.FilePolarity,Positive*%
%FSLAX46Y46*%
G04 Gerber Fmt 4.6, Leading zero omitted, Abs format (unit mm)*
G04 Created by KiCad (PCBNEW 9.0.6) date 2026-09-17 04:04:04*
%MOMM*%
%LPD*%
G01*
G04 APERTURE LIST*
%ADD10C,0.150000*%
%ADD11C,0.120000*%
G04 APERTURE END LIST*
D10*
X85852095Y-55715819D02*
X85852095Y-56525342D01*
X85852095Y-56525342D02*
X85899714Y-56620580D01*
X85899714Y-56620580D02*
X85947333Y-56668200D01*
X85947333Y-56668200D02*
X86042571Y-56715819D01*
X86042571Y-56715819D02*
X86233047Y-56715819D01*
X86233047Y-56715819D02*
X86328285Y-56668200D01*
X86328285Y-56668200D02*
X86375904Y-56620580D01*
X86375904Y-56620580D02*
X86423523Y-56525342D01*
X86423523Y-56525342D02*
X86423523Y-55715819D01*
X86852095Y-55811057D02*
X86899714Y-55763438D01*
X86899714Y-55763438D02*
X86994952Y-55715819D01*
X86994952Y-55715819D02*
X87233047Y-55715819D01*
X87233047Y-55715819D02*
X87328285Y-55763438D01*
X87328285Y-55763438D02*
X87375904Y-55811057D01*
X87375904Y-55811057D02*
X87423523Y-55906295D01*
X87423523Y-55906295D02*
X87423523Y-56001533D01*
X87423523Y-56001533D02*
X87375904Y-56144390D01*
X87375904Y-56144390D02*
X86804476Y-56715819D01*
X86804476Y-56715819D02*
X87423523Y-56715819D01*
X106219666Y-88481819D02*
X106219666Y-89196104D01*
X106219666Y-89196104D02*
X106172047Y-89338961D01*
X106172047Y-89338961D02*
X106076809Y-89434200D01*
X106076809Y-89434200D02*
X105933952Y-89481819D01*
X105933952Y-89481819D02*
X105838714Y-89481819D01*
X107219666Y-89481819D02*
X106648238Y-89481819D01*
X106933952Y-89481819D02*
X106933952Y-88481819D01*
X106933952Y-88481819D02*
X106838714Y-88624676D01*
X106838714Y-88624676D02*
X106743476Y-88719914D01*
X106743476Y-88719914D02*
X106648238Y-88767533D01*
X104902095Y-57731819D02*
X104902095Y-56731819D01*
X104902095Y-57208009D02*
X105473523Y-57208009D01*
X105473523Y-57731819D02*
X105473523Y-56731819D01*
X105902095Y-56827057D02*
X105949714Y-56779438D01*
X105949714Y-56779438D02*
X106044952Y-56731819D01*
X106044952Y-56731819D02*
X106283047Y-56731819D01*
X106283047Y-56731819D02*
X106378285Y-56779438D01*
X106378285Y-56779438D02*
X106425904Y-56827057D01*
X106425904Y-56827057D02*
X106473523Y-56922295D01*
X106473523Y-56922295D02*
X106473523Y-57017533D01*
X106473523Y-57017533D02*
X106425904Y-57160390D01*
X106425904Y-57160390D02*
X105854476Y-57731819D01*
X105854476Y-57731819D02*
X106473523Y-57731819D01*
X82926819Y-84153333D02*
X83641104Y-84153333D01*
X83641104Y-84153333D02*
X83783961Y-84200952D01*
X83783961Y-84200952D02*
X83879200Y-84296190D01*
X83879200Y-84296190D02*
X83926819Y-84439047D01*
X83926819Y-84439047D02*
X83926819Y-84534285D01*
X82926819Y-83772380D02*
X82926819Y-83105714D01*
X82926819Y-83105714D02*
X83926819Y-83534285D01*
X81026095Y-57858819D02*
X81026095Y-56858819D01*
X81026095Y-57335009D02*
X81597523Y-57335009D01*
X81597523Y-57858819D02*
X81597523Y-56858819D01*
X82597523Y-57858819D02*
X82026095Y-57858819D01*
X82311809Y-57858819D02*
X82311809Y-56858819D01*
X82311809Y-56858819D02*
X82216571Y-57001676D01*
X82216571Y-57001676D02*
X82121333Y-57096914D01*
X82121333Y-57096914D02*
X82026095Y-57144533D01*
X84958819Y-88725333D02*
X85673104Y-88725333D01*
X85673104Y-88725333D02*
X85815961Y-88772952D01*
X85815961Y-88772952D02*
X85911200Y-88868190D01*
X85911200Y-88868190D02*
X85958819Y-89011047D01*
X85958819Y-89011047D02*
X85958819Y-89106285D01*
X85292152Y-87820571D02*
X85958819Y-87820571D01*
X84911200Y-88058666D02*
X85625485Y-88296761D01*
X85625485Y-88296761D02*
X85625485Y-87677714D01*
X80438666Y-62319819D02*
X80438666Y-63034104D01*
X80438666Y-63034104D02*
X80391047Y-63176961D01*
X80391047Y-63176961D02*
X80295809Y-63272200D01*
X80295809Y-63272200D02*
X80152952Y-63319819D01*
X80152952Y-63319819D02*
X80057714Y-63319819D01*
X81391047Y-62319819D02*
X80914857Y-62319819D01*
X80914857Y-62319819D02*
X80867238Y-62796009D01*
X80867238Y-62796009D02*
X80914857Y-62748390D01*
X80914857Y-62748390D02*
X81010095Y-62700771D01*
X81010095Y-62700771D02*
X81248190Y-62700771D01*
X81248190Y-62700771D02*
X81343428Y-62748390D01*
X81343428Y-62748390D02*
X81391047Y-62796009D01*
X81391047Y-62796009D02*
X81438666Y-62891247D01*
X81438666Y-62891247D02*
X81438666Y-63129342D01*
X81438666Y-63129342D02*
X81391047Y-63224580D01*
X81391047Y-63224580D02*
X81343428Y-63272200D01*
X81343428Y-63272200D02*
X81248190Y-63319819D01*
X81248190Y-63319819D02*
X81010095Y-63319819D01*
X81010095Y-63319819D02*
X80914857Y-63272200D01*
X80914857Y-63272200D02*
X80867238Y-63224580D01*
X94102819Y-84153333D02*
X94817104Y-84153333D01*
X94817104Y-84153333D02*
X94959961Y-84200952D01*
X94959961Y-84200952D02*
X95055200Y-84296190D01*
X95055200Y-84296190D02*
X95102819Y-84439047D01*
X95102819Y-84439047D02*
X95102819Y-84534285D01*
X94102819Y-83772380D02*
X94102819Y-83153333D01*
X94102819Y-83153333D02*
X94483771Y-83486666D01*
X94483771Y-83486666D02*
X94483771Y-83343809D01*
X94483771Y-83343809D02*
X94531390Y-83248571D01*
X94531390Y-83248571D02*
X94579009Y-83200952D01*
X94579009Y-83200952D02*
X94674247Y-83153333D01*
X94674247Y-83153333D02*
X94912342Y-83153333D01*
X94912342Y-83153333D02*
X95007580Y-83200952D01*
X95007580Y-83200952D02*
X95055200Y-83248571D01*
X95055200Y-83248571D02*
X95102819Y-83343809D01*
X95102819Y-83343809D02*
X95102819Y-83629523D01*
X95102819Y-83629523D02*
X95055200Y-83724761D01*
X95055200Y-83724761D02*
X95007580Y-83772380D01*
X106854666Y-62606819D02*
X106854666Y-63321104D01*
X106854666Y-63321104D02*
X106807047Y-63463961D01*
X106807047Y-63463961D02*
X106711809Y-63559200D01*
X106711809Y-63559200D02*
X106568952Y-63606819D01*
X106568952Y-63606819D02*
X106473714Y-63606819D01*
X107759428Y-62606819D02*
X107568952Y-62606819D01*
X107568952Y-62606819D02*
X107473714Y-62654438D01*
X107473714Y-62654438D02*
X107426095Y-62702057D01*
X107426095Y-62702057D02*
X107330857Y-62844914D01*
X107330857Y-62844914D02*
X107283238Y-63035390D01*
X107283238Y-63035390D02*
X107283238Y-63416342D01*
X107283238Y-63416342D02*
X107330857Y-63511580D01*
X107330857Y-63511580D02*
X107378476Y-63559200D01*
X107378476Y-63559200D02*
X107473714Y-63606819D01*
X107473714Y-63606819D02*
X107664190Y-63606819D01*
X107664190Y-63606819D02*
X107759428Y-63559200D01*
X107759428Y-63559200D02*
X107807047Y-63511580D01*
X107807047Y-63511580D02*
X107854666Y-63416342D01*
X107854666Y-63416342D02*
X107854666Y-63178247D01*
X107854666Y-63178247D02*
X107807047Y-63083009D01*
X107807047Y-63083009D02*
X107759428Y-63035390D01*
X107759428Y-63035390D02*
X107664190Y-62987771D01*
X107664190Y-62987771D02*
X107473714Y-62987771D01*
X107473714Y-62987771D02*
X107378476Y-63035390D01*
X107378476Y-63035390D02*
X107330857Y-63083009D01*
X107330857Y-63083009D02*
X107283238Y-63178247D01*
X81200666Y-88608819D02*
X81200666Y-89323104D01*
X81200666Y-89323104D02*
X81153047Y-89465961D01*
X81153047Y-89465961D02*
X81057809Y-89561200D01*
X81057809Y-89561200D02*
X80914952Y-89608819D01*
X80914952Y-89608819D02*
X80819714Y-89608819D01*
X81629238Y-88704057D02*
X81676857Y-88656438D01*
X81676857Y-88656438D02*
X81772095Y-88608819D01*
X81772095Y-88608819D02*
X82010190Y-88608819D01*
X82010190Y-88608819D02*
X82105428Y-88656438D01*
X82105428Y-88656438D02*
X82153047Y-88704057D01*
X82153047Y-88704057D02*
X82200666Y-88799295D01*
X82200666Y-88799295D02*
X82200666Y-88894533D01*
X82200666Y-88894533D02*
X82153047Y-89037390D01*
X82153047Y-89037390D02*
X81581619Y-89608819D01*
X81581619Y-89608819D02*
X82200666Y-89608819D01*
X104775095Y-92402819D02*
X104775095Y-91402819D01*
X104775095Y-91879009D02*
X105346523Y-91879009D01*
X105346523Y-92402819D02*
X105346523Y-91402819D01*
X106251285Y-91736152D02*
X106251285Y-92402819D01*
X106013190Y-91355200D02*
X105775095Y-92069485D01*
X105775095Y-92069485D02*
X106394142Y-92069485D01*
X81026095Y-92402819D02*
X81026095Y-91402819D01*
X81026095Y-91879009D02*
X81597523Y-91879009D01*
X81597523Y-92402819D02*
X81597523Y-91402819D01*
X81978476Y-91402819D02*
X82597523Y-91402819D01*
X82597523Y-91402819D02*
X82264190Y-91783771D01*
X82264190Y-91783771D02*
X82407047Y-91783771D01*
X82407047Y-91783771D02*
X82502285Y-91831390D01*
X82502285Y-91831390D02*
X82549904Y-91879009D01*
X82549904Y-91879009D02*
X82597523Y-91974247D01*
X82597523Y-91974247D02*
X82597523Y-92212342D01*
X82597523Y-92212342D02*
X82549904Y-92307580D01*
X82549904Y-92307580D02*
X82502285Y-92355200D01*
X82502285Y-92355200D02*
X82407047Y-92402819D01*
X82407047Y-92402819D02*
X82121333Y-92402819D01*
X82121333Y-92402819D02*
X82026095Y-92355200D01*
X82026095Y-92355200D02*
X81978476Y-92307580D01*
D11*
%TO.C,J1*%
X105808000Y-85090000D02*
X105808000Y-79900000D01*
X108568000Y-79900000D02*
X105808000Y-79900000D01*
X108568000Y-85090000D02*
X105808000Y-85090000D01*
X108568000Y-85090000D02*
X108568000Y-79900000D01*
X108568000Y-86360000D02*
X108568000Y-87740000D01*
X108568000Y-87740000D02*
X107188000Y-87740000D01*
%TO.C,J7*%
X84472000Y-85200000D02*
X84472000Y-83820000D01*
X85852000Y-85200000D02*
X84472000Y-85200000D01*
X87122000Y-82440000D02*
X92312000Y-82440000D01*
X87122000Y-85200000D02*
X87122000Y-82440000D01*
X87122000Y-85200000D02*
X92312000Y-85200000D01*
X92312000Y-85200000D02*
X92312000Y-82440000D01*
%TO.C,J4*%
X86504000Y-89772000D02*
X86504000Y-88392000D01*
X87884000Y-89772000D02*
X86504000Y-89772000D01*
X89154000Y-87012000D02*
X101964000Y-87012000D01*
X89154000Y-89772000D02*
X89154000Y-87012000D01*
X89154000Y-89772000D02*
X101964000Y-89772000D01*
X101964000Y-89772000D02*
X101964000Y-87012000D01*
%TO.C,J5*%
X79392000Y-74422000D02*
X79392000Y-64152000D01*
X82152000Y-64152000D02*
X79392000Y-64152000D01*
X82152000Y-74422000D02*
X79392000Y-74422000D01*
X82152000Y-74422000D02*
X82152000Y-64152000D01*
X82152000Y-75692000D02*
X82152000Y-77072000D01*
X82152000Y-77072000D02*
X80772000Y-77072000D01*
%TO.C,J3*%
X95648000Y-85200000D02*
X95648000Y-83820000D01*
X97028000Y-85200000D02*
X95648000Y-85200000D01*
X98298000Y-82440000D02*
X103488000Y-82440000D01*
X98298000Y-85200000D02*
X98298000Y-82440000D01*
X98298000Y-85200000D02*
X103488000Y-85200000D01*
X103488000Y-85200000D02*
X103488000Y-82440000D01*
%TO.C,J6*%
X105808000Y-64152000D02*
X107188000Y-64152000D01*
X105808000Y-65532000D02*
X105808000Y-64152000D01*
X105808000Y-66802000D02*
X105808000Y-77072000D01*
X105808000Y-66802000D02*
X108568000Y-66802000D01*
X105808000Y-77072000D02*
X108568000Y-77072000D01*
X108568000Y-66802000D02*
X108568000Y-77072000D01*
%TO.C,J2*%
X79392000Y-79900000D02*
X80772000Y-79900000D01*
X79392000Y-81280000D02*
X79392000Y-79900000D01*
X79392000Y-82550000D02*
X79392000Y-87740000D01*
X79392000Y-82550000D02*
X82152000Y-82550000D01*
X79392000Y-87740000D02*
X82152000Y-87740000D01*
X82152000Y-82550000D02*
X82152000Y-87740000D01*
%TD*%
M02*
