%TF.GenerationSoftware,KiCad,Pcbnew,9.0.6*%
%TF.CreationDate,2026-09-17T04:04:04+10:00*%
%TF.ProjectId,ESP32Seatalk,45535033-3253-4656-9174-616c6b2e6b69,rev?*%
%TF.SameCoordinates,Original*%
%TF.FileFunction,Soldermask,Bot*%
%TF.FilePolarity,Negative*%
%FSLAX46Y46*%
G04 Gerber Fmt 4.6, Leading zero omitted, Abs format (unit mm)*
G04 Created by KiCad (PCBNEW 9.0.6) date 2026-09-17 04:04:04*
%MOMM*%
%LPD*%
G01*
G04 APERTURE LIST*
G04 Aperture macros list*
%AMRoundRect*
0 Rectangle with rounded corners*
0 $1 Rounding radius*
0 $2 $3 $4 $5 $6 $7 $8 $9 X,Y pos of 4 corners*
0 Add a 4 corners polygon primitive as box body*
4,1,4,$2,$3,$4,$5,$6,$7,$8,$9,$2,$3,0*
0 Add four circle primitives for the rounded corners*
1,1,$1+$1,$2,$3*
1,1,$1+$1,$4,$5*
1,1,$1+$1,$6,$7*
1,1,$1+$1,$8,$9*
0 Add four rect primitives between the rounded corners*
20,1,$1+$1,$2,$3,$4,$5,0*
20,1,$1+$1,$4,$5,$6,$7,0*
20,1,$1+$1,$6,$7,$8,$9,0*
20,1,$1+$1,$8,$9,$2,$3,0*%
G04 Aperture macros list end*
%ADD10C,1.700000*%
%ADD11R,1.700000X1.700000*%
%ADD12C,3.500000*%
%ADD13RoundRect,0.250000X-0.337500X-0.475000X0.337500X-0.475000X0.337500X0.475000X-0.337500X0.475000X0*%
%ADD14RoundRect,0.250000X0.337500X0.475000X-0.337500X0.475000X-0.337500X-0.475000X0.337500X-0.475000X0*%
%ADD15RoundRect,0.250000X-0.545000X-0.445000X0.545000X-0.445000X0.545000X0.445000X-0.545000X0.445000X0*%
%ADD16RoundRect,0.250000X-0.450000X0.350000X-0.450000X-0.350000X0.450000X-0.350000X0.450000X0.350000X0*%
%ADD17RoundRect,0.375000X0.375000X-0.625000X0.375000X0.625000X-0.375000X0.625000X-0.375000X-0.625000X0*%
%ADD18RoundRect,0.500000X1.400000X-0.500000X1.400000X0.500000X-1.400000X0.500000X-1.400000X-0.500000X0*%
%ADD19RoundRect,0.150000X0.587500X0.150000X-0.587500X0.150000X-0.587500X-0.150000X0.587500X-0.150000X0*%
G04 APERTURE END LIST*
D10*
%TO.C,U2*%
X85090000Y-76200000D03*
X85090000Y-73660000D03*
X85090000Y-71120000D03*
X85090000Y-68580000D03*
X85090000Y-66040000D03*
X85090000Y-63500000D03*
X85090000Y-60960000D03*
D11*
X85090000Y-58420000D03*
X102870000Y-58420000D03*
D10*
X102870000Y-60960000D03*
X102870000Y-63500000D03*
X102870000Y-66040000D03*
X102870000Y-68580000D03*
X102870000Y-71120000D03*
X102870000Y-73660000D03*
X102870000Y-76200000D03*
%TD*%
D11*
%TO.C,J1*%
X107188000Y-86360000D03*
D10*
X107188000Y-83820000D03*
X107188000Y-81280000D03*
%TD*%
D12*
%TO.C,H2*%
X108712000Y-57404000D03*
%TD*%
D11*
%TO.C,J7*%
X85852000Y-83820000D03*
D10*
X88392000Y-83820000D03*
X90932000Y-83820000D03*
%TD*%
D12*
%TO.C,H1*%
X78740000Y-57404000D03*
%TD*%
D11*
%TO.C,J4*%
X87884000Y-88392000D03*
D10*
X90424000Y-88392000D03*
X92964000Y-88392000D03*
X95504000Y-88392000D03*
X98044000Y-88392000D03*
X100584000Y-88392000D03*
%TD*%
D11*
%TO.C,J5*%
X80772000Y-75692000D03*
D10*
X80772000Y-73152000D03*
X80772000Y-70612000D03*
X80772000Y-68072000D03*
X80772000Y-65532000D03*
%TD*%
D11*
%TO.C,J3*%
X97028000Y-83820000D03*
D10*
X99568000Y-83820000D03*
X102108000Y-83820000D03*
%TD*%
D11*
%TO.C,J6*%
X107188000Y-65532000D03*
D10*
X107188000Y-68072000D03*
X107188000Y-70612000D03*
X107188000Y-73152000D03*
X107188000Y-75692000D03*
%TD*%
D11*
%TO.C,J2*%
X80772000Y-81280000D03*
D10*
X80772000Y-83820000D03*
X80772000Y-86360000D03*
%TD*%
D12*
%TO.C,H4*%
X108712000Y-91948000D03*
%TD*%
%TO.C,H3*%
X78740000Y-91948000D03*
%TD*%
D13*
%TO.C,C2*%
X90381000Y-74168000D03*
X92456000Y-74168000D03*
%TD*%
D14*
%TO.C,C4*%
X98573500Y-74168000D03*
X96498500Y-74168000D03*
%TD*%
D15*
%TO.C,C3*%
X96096000Y-70612000D03*
X98976000Y-70612000D03*
%TD*%
%TO.C,C1*%
X90000000Y-70612000D03*
X92880000Y-70612000D03*
%TD*%
D16*
%TO.C,R1*%
X98044000Y-76724000D03*
X98044000Y-78724000D03*
%TD*%
D17*
%TO.C,U1*%
X96788000Y-65634000D03*
X94488000Y-65634000D03*
D18*
X94488000Y-59334000D03*
D17*
X92188000Y-65634000D03*
%TD*%
D19*
%TO.C,Q1*%
X95425500Y-76774000D03*
X95425500Y-78674000D03*
X93550500Y-77724000D03*
%TD*%
D16*
%TO.C,R2*%
X90424000Y-76708000D03*
X90424000Y-78708000D03*
%TD*%
M02*
