%TF.GenerationSoftware,KiCad,Pcbnew,9.0.4*%
%TF.CreationDate,2025-09-14T15:21:27+10:00*%
%TF.ProjectId,opensenceesp32,6f70656e-7365-46e6-9365-65737033322e,rev?*%
%TF.SameCoordinates,Original*%
%TF.FileFunction,Copper,L4,Bot*%
%TF.FilePolarity,Positive*%
%FSLAX46Y46*%
G04 Gerber Fmt 4.6, Leading zero omitted, Abs format (unit mm)*
G04 Created by KiCad (PCBNEW 9.0.4) date 2025-09-14 15:21:27*
%MOMM*%
%LPD*%
G01*
G04 APERTURE LIST*
%TA.AperFunction,ComponentPad*%
%ADD10C,1.700000*%
%TD*%
%TA.AperFunction,ComponentPad*%
%ADD11R,1.700000X1.700000*%
%TD*%
%TA.AperFunction,ViaPad*%
%ADD12C,0.600000*%
%TD*%
%TA.AperFunction,Conductor*%
%ADD13C,0.200000*%
%TD*%
%TA.AperFunction,Conductor*%
%ADD14C,0.400000*%
%TD*%
G04 APERTURE END LIST*
D10*
%TO.P,U4,0,GPIO0*%
%TO.N,unconnected-(U4-GPIO0-Pad0)*%
X239420400Y-81889600D03*
%TO.P,U4,1,GPIO1*%
%TO.N,/GPS_RESET*%
X239420400Y-79349600D03*
%TO.P,U4,2,GPIO2*%
%TO.N,unconnected-(U4-GPIO2-Pad2)*%
X239420400Y-76809600D03*
%TO.P,U4,3,GPIO21*%
%TO.N,/GPS_RX*%
X239420400Y-74269600D03*
%TO.P,U4,4,GPIO20*%
%TO.N,/GPS_TX*%
X239420400Y-71729600D03*
%TO.P,U4,5,3.3v*%
%TO.N,Net-(SW2-B)*%
X239420400Y-69189600D03*
%TO.P,U4,6,GND*%
%TO.N,GND*%
X239420400Y-66649600D03*
D11*
%TO.P,U4,7,5v*%
%TO.N,unconnected-(U4-5v-Pad7)*%
X239420400Y-64109600D03*
%TO.P,U4,8,GPIO10*%
%TO.N,Net-(U4-GPIO10)*%
X221640400Y-64109600D03*
D10*
%TO.P,U4,9,GPIO9*%
%TO.N,/SCL*%
X221640400Y-66649600D03*
%TO.P,U4,10,GPIO8*%
%TO.N,/SDA*%
X221640400Y-69189600D03*
%TO.P,U4,11,GPIO7*%
%TO.N,/1PPS*%
X221640400Y-71729600D03*
%TO.P,U4,12,GPIO6*%
%TO.N,unconnected-(U4-GPIO6-Pad12)*%
X221640400Y-74269600D03*
%TO.P,U4,13,GPIO5*%
%TO.N,unconnected-(U4-GPIO5-Pad13)*%
X221640400Y-76809600D03*
%TO.P,U4,14,GPIO4*%
%TO.N,/GPIO_GY86_ON*%
X221640400Y-79349600D03*
%TO.P,U4,15,GPIO3*%
%TO.N,/GPIO_GPS_ON*%
X221640400Y-81889600D03*
%TD*%
D11*
%TO.P,J2,1,Pin_1*%
%TO.N,VCC*%
X242570000Y-102616000D03*
D10*
%TO.P,J2,2,Pin_2*%
%TO.N,GND*%
X242570000Y-105156000D03*
%TD*%
D11*
%TO.P,SW1,1,1*%
%TO.N,Net-(U4-GPIO10)*%
X217652000Y-64084200D03*
D10*
%TO.P,SW1,2,2*%
%TO.N,Net-(R8-Pad2)*%
X217652000Y-66624200D03*
%TD*%
D11*
%TO.P,J1,1,Pin_1*%
%TO.N,unconnected-(J1-Pin_1-Pad1)*%
X217805000Y-89535000D03*
D10*
%TO.P,J1,2,Pin_2*%
%TO.N,unconnected-(J1-Pin_2-Pad2)*%
X217805000Y-92075000D03*
%TO.P,J1,3,Pin_3*%
%TO.N,unconnected-(J1-Pin_3-Pad3)*%
X217805000Y-94615000D03*
%TO.P,J1,4,Pin_4*%
%TO.N,/SDA*%
X217805000Y-97155000D03*
%TO.P,J1,5,Pin_5*%
%TO.N,/SCL*%
X217805000Y-99695000D03*
%TO.P,J1,6,Pin_6*%
%TO.N,/GY_87_GND_SW*%
X217805000Y-102235000D03*
%TO.P,J1,7,Pin_7*%
%TO.N,+3.3V*%
X217805000Y-104775000D03*
%TO.P,J1,8,Pin_8*%
%TO.N,unconnected-(J1-Pin_8-Pad8)*%
X217805000Y-107315000D03*
%TD*%
D11*
%TO.P,SW2,1,A*%
%TO.N,+3.3V*%
X243256200Y-72014400D03*
D10*
%TO.P,SW2,2,B*%
%TO.N,Net-(SW2-B)*%
X243256200Y-69474400D03*
%TD*%
D12*
%TO.N,Net-(Q1-G)*%
X226441000Y-88519000D03*
X226822000Y-84582000D03*
%TO.N,/1PPS*%
X232765600Y-74218800D03*
X225094800Y-126644400D03*
%TO.N,/GPS_RESET*%
X241198400Y-116433600D03*
%TO.N,+3.3V*%
X239776000Y-91033600D03*
%TO.N,/GPS_TX*%
X230581200Y-117348000D03*
%TO.N,/GPS_RX*%
X232714800Y-110032800D03*
%TO.N,+3.3V*%
X217220800Y-75946000D03*
%TO.N,GND*%
X235305600Y-67208400D03*
%TO.N,+3.3V*%
X229565200Y-67513200D03*
%TO.N,GND*%
X224637600Y-94945200D03*
X222148400Y-100380800D03*
%TO.N,+3.3V*%
X227939600Y-97129600D03*
X232257600Y-94640400D03*
%TO.N,GND*%
X232460800Y-96824800D03*
X234492800Y-107289600D03*
X238099600Y-106832400D03*
X239725200Y-99872800D03*
X239776000Y-93929200D03*
%TO.N,+3.3V*%
X230124000Y-122326400D03*
X230073200Y-124917200D03*
%TO.N,GND*%
X220573600Y-122224800D03*
%TD*%
D13*
%TO.N,/GPS_TX*%
X233883200Y-73660000D02*
X235839000Y-71704200D01*
X233883200Y-107492800D02*
X233883200Y-73660000D01*
X231394000Y-109982000D02*
X233883200Y-107492800D01*
X235839000Y-71704200D02*
X239420400Y-71704200D01*
X231394000Y-116535200D02*
X231394000Y-109982000D01*
X230581200Y-117348000D02*
X231394000Y-116535200D01*
%TO.N,/SDA*%
X230034200Y-92164800D02*
X230034200Y-77583400D01*
X225044000Y-97155000D02*
X230034200Y-92164800D01*
X217805000Y-97155000D02*
X225044000Y-97155000D01*
X230034200Y-77583400D02*
X221640400Y-69189600D01*
%TO.N,Net-(Q1-G)*%
X226441000Y-84963000D02*
X226822000Y-84582000D01*
X226441000Y-88519000D02*
X226441000Y-84963000D01*
%TO.N,/1PPS*%
X233061800Y-74515000D02*
X232765600Y-74218800D01*
%TO.N,/SDA*%
X221640400Y-69164200D02*
X224663000Y-69164200D01*
%TO.N,/SCL*%
X222885000Y-67868800D02*
X221640400Y-66624200D01*
X227228400Y-67868800D02*
X222885000Y-67868800D01*
X230835200Y-71475600D02*
X227228400Y-67868800D01*
X230835200Y-97180400D02*
X230835200Y-71475600D01*
X226633800Y-101381800D02*
X230835200Y-97180400D01*
X221422200Y-101381800D02*
X226633800Y-101381800D01*
X219735400Y-99695000D02*
X221422200Y-101381800D01*
X217805000Y-99695000D02*
X219735400Y-99695000D01*
%TO.N,/1PPS*%
X233061800Y-102421400D02*
X233061800Y-74515000D01*
X232511600Y-102971600D02*
X233061800Y-102421400D01*
X232511600Y-105460800D02*
X232511600Y-102971600D01*
X225094800Y-112877600D02*
X232511600Y-105460800D01*
X225094800Y-126644400D02*
X225094800Y-112877600D01*
%TO.N,/GPS_RESET*%
X241198400Y-116433600D02*
X241198400Y-81102200D01*
X241198400Y-81102200D02*
X239420400Y-79324200D01*
%TO.N,/GPS_RX*%
X236855000Y-74244200D02*
X239420400Y-74244200D01*
X235204000Y-75895200D02*
X236855000Y-74244200D01*
X235204000Y-107543600D02*
X235204000Y-75895200D01*
X232714800Y-110032800D02*
X235204000Y-107543600D01*
D14*
%TO.N,Net-(SW2-B)*%
X242946000Y-69164200D02*
X243256200Y-69474400D01*
X239420400Y-69164200D02*
X242946000Y-69164200D01*
%TD*%
M02*
