%TF.GenerationSoftware,KiCad,Pcbnew,9.0.4*%
%TF.CreationDate,2025-09-14T15:21:26+10:00*%
%TF.ProjectId,opensenceesp32,6f70656e-7365-46e6-9365-65737033322e,rev?*%
%TF.SameCoordinates,Original*%
%TF.FileFunction,Copper,L2,Inr*%
%TF.FilePolarity,Positive*%
%FSLAX46Y46*%
G04 Gerber Fmt 4.6, Leading zero omitted, Abs format (unit mm)*
G04 Created by KiCad (PCBNEW 9.0.4) date 2025-09-14 15:21:26*
%MOMM*%
%LPD*%
G01*
G04 APERTURE LIST*
%TA.AperFunction,ComponentPad*%
%ADD10R,1.700000X1.700000*%
%TD*%
%TA.AperFunction,ComponentPad*%
%ADD11C,1.700000*%
%TD*%
%TA.AperFunction,ViaPad*%
%ADD12C,0.600000*%
%TD*%
G04 APERTURE END LIST*
D10*
%TO.N,VCC*%
%TO.C,J2*%
X242570000Y-102616000D03*
D11*
%TO.N,GND*%
X242570000Y-105156000D03*
%TD*%
D10*
%TO.N,Net-(U4-GPIO10)*%
%TO.C,SW1*%
X217652000Y-64084200D03*
D11*
%TO.N,Net-(R8-Pad2)*%
X217652000Y-66624200D03*
%TD*%
D10*
%TO.N,unconnected-(J1-Pin_1-Pad1)*%
%TO.C,J1*%
X217805000Y-89535000D03*
D11*
%TO.N,unconnected-(J1-Pin_2-Pad2)*%
X217805000Y-92075000D03*
%TO.N,unconnected-(J1-Pin_3-Pad3)*%
X217805000Y-94615000D03*
%TO.N,/SDA*%
X217805000Y-97155000D03*
%TO.N,/SCL*%
X217805000Y-99695000D03*
%TO.N,/GY_87_GND_SW*%
X217805000Y-102235000D03*
%TO.N,+3.3V*%
X217805000Y-104775000D03*
%TO.N,unconnected-(J1-Pin_8-Pad8)*%
X217805000Y-107315000D03*
%TD*%
D10*
%TO.N,+3.3V*%
%TO.C,SW2*%
X243256200Y-72014400D03*
D11*
%TO.N,Net-(SW2-B)*%
X243256200Y-69474400D03*
%TD*%
D12*
%TO.N,Net-(Q1-G)*%
X226441000Y-88519000D03*
X226822000Y-84582000D03*
%TO.N,/1PPS*%
X232765600Y-74218800D03*
X225094800Y-126644400D03*
%TO.N,/GPS_RESET*%
X241198400Y-116433600D03*
%TO.N,+3.3V*%
X239776000Y-91033600D03*
%TO.N,/GPS_TX*%
X230581200Y-117348000D03*
%TO.N,/GPS_RX*%
X232714800Y-110032800D03*
%TO.N,+3.3V*%
X217220800Y-75946000D03*
%TO.N,GND*%
X235305600Y-67208400D03*
%TO.N,+3.3V*%
X229565200Y-67513200D03*
%TO.N,GND*%
X224637600Y-94945200D03*
X222148400Y-100380800D03*
%TO.N,+3.3V*%
X227939600Y-97129600D03*
X232257600Y-94640400D03*
%TO.N,GND*%
X232460800Y-96824800D03*
X234492800Y-107289600D03*
X238099600Y-106832400D03*
X239725200Y-99872800D03*
X239776000Y-93929200D03*
%TO.N,+3.3V*%
X230124000Y-122326400D03*
X230073200Y-124917200D03*
%TO.N,GND*%
X220573600Y-122224800D03*
%TD*%
%TA.AperFunction,Conductor*%
%TO.N,+3.3V*%
G36*
X245822539Y-58940185D02*
G01*
X245868294Y-58992989D01*
X245879500Y-59044500D01*
X245879500Y-130820500D01*
X245859815Y-130887539D01*
X245807011Y-130933294D01*
X245755500Y-130944500D01*
X215254500Y-130944500D01*
X215187461Y-130924815D01*
X215141706Y-130872011D01*
X215130500Y-130820500D01*
X215130500Y-126565553D01*
X224294300Y-126565553D01*
X224294300Y-126723246D01*
X224325061Y-126877889D01*
X224325064Y-126877901D01*
X224385402Y-127023572D01*
X224385409Y-127023585D01*
X224473010Y-127154688D01*
X224473013Y-127154692D01*
X224584507Y-127266186D01*
X224584511Y-127266189D01*
X224715614Y-127353790D01*
X224715627Y-127353797D01*
X224861298Y-127414135D01*
X224861303Y-127414137D01*
X225015953Y-127444899D01*
X225015956Y-127444900D01*
X225015958Y-127444900D01*
X225173644Y-127444900D01*
X225173645Y-127444899D01*
X225328297Y-127414137D01*
X225473979Y-127353794D01*
X225605089Y-127266189D01*
X225716589Y-127154689D01*
X225804194Y-127023579D01*
X225864537Y-126877897D01*
X225895300Y-126723242D01*
X225895300Y-126565558D01*
X225895300Y-126565555D01*
X225895299Y-126565553D01*
X225864538Y-126410910D01*
X225864537Y-126410903D01*
X225864535Y-126410898D01*
X225804197Y-126265227D01*
X225804190Y-126265214D01*
X225716589Y-126134111D01*
X225716586Y-126134107D01*
X225605092Y-126022613D01*
X225605088Y-126022610D01*
X225473985Y-125935009D01*
X225473972Y-125935002D01*
X225328301Y-125874664D01*
X225328289Y-125874661D01*
X225173645Y-125843900D01*
X225173642Y-125843900D01*
X225015958Y-125843900D01*
X225015955Y-125843900D01*
X224861310Y-125874661D01*
X224861298Y-125874664D01*
X224715627Y-125935002D01*
X224715614Y-125935009D01*
X224584511Y-126022610D01*
X224584507Y-126022613D01*
X224473013Y-126134107D01*
X224473010Y-126134111D01*
X224385409Y-126265214D01*
X224385402Y-126265227D01*
X224325064Y-126410898D01*
X224325061Y-126410910D01*
X224294300Y-126565553D01*
X215130500Y-126565553D01*
X215130500Y-122145953D01*
X219773100Y-122145953D01*
X219773100Y-122303646D01*
X219803861Y-122458289D01*
X219803864Y-122458301D01*
X219864202Y-122603972D01*
X219864209Y-122603985D01*
X219951810Y-122735088D01*
X219951813Y-122735092D01*
X220063307Y-122846586D01*
X220063311Y-122846589D01*
X220194414Y-122934190D01*
X220194427Y-122934197D01*
X220340098Y-122994535D01*
X220340103Y-122994537D01*
X220494753Y-123025299D01*
X220494756Y-123025300D01*
X220494758Y-123025300D01*
X220652444Y-123025300D01*
X220652445Y-123025299D01*
X220807097Y-122994537D01*
X220952779Y-122934194D01*
X221083889Y-122846589D01*
X221195389Y-122735089D01*
X221282994Y-122603979D01*
X221343337Y-122458297D01*
X221374100Y-122303642D01*
X221374100Y-122145958D01*
X221374100Y-122145955D01*
X221374099Y-122145953D01*
X221343338Y-121991310D01*
X221343337Y-121991303D01*
X221343335Y-121991298D01*
X221282997Y-121845627D01*
X221282990Y-121845614D01*
X221195389Y-121714511D01*
X221195386Y-121714507D01*
X221083892Y-121603013D01*
X221083888Y-121603010D01*
X220952785Y-121515409D01*
X220952772Y-121515402D01*
X220807101Y-121455064D01*
X220807089Y-121455061D01*
X220652445Y-121424300D01*
X220652442Y-121424300D01*
X220494758Y-121424300D01*
X220494755Y-121424300D01*
X220340110Y-121455061D01*
X220340098Y-121455064D01*
X220194427Y-121515402D01*
X220194414Y-121515409D01*
X220063311Y-121603010D01*
X220063307Y-121603013D01*
X219951813Y-121714507D01*
X219951810Y-121714511D01*
X219864209Y-121845614D01*
X219864202Y-121845627D01*
X219803864Y-121991298D01*
X219803861Y-121991310D01*
X219773100Y-122145953D01*
X215130500Y-122145953D01*
X215130500Y-117269153D01*
X229780700Y-117269153D01*
X229780700Y-117426846D01*
X229811461Y-117581489D01*
X229811464Y-117581501D01*
X229871802Y-117727172D01*
X229871809Y-117727185D01*
X229959410Y-117858288D01*
X229959413Y-117858292D01*
X230070907Y-117969786D01*
X230070911Y-117969789D01*
X230202014Y-118057390D01*
X230202027Y-118057397D01*
X230347698Y-118117735D01*
X230347703Y-118117737D01*
X230502353Y-118148499D01*
X230502356Y-118148500D01*
X230502358Y-118148500D01*
X230660044Y-118148500D01*
X230660045Y-118148499D01*
X230814697Y-118117737D01*
X230960379Y-118057394D01*
X231091489Y-117969789D01*
X231202989Y-117858289D01*
X231290594Y-117727179D01*
X231350937Y-117581497D01*
X231381700Y-117426842D01*
X231381700Y-117269158D01*
X231381700Y-117269155D01*
X231381699Y-117269153D01*
X231350938Y-117114510D01*
X231350937Y-117114503D01*
X231350935Y-117114498D01*
X231290597Y-116968827D01*
X231290590Y-116968814D01*
X231202989Y-116837711D01*
X231202986Y-116837707D01*
X231091492Y-116726213D01*
X231091488Y-116726210D01*
X230960385Y-116638609D01*
X230960372Y-116638602D01*
X230814701Y-116578264D01*
X230814689Y-116578261D01*
X230660045Y-116547500D01*
X230660042Y-116547500D01*
X230502358Y-116547500D01*
X230502355Y-116547500D01*
X230347710Y-116578261D01*
X230347698Y-116578264D01*
X230202027Y-116638602D01*
X230202014Y-116638609D01*
X230070911Y-116726210D01*
X230070907Y-116726213D01*
X229959413Y-116837707D01*
X229959410Y-116837711D01*
X229871809Y-116968814D01*
X229871802Y-116968827D01*
X229811464Y-117114498D01*
X229811461Y-117114510D01*
X229780700Y-117269153D01*
X215130500Y-117269153D01*
X215130500Y-116354753D01*
X240397900Y-116354753D01*
X240397900Y-116512446D01*
X240428661Y-116667089D01*
X240428664Y-116667101D01*
X240489002Y-116812772D01*
X240489009Y-116812785D01*
X240576610Y-116943888D01*
X240576613Y-116943892D01*
X240688107Y-117055386D01*
X240688111Y-117055389D01*
X240819214Y-117142990D01*
X240819227Y-117142997D01*
X240964898Y-117203335D01*
X240964903Y-117203337D01*
X241119553Y-117234099D01*
X241119556Y-117234100D01*
X241119558Y-117234100D01*
X241277244Y-117234100D01*
X241277245Y-117234099D01*
X241431897Y-117203337D01*
X241577579Y-117142994D01*
X241708689Y-117055389D01*
X241820189Y-116943889D01*
X241907794Y-116812779D01*
X241968137Y-116667097D01*
X241998900Y-116512442D01*
X241998900Y-116354758D01*
X241998900Y-116354755D01*
X241998899Y-116354753D01*
X241968138Y-116200110D01*
X241968137Y-116200103D01*
X241968135Y-116200098D01*
X241907797Y-116054427D01*
X241907790Y-116054414D01*
X241820189Y-115923311D01*
X241820186Y-115923307D01*
X241708692Y-115811813D01*
X241708688Y-115811810D01*
X241577585Y-115724209D01*
X241577572Y-115724202D01*
X241431901Y-115663864D01*
X241431889Y-115663861D01*
X241277245Y-115633100D01*
X241277242Y-115633100D01*
X241119558Y-115633100D01*
X241119555Y-115633100D01*
X240964910Y-115663861D01*
X240964898Y-115663864D01*
X240819227Y-115724202D01*
X240819214Y-115724209D01*
X240688111Y-115811810D01*
X240688107Y-115811813D01*
X240576613Y-115923307D01*
X240576610Y-115923311D01*
X240489009Y-116054414D01*
X240489002Y-116054427D01*
X240428664Y-116200098D01*
X240428661Y-116200110D01*
X240397900Y-116354753D01*
X215130500Y-116354753D01*
X215130500Y-109953953D01*
X231914300Y-109953953D01*
X231914300Y-110111646D01*
X231945061Y-110266289D01*
X231945064Y-110266301D01*
X232005402Y-110411972D01*
X232005409Y-110411985D01*
X232093010Y-110543088D01*
X232093013Y-110543092D01*
X232204507Y-110654586D01*
X232204511Y-110654589D01*
X232335614Y-110742190D01*
X232335627Y-110742197D01*
X232481298Y-110802535D01*
X232481303Y-110802537D01*
X232635953Y-110833299D01*
X232635956Y-110833300D01*
X232635958Y-110833300D01*
X232793644Y-110833300D01*
X232793645Y-110833299D01*
X232948297Y-110802537D01*
X233093979Y-110742194D01*
X233225089Y-110654589D01*
X233336589Y-110543089D01*
X233424194Y-110411979D01*
X233484537Y-110266297D01*
X233515300Y-110111642D01*
X233515300Y-109953958D01*
X233515300Y-109953955D01*
X233515299Y-109953953D01*
X233484538Y-109799310D01*
X233484537Y-109799303D01*
X233484535Y-109799298D01*
X233424197Y-109653627D01*
X233424190Y-109653614D01*
X233336589Y-109522511D01*
X233336586Y-109522507D01*
X233225092Y-109411013D01*
X233225088Y-109411010D01*
X233093985Y-109323409D01*
X233093972Y-109323402D01*
X232948301Y-109263064D01*
X232948289Y-109263061D01*
X232793645Y-109232300D01*
X232793642Y-109232300D01*
X232635958Y-109232300D01*
X232635955Y-109232300D01*
X232481310Y-109263061D01*
X232481298Y-109263064D01*
X232335627Y-109323402D01*
X232335614Y-109323409D01*
X232204511Y-109411010D01*
X232204507Y-109411013D01*
X232093013Y-109522507D01*
X232093010Y-109522511D01*
X232005409Y-109653614D01*
X232005402Y-109653627D01*
X231945064Y-109799298D01*
X231945061Y-109799310D01*
X231914300Y-109953953D01*
X215130500Y-109953953D01*
X215130500Y-107208713D01*
X216454500Y-107208713D01*
X216454500Y-107421286D01*
X216483143Y-107602135D01*
X216487754Y-107631243D01*
X216542550Y-107799888D01*
X216553444Y-107833414D01*
X216649951Y-108022820D01*
X216774890Y-108194786D01*
X216925213Y-108345109D01*
X217097179Y-108470048D01*
X217097181Y-108470049D01*
X217097184Y-108470051D01*
X217286588Y-108566557D01*
X217488757Y-108632246D01*
X217698713Y-108665500D01*
X217698714Y-108665500D01*
X217911286Y-108665500D01*
X217911287Y-108665500D01*
X218121243Y-108632246D01*
X218323412Y-108566557D01*
X218512816Y-108470051D01*
X218534789Y-108454086D01*
X218684786Y-108345109D01*
X218684788Y-108345106D01*
X218684792Y-108345104D01*
X218835104Y-108194792D01*
X218835106Y-108194788D01*
X218835109Y-108194786D01*
X218960048Y-108022820D01*
X218960047Y-108022820D01*
X218960051Y-108022816D01*
X219056557Y-107833412D01*
X219122246Y-107631243D01*
X219155500Y-107421287D01*
X219155500Y-107210753D01*
X233692300Y-107210753D01*
X233692300Y-107368446D01*
X233723061Y-107523089D01*
X233723064Y-107523101D01*
X233783402Y-107668772D01*
X233783409Y-107668785D01*
X233871010Y-107799888D01*
X233871013Y-107799892D01*
X233982507Y-107911386D01*
X233982511Y-107911389D01*
X234113614Y-107998990D01*
X234113627Y-107998997D01*
X234171142Y-108022820D01*
X234259303Y-108059337D01*
X234413953Y-108090099D01*
X234413956Y-108090100D01*
X234413958Y-108090100D01*
X234571644Y-108090100D01*
X234571645Y-108090099D01*
X234726297Y-108059337D01*
X234871979Y-107998994D01*
X235003089Y-107911389D01*
X235114589Y-107799889D01*
X235202194Y-107668779D01*
X235262537Y-107523097D01*
X235293300Y-107368442D01*
X235293300Y-107210758D01*
X235293300Y-107210755D01*
X235293299Y-107210753D01*
X235264485Y-107065897D01*
X235262537Y-107056103D01*
X235202535Y-106911244D01*
X235202197Y-106910427D01*
X235202190Y-106910414D01*
X235139343Y-106816357D01*
X235114589Y-106779311D01*
X235114586Y-106779307D01*
X235088832Y-106753553D01*
X237299100Y-106753553D01*
X237299100Y-106911246D01*
X237329861Y-107065889D01*
X237329864Y-107065901D01*
X237390202Y-107211572D01*
X237390209Y-107211585D01*
X237477810Y-107342688D01*
X237477813Y-107342692D01*
X237589307Y-107454186D01*
X237589311Y-107454189D01*
X237720414Y-107541790D01*
X237720427Y-107541797D01*
X237866098Y-107602135D01*
X237866103Y-107602137D01*
X238012408Y-107631239D01*
X238020753Y-107632899D01*
X238020756Y-107632900D01*
X238020758Y-107632900D01*
X238178444Y-107632900D01*
X238178445Y-107632899D01*
X238333097Y-107602137D01*
X238478779Y-107541794D01*
X238609889Y-107454189D01*
X238721389Y-107342689D01*
X238808994Y-107211579D01*
X238869337Y-107065897D01*
X238900100Y-106911242D01*
X238900100Y-106753558D01*
X238900100Y-106753555D01*
X238900099Y-106753553D01*
X238883044Y-106667811D01*
X238869337Y-106598903D01*
X238861591Y-106580202D01*
X238808997Y-106453227D01*
X238808990Y-106453214D01*
X238721389Y-106322111D01*
X238721386Y-106322107D01*
X238609892Y-106210613D01*
X238609888Y-106210610D01*
X238478785Y-106123009D01*
X238478772Y-106123002D01*
X238333101Y-106062664D01*
X238333089Y-106062661D01*
X238178445Y-106031900D01*
X238178442Y-106031900D01*
X238020758Y-106031900D01*
X238020755Y-106031900D01*
X237866110Y-106062661D01*
X237866098Y-106062664D01*
X237720427Y-106123002D01*
X237720414Y-106123009D01*
X237589311Y-106210610D01*
X237589307Y-106210613D01*
X237477813Y-106322107D01*
X237477810Y-106322111D01*
X237390209Y-106453214D01*
X237390202Y-106453227D01*
X237329864Y-106598898D01*
X237329861Y-106598910D01*
X237299100Y-106753553D01*
X235088832Y-106753553D01*
X235003092Y-106667813D01*
X235003088Y-106667810D01*
X234871985Y-106580209D01*
X234871972Y-106580202D01*
X234726301Y-106519864D01*
X234726289Y-106519861D01*
X234571645Y-106489100D01*
X234571642Y-106489100D01*
X234413958Y-106489100D01*
X234413955Y-106489100D01*
X234259310Y-106519861D01*
X234259298Y-106519864D01*
X234113627Y-106580202D01*
X234113614Y-106580209D01*
X233982511Y-106667810D01*
X233982507Y-106667813D01*
X233871013Y-106779307D01*
X233871010Y-106779311D01*
X233783409Y-106910414D01*
X233783402Y-106910427D01*
X233723064Y-107056098D01*
X233723061Y-107056110D01*
X233692300Y-107210753D01*
X219155500Y-107210753D01*
X219155500Y-107208713D01*
X219122246Y-106998757D01*
X219056557Y-106796588D01*
X218960051Y-106607184D01*
X218960049Y-106607181D01*
X218960048Y-106607179D01*
X218835109Y-106435213D01*
X218684786Y-106284890D01*
X218512820Y-106159951D01*
X218323414Y-106063444D01*
X218323413Y-106063443D01*
X218323412Y-106063443D01*
X218121243Y-105997754D01*
X218121241Y-105997753D01*
X218121240Y-105997753D01*
X217959957Y-105972208D01*
X217911287Y-105964500D01*
X217698713Y-105964500D01*
X217650042Y-105972208D01*
X217488760Y-105997753D01*
X217286585Y-106063444D01*
X217097179Y-106159951D01*
X216925213Y-106284890D01*
X216774890Y-106435213D01*
X216649951Y-106607179D01*
X216553444Y-106796585D01*
X216487753Y-106998760D01*
X216454500Y-107208713D01*
X215130500Y-107208713D01*
X215130500Y-97040837D01*
X216354500Y-97040837D01*
X216354500Y-97269162D01*
X216390215Y-97494660D01*
X216460770Y-97711803D01*
X216564421Y-97915228D01*
X216698621Y-98099937D01*
X216860063Y-98261379D01*
X216860069Y-98261383D01*
X216947191Y-98324683D01*
X216989857Y-98380013D01*
X216995835Y-98449627D01*
X216963228Y-98511421D01*
X216947191Y-98525317D01*
X216860069Y-98588616D01*
X216860060Y-98588623D01*
X216698622Y-98750061D01*
X216564421Y-98934771D01*
X216460770Y-99138196D01*
X216390215Y-99355339D01*
X216354500Y-99580837D01*
X216354500Y-99809162D01*
X216390215Y-100034660D01*
X216460770Y-100251803D01*
X216527664Y-100383088D01*
X216564421Y-100455228D01*
X216698621Y-100639937D01*
X216860063Y-100801379D01*
X217032256Y-100926486D01*
X217074921Y-100981815D01*
X217080900Y-101051429D01*
X217048294Y-101113224D01*
X217032255Y-101127121D01*
X216925214Y-101204890D01*
X216925209Y-101204894D01*
X216774890Y-101355213D01*
X216649951Y-101527179D01*
X216553444Y-101716585D01*
X216487753Y-101918760D01*
X216454500Y-102128713D01*
X216454500Y-102341286D01*
X216487753Y-102551239D01*
X216553444Y-102753414D01*
X216649951Y-102942820D01*
X216774890Y-103114786D01*
X216925213Y-103265109D01*
X217097179Y-103390048D01*
X217097181Y-103390049D01*
X217097184Y-103390051D01*
X217286588Y-103486557D01*
X217488757Y-103552246D01*
X217698713Y-103585500D01*
X217698714Y-103585500D01*
X217911286Y-103585500D01*
X217911287Y-103585500D01*
X218121243Y-103552246D01*
X218323412Y-103486557D01*
X218512816Y-103390051D01*
X218534789Y-103374086D01*
X218684786Y-103265109D01*
X218684788Y-103265106D01*
X218684792Y-103265104D01*
X218835104Y-103114792D01*
X218835106Y-103114788D01*
X218835109Y-103114786D01*
X218960048Y-102942820D01*
X218960047Y-102942820D01*
X218960051Y-102942816D01*
X219056557Y-102753412D01*
X219122246Y-102551243D01*
X219155500Y-102341287D01*
X219155500Y-102128713D01*
X219122246Y-101918757D01*
X219057060Y-101718135D01*
X241219500Y-101718135D01*
X241219500Y-103513870D01*
X241219501Y-103513876D01*
X241225908Y-103573483D01*
X241276202Y-103708328D01*
X241276206Y-103708335D01*
X241362452Y-103823544D01*
X241362455Y-103823547D01*
X241477664Y-103909793D01*
X241477671Y-103909797D01*
X241609082Y-103958810D01*
X241665016Y-104000681D01*
X241689433Y-104066145D01*
X241674582Y-104134418D01*
X241653431Y-104162673D01*
X241539889Y-104276215D01*
X241414951Y-104448179D01*
X241318444Y-104637585D01*
X241252753Y-104839760D01*
X241219500Y-105049713D01*
X241219500Y-105262286D01*
X241252753Y-105472239D01*
X241318444Y-105674414D01*
X241414951Y-105863820D01*
X241539890Y-106035786D01*
X241690213Y-106186109D01*
X241862179Y-106311048D01*
X241862181Y-106311049D01*
X241862184Y-106311051D01*
X242051588Y-106407557D01*
X242253757Y-106473246D01*
X242463713Y-106506500D01*
X242463714Y-106506500D01*
X242676286Y-106506500D01*
X242676287Y-106506500D01*
X242886243Y-106473246D01*
X243088412Y-106407557D01*
X243277816Y-106311051D01*
X243313824Y-106284890D01*
X243449786Y-106186109D01*
X243449788Y-106186106D01*
X243449792Y-106186104D01*
X243600104Y-106035792D01*
X243600106Y-106035788D01*
X243600109Y-106035786D01*
X243725048Y-105863820D01*
X243725047Y-105863820D01*
X243725051Y-105863816D01*
X243821557Y-105674412D01*
X243887246Y-105472243D01*
X243920500Y-105262287D01*
X243920500Y-105049713D01*
X243887246Y-104839757D01*
X243821557Y-104637588D01*
X243725051Y-104448184D01*
X243725049Y-104448181D01*
X243725048Y-104448179D01*
X243600109Y-104276213D01*
X243486569Y-104162673D01*
X243453084Y-104101350D01*
X243458068Y-104031658D01*
X243499940Y-103975725D01*
X243530915Y-103958810D01*
X243662331Y-103909796D01*
X243777546Y-103823546D01*
X243863796Y-103708331D01*
X243914091Y-103573483D01*
X243920500Y-103513873D01*
X243920499Y-101718128D01*
X243914091Y-101658517D01*
X243863796Y-101523669D01*
X243863795Y-101523668D01*
X243863793Y-101523664D01*
X243777547Y-101408455D01*
X243777544Y-101408452D01*
X243662335Y-101322206D01*
X243662328Y-101322202D01*
X243527482Y-101271908D01*
X243527483Y-101271908D01*
X243467883Y-101265501D01*
X243467881Y-101265500D01*
X243467873Y-101265500D01*
X243467864Y-101265500D01*
X241672129Y-101265500D01*
X241672123Y-101265501D01*
X241612516Y-101271908D01*
X241477671Y-101322202D01*
X241477664Y-101322206D01*
X241362455Y-101408452D01*
X241362452Y-101408455D01*
X241276206Y-101523664D01*
X241276202Y-101523671D01*
X241225908Y-101658517D01*
X241219666Y-101716585D01*
X241219501Y-101718123D01*
X241219500Y-101718135D01*
X219057060Y-101718135D01*
X219056557Y-101716588D01*
X218960051Y-101527184D01*
X218960049Y-101527181D01*
X218960048Y-101527179D01*
X218835109Y-101355213D01*
X218684792Y-101204896D01*
X218609974Y-101150538D01*
X218577743Y-101127121D01*
X218535078Y-101071792D01*
X218529099Y-101002178D01*
X218561704Y-100940383D01*
X218577734Y-100926492D01*
X218749937Y-100801379D01*
X218911379Y-100639937D01*
X219045579Y-100455228D01*
X219123676Y-100301953D01*
X221347900Y-100301953D01*
X221347900Y-100459646D01*
X221378661Y-100614289D01*
X221378664Y-100614301D01*
X221439002Y-100759972D01*
X221439009Y-100759985D01*
X221526610Y-100891088D01*
X221526613Y-100891092D01*
X221638107Y-101002586D01*
X221638111Y-101002589D01*
X221769214Y-101090190D01*
X221769227Y-101090197D01*
X221914898Y-101150535D01*
X221914903Y-101150537D01*
X222069553Y-101181299D01*
X222069556Y-101181300D01*
X222069558Y-101181300D01*
X222227244Y-101181300D01*
X222227245Y-101181299D01*
X222381897Y-101150537D01*
X222527579Y-101090194D01*
X222658689Y-101002589D01*
X222770189Y-100891089D01*
X222857794Y-100759979D01*
X222918137Y-100614297D01*
X222948900Y-100459642D01*
X222948900Y-100301958D01*
X222948900Y-100301955D01*
X222948899Y-100301953D01*
X222918138Y-100147310D01*
X222918137Y-100147303D01*
X222901149Y-100106289D01*
X222857797Y-100001627D01*
X222857790Y-100001614D01*
X222770192Y-99870516D01*
X222770189Y-99870511D01*
X222770184Y-99870506D01*
X222770181Y-99870502D01*
X222693632Y-99793953D01*
X238924700Y-99793953D01*
X238924700Y-99951646D01*
X238955461Y-100106289D01*
X238955464Y-100106301D01*
X239015802Y-100251972D01*
X239015809Y-100251985D01*
X239103410Y-100383088D01*
X239103413Y-100383092D01*
X239214907Y-100494586D01*
X239214911Y-100494589D01*
X239346014Y-100582190D01*
X239346027Y-100582197D01*
X239485426Y-100639937D01*
X239491703Y-100642537D01*
X239646353Y-100673299D01*
X239646356Y-100673300D01*
X239646358Y-100673300D01*
X239804044Y-100673300D01*
X239804045Y-100673299D01*
X239958697Y-100642537D01*
X240104379Y-100582194D01*
X240235489Y-100494589D01*
X240346989Y-100383089D01*
X240434594Y-100251979D01*
X240494937Y-100106297D01*
X240525700Y-99951642D01*
X240525700Y-99793958D01*
X240525700Y-99793955D01*
X240525699Y-99793953D01*
X240518749Y-99759013D01*
X240494937Y-99639303D01*
X240483239Y-99611061D01*
X240434597Y-99493627D01*
X240434590Y-99493614D01*
X240346989Y-99362511D01*
X240346986Y-99362507D01*
X240235492Y-99251013D01*
X240235488Y-99251010D01*
X240104385Y-99163409D01*
X240104372Y-99163402D01*
X239958701Y-99103064D01*
X239958689Y-99103061D01*
X239804045Y-99072300D01*
X239804042Y-99072300D01*
X239646358Y-99072300D01*
X239646355Y-99072300D01*
X239491710Y-99103061D01*
X239491698Y-99103064D01*
X239346027Y-99163402D01*
X239346014Y-99163409D01*
X239214911Y-99251010D01*
X239214907Y-99251013D01*
X239103413Y-99362507D01*
X239103410Y-99362511D01*
X239015809Y-99493614D01*
X239015802Y-99493627D01*
X238955464Y-99639298D01*
X238955461Y-99639310D01*
X238924700Y-99793953D01*
X222693632Y-99793953D01*
X222658692Y-99759013D01*
X222658688Y-99759010D01*
X222527585Y-99671409D01*
X222527572Y-99671402D01*
X222381901Y-99611064D01*
X222381889Y-99611061D01*
X222227245Y-99580300D01*
X222227242Y-99580300D01*
X222069558Y-99580300D01*
X222069555Y-99580300D01*
X221914910Y-99611061D01*
X221914898Y-99611064D01*
X221769227Y-99671402D01*
X221769214Y-99671409D01*
X221638111Y-99759010D01*
X221638107Y-99759013D01*
X221526613Y-99870507D01*
X221526610Y-99870511D01*
X221439009Y-100001614D01*
X221439002Y-100001627D01*
X221378664Y-100147298D01*
X221378661Y-100147310D01*
X221347900Y-100301953D01*
X219123676Y-100301953D01*
X219149231Y-100251799D01*
X219219784Y-100034660D01*
X219232932Y-99951646D01*
X219255500Y-99809162D01*
X219255500Y-99580837D01*
X219219784Y-99355339D01*
X219185885Y-99251010D01*
X219149231Y-99138201D01*
X219149229Y-99138198D01*
X219149229Y-99138196D01*
X219045578Y-98934771D01*
X218911379Y-98750063D01*
X218749937Y-98588621D01*
X218662807Y-98525317D01*
X218620143Y-98469988D01*
X218614164Y-98400374D01*
X218646770Y-98338579D01*
X218662807Y-98324683D01*
X218749937Y-98261379D01*
X218911379Y-98099937D01*
X219045579Y-97915228D01*
X219149231Y-97711799D01*
X219219784Y-97494660D01*
X219227398Y-97446586D01*
X219255500Y-97269162D01*
X219255500Y-97040837D01*
X219233770Y-96903642D01*
X219219784Y-96815340D01*
X219219783Y-96815336D01*
X219219783Y-96815335D01*
X219207712Y-96778184D01*
X219197239Y-96745953D01*
X231660300Y-96745953D01*
X231660300Y-96903646D01*
X231691061Y-97058289D01*
X231691064Y-97058301D01*
X231751402Y-97203972D01*
X231751409Y-97203985D01*
X231839010Y-97335088D01*
X231839013Y-97335092D01*
X231950507Y-97446586D01*
X231950511Y-97446589D01*
X232081614Y-97534190D01*
X232081627Y-97534197D01*
X232227298Y-97594535D01*
X232227303Y-97594537D01*
X232381953Y-97625299D01*
X232381956Y-97625300D01*
X232381958Y-97625300D01*
X232539644Y-97625300D01*
X232539645Y-97625299D01*
X232694297Y-97594537D01*
X232839979Y-97534194D01*
X232971089Y-97446589D01*
X233082589Y-97335089D01*
X233170194Y-97203979D01*
X233230537Y-97058297D01*
X233261300Y-96903642D01*
X233261300Y-96745958D01*
X233261300Y-96745955D01*
X233261299Y-96745953D01*
X233230538Y-96591310D01*
X233230537Y-96591303D01*
X233230535Y-96591298D01*
X233170197Y-96445627D01*
X233170190Y-96445614D01*
X233082589Y-96314511D01*
X233082586Y-96314507D01*
X232971092Y-96203013D01*
X232971088Y-96203010D01*
X232839985Y-96115409D01*
X232839972Y-96115402D01*
X232694301Y-96055064D01*
X232694289Y-96055061D01*
X232539645Y-96024300D01*
X232539642Y-96024300D01*
X232381958Y-96024300D01*
X232381955Y-96024300D01*
X232227310Y-96055061D01*
X232227298Y-96055064D01*
X232081627Y-96115402D01*
X232081614Y-96115409D01*
X231950511Y-96203010D01*
X231950507Y-96203013D01*
X231839013Y-96314507D01*
X231839010Y-96314511D01*
X231751409Y-96445614D01*
X231751402Y-96445627D01*
X231691064Y-96591298D01*
X231691061Y-96591310D01*
X231660300Y-96745953D01*
X219197239Y-96745953D01*
X219149229Y-96598196D01*
X219045578Y-96394771D01*
X218911379Y-96210063D01*
X218749937Y-96048621D01*
X218577742Y-95923513D01*
X218535078Y-95868184D01*
X218529099Y-95798570D01*
X218561705Y-95736775D01*
X218577740Y-95722881D01*
X218684792Y-95645104D01*
X218835104Y-95494792D01*
X218835106Y-95494788D01*
X218835109Y-95494786D01*
X218958915Y-95324379D01*
X218960051Y-95322816D01*
X219056557Y-95133412D01*
X219122246Y-94931243D01*
X219132524Y-94866353D01*
X223837100Y-94866353D01*
X223837100Y-95024046D01*
X223867861Y-95178689D01*
X223867864Y-95178701D01*
X223928202Y-95324372D01*
X223928209Y-95324385D01*
X224015810Y-95455488D01*
X224015813Y-95455492D01*
X224127307Y-95566986D01*
X224127311Y-95566989D01*
X224258414Y-95654590D01*
X224258427Y-95654597D01*
X224404098Y-95714935D01*
X224404103Y-95714937D01*
X224558753Y-95745699D01*
X224558756Y-95745700D01*
X224558758Y-95745700D01*
X224716444Y-95745700D01*
X224716445Y-95745699D01*
X224871097Y-95714937D01*
X225016779Y-95654594D01*
X225147889Y-95566989D01*
X225259389Y-95455489D01*
X225346994Y-95324379D01*
X225347642Y-95322816D01*
X225407335Y-95178701D01*
X225407337Y-95178697D01*
X225438100Y-95024042D01*
X225438100Y-94866358D01*
X225438100Y-94866355D01*
X225438099Y-94866353D01*
X225410917Y-94729700D01*
X225407337Y-94711703D01*
X225377056Y-94638597D01*
X225346997Y-94566027D01*
X225346990Y-94566014D01*
X225259389Y-94434911D01*
X225259386Y-94434907D01*
X225147892Y-94323413D01*
X225147888Y-94323410D01*
X225016785Y-94235809D01*
X225016772Y-94235802D01*
X224871101Y-94175464D01*
X224871089Y-94175461D01*
X224716445Y-94144700D01*
X224716442Y-94144700D01*
X224558758Y-94144700D01*
X224558755Y-94144700D01*
X224404110Y-94175461D01*
X224404098Y-94175464D01*
X224258427Y-94235802D01*
X224258414Y-94235809D01*
X224127311Y-94323410D01*
X224127307Y-94323413D01*
X224015813Y-94434907D01*
X224015810Y-94434911D01*
X223928209Y-94566014D01*
X223928202Y-94566027D01*
X223867864Y-94711698D01*
X223867861Y-94711710D01*
X223837100Y-94866353D01*
X219132524Y-94866353D01*
X219155500Y-94721287D01*
X219155500Y-94508713D01*
X219122246Y-94298757D01*
X219056557Y-94096588D01*
X218960051Y-93907184D01*
X218960049Y-93907181D01*
X218960048Y-93907179D01*
X218918762Y-93850353D01*
X238975500Y-93850353D01*
X238975500Y-94008046D01*
X239006261Y-94162689D01*
X239006264Y-94162701D01*
X239066602Y-94308372D01*
X239066609Y-94308385D01*
X239154210Y-94439488D01*
X239154213Y-94439492D01*
X239265707Y-94550986D01*
X239265711Y-94550989D01*
X239396814Y-94638590D01*
X239396827Y-94638597D01*
X239542498Y-94698935D01*
X239542503Y-94698937D01*
X239697153Y-94729699D01*
X239697156Y-94729700D01*
X239697158Y-94729700D01*
X239854844Y-94729700D01*
X239854845Y-94729699D01*
X240009497Y-94698937D01*
X240155179Y-94638594D01*
X240286289Y-94550989D01*
X240397789Y-94439489D01*
X240485394Y-94308379D01*
X240545737Y-94162697D01*
X240576500Y-94008042D01*
X240576500Y-93850358D01*
X240576500Y-93850355D01*
X240576499Y-93850353D01*
X240545738Y-93695710D01*
X240545737Y-93695703D01*
X240499840Y-93584896D01*
X240485397Y-93550027D01*
X240485390Y-93550014D01*
X240397789Y-93418911D01*
X240397786Y-93418907D01*
X240286292Y-93307413D01*
X240286288Y-93307410D01*
X240155185Y-93219809D01*
X240155172Y-93219802D01*
X240009501Y-93159464D01*
X240009489Y-93159461D01*
X239854845Y-93128700D01*
X239854842Y-93128700D01*
X239697158Y-93128700D01*
X239697155Y-93128700D01*
X239542510Y-93159461D01*
X239542498Y-93159464D01*
X239396827Y-93219802D01*
X239396814Y-93219809D01*
X239265711Y-93307410D01*
X239265707Y-93307413D01*
X239154213Y-93418907D01*
X239154210Y-93418911D01*
X239066609Y-93550014D01*
X239066602Y-93550027D01*
X239006264Y-93695698D01*
X239006261Y-93695710D01*
X238975500Y-93850353D01*
X218918762Y-93850353D01*
X218835109Y-93735213D01*
X218684786Y-93584890D01*
X218512820Y-93459951D01*
X218512115Y-93459591D01*
X218504054Y-93455485D01*
X218453259Y-93407512D01*
X218436463Y-93339692D01*
X218458999Y-93273556D01*
X218504054Y-93234515D01*
X218512816Y-93230051D01*
X218534789Y-93214086D01*
X218684786Y-93105109D01*
X218684788Y-93105106D01*
X218684792Y-93105104D01*
X218835104Y-92954792D01*
X218835106Y-92954788D01*
X218835109Y-92954786D01*
X218960048Y-92782820D01*
X218960047Y-92782820D01*
X218960051Y-92782816D01*
X219056557Y-92593412D01*
X219122246Y-92391243D01*
X219155500Y-92181287D01*
X219155500Y-91968713D01*
X219122246Y-91758757D01*
X219056557Y-91556588D01*
X218960051Y-91367184D01*
X218960049Y-91367181D01*
X218960048Y-91367179D01*
X218835109Y-91195213D01*
X218721569Y-91081673D01*
X218688084Y-91020350D01*
X218693068Y-90950658D01*
X218734940Y-90894725D01*
X218765915Y-90877810D01*
X218897331Y-90828796D01*
X219012546Y-90742546D01*
X219098796Y-90627331D01*
X219149091Y-90492483D01*
X219155500Y-90432873D01*
X219155499Y-88637128D01*
X219149091Y-88577517D01*
X219149091Y-88577516D01*
X219111750Y-88477399D01*
X219098797Y-88442671D01*
X219098793Y-88442664D01*
X219096913Y-88440153D01*
X225640500Y-88440153D01*
X225640500Y-88597846D01*
X225671261Y-88752489D01*
X225671264Y-88752501D01*
X225731602Y-88898172D01*
X225731609Y-88898185D01*
X225819210Y-89029288D01*
X225819213Y-89029292D01*
X225930707Y-89140786D01*
X225930711Y-89140789D01*
X226061814Y-89228390D01*
X226061827Y-89228397D01*
X226207498Y-89288735D01*
X226207503Y-89288737D01*
X226362153Y-89319499D01*
X226362156Y-89319500D01*
X226362158Y-89319500D01*
X226519844Y-89319500D01*
X226519845Y-89319499D01*
X226674497Y-89288737D01*
X226820179Y-89228394D01*
X226951289Y-89140789D01*
X227062789Y-89029289D01*
X227150394Y-88898179D01*
X227210737Y-88752497D01*
X227241500Y-88597842D01*
X227241500Y-88440158D01*
X227241500Y-88440155D01*
X227241499Y-88440153D01*
X227219082Y-88327455D01*
X227210737Y-88285503D01*
X227192387Y-88241202D01*
X227150397Y-88139827D01*
X227150390Y-88139814D01*
X227062789Y-88008711D01*
X227062786Y-88008707D01*
X226951292Y-87897213D01*
X226951288Y-87897210D01*
X226820185Y-87809609D01*
X226820172Y-87809602D01*
X226674501Y-87749264D01*
X226674489Y-87749261D01*
X226519845Y-87718500D01*
X226519842Y-87718500D01*
X226362158Y-87718500D01*
X226362155Y-87718500D01*
X226207510Y-87749261D01*
X226207498Y-87749264D01*
X226061827Y-87809602D01*
X226061814Y-87809609D01*
X225930711Y-87897210D01*
X225930707Y-87897213D01*
X225819213Y-88008707D01*
X225819210Y-88008711D01*
X225731609Y-88139814D01*
X225731602Y-88139827D01*
X225671264Y-88285498D01*
X225671261Y-88285510D01*
X225640500Y-88440153D01*
X219096913Y-88440153D01*
X219012547Y-88327455D01*
X219012544Y-88327452D01*
X218897335Y-88241206D01*
X218897328Y-88241202D01*
X218762482Y-88190908D01*
X218762483Y-88190908D01*
X218702883Y-88184501D01*
X218702881Y-88184500D01*
X218702873Y-88184500D01*
X218702864Y-88184500D01*
X216907129Y-88184500D01*
X216907123Y-88184501D01*
X216847516Y-88190908D01*
X216712671Y-88241202D01*
X216712664Y-88241206D01*
X216597455Y-88327452D01*
X216597452Y-88327455D01*
X216511206Y-88442664D01*
X216511202Y-88442671D01*
X216460908Y-88577517D01*
X216458723Y-88597846D01*
X216454501Y-88637123D01*
X216454500Y-88637135D01*
X216454500Y-90432870D01*
X216454501Y-90432876D01*
X216460908Y-90492483D01*
X216511202Y-90627328D01*
X216511206Y-90627335D01*
X216597452Y-90742544D01*
X216597455Y-90742547D01*
X216712664Y-90828793D01*
X216712671Y-90828797D01*
X216844082Y-90877810D01*
X216900016Y-90919681D01*
X216924433Y-90985145D01*
X216909582Y-91053418D01*
X216888431Y-91081673D01*
X216774889Y-91195215D01*
X216649951Y-91367179D01*
X216553444Y-91556585D01*
X216487753Y-91758760D01*
X216454500Y-91968713D01*
X216454500Y-92181286D01*
X216487753Y-92391239D01*
X216553444Y-92593414D01*
X216649951Y-92782820D01*
X216774890Y-92954786D01*
X216925213Y-93105109D01*
X217097182Y-93230050D01*
X217105946Y-93234516D01*
X217156742Y-93282491D01*
X217173536Y-93350312D01*
X217150998Y-93416447D01*
X217105946Y-93455484D01*
X217097182Y-93459949D01*
X216925213Y-93584890D01*
X216774890Y-93735213D01*
X216649951Y-93907179D01*
X216553444Y-94096585D01*
X216487753Y-94298760D01*
X216454500Y-94508713D01*
X216454500Y-94721287D01*
X216464534Y-94784644D01*
X216487753Y-94931239D01*
X216487753Y-94931241D01*
X216487754Y-94931243D01*
X216517906Y-95024042D01*
X216553444Y-95133414D01*
X216649951Y-95322820D01*
X216774890Y-95494786D01*
X216774896Y-95494792D01*
X216925208Y-95645104D01*
X217032256Y-95722878D01*
X217074921Y-95778207D01*
X217080900Y-95847820D01*
X217048295Y-95909616D01*
X217032256Y-95923514D01*
X216860061Y-96048622D01*
X216698622Y-96210061D01*
X216564421Y-96394771D01*
X216460770Y-96598196D01*
X216390215Y-96815339D01*
X216354500Y-97040837D01*
X215130500Y-97040837D01*
X215130500Y-84503153D01*
X226021500Y-84503153D01*
X226021500Y-84660846D01*
X226052261Y-84815489D01*
X226052264Y-84815501D01*
X226112602Y-84961172D01*
X226112609Y-84961185D01*
X226200210Y-85092288D01*
X226200213Y-85092292D01*
X226311707Y-85203786D01*
X226311711Y-85203789D01*
X226442814Y-85291390D01*
X226442827Y-85291397D01*
X226588498Y-85351735D01*
X226588503Y-85351737D01*
X226743153Y-85382499D01*
X226743156Y-85382500D01*
X226743158Y-85382500D01*
X226900844Y-85382500D01*
X226900845Y-85382499D01*
X227055497Y-85351737D01*
X227201179Y-85291394D01*
X227332289Y-85203789D01*
X227443789Y-85092289D01*
X227531394Y-84961179D01*
X227591737Y-84815497D01*
X227622500Y-84660842D01*
X227622500Y-84503158D01*
X227622500Y-84503155D01*
X227622499Y-84503153D01*
X227591738Y-84348510D01*
X227591737Y-84348503D01*
X227591735Y-84348498D01*
X227531397Y-84202827D01*
X227531390Y-84202814D01*
X227443789Y-84071711D01*
X227443786Y-84071707D01*
X227332292Y-83960213D01*
X227332288Y-83960210D01*
X227201185Y-83872609D01*
X227201172Y-83872602D01*
X227055501Y-83812264D01*
X227055489Y-83812261D01*
X226900845Y-83781500D01*
X226900842Y-83781500D01*
X226743158Y-83781500D01*
X226743155Y-83781500D01*
X226588510Y-83812261D01*
X226588498Y-83812264D01*
X226442827Y-83872602D01*
X226442814Y-83872609D01*
X226311711Y-83960210D01*
X226311707Y-83960213D01*
X226200213Y-84071707D01*
X226200210Y-84071711D01*
X226112609Y-84202814D01*
X226112602Y-84202827D01*
X226052264Y-84348498D01*
X226052261Y-84348510D01*
X226021500Y-84503153D01*
X215130500Y-84503153D01*
X215130500Y-81800904D01*
X220739900Y-81800904D01*
X220739900Y-81978295D01*
X220774503Y-82152258D01*
X220774506Y-82152267D01*
X220842383Y-82316140D01*
X220842390Y-82316153D01*
X220940935Y-82463634D01*
X220940938Y-82463638D01*
X221066361Y-82589061D01*
X221066365Y-82589064D01*
X221213846Y-82687609D01*
X221213859Y-82687616D01*
X221336763Y-82738523D01*
X221377734Y-82755494D01*
X221377736Y-82755494D01*
X221377741Y-82755496D01*
X221551704Y-82790099D01*
X221551707Y-82790100D01*
X221551709Y-82790100D01*
X221729093Y-82790100D01*
X221729094Y-82790099D01*
X221798830Y-82776228D01*
X221903058Y-82755496D01*
X221903061Y-82755494D01*
X221903066Y-82755494D01*
X222066947Y-82687613D01*
X222214435Y-82589064D01*
X222339864Y-82463635D01*
X222438413Y-82316147D01*
X222506294Y-82152266D01*
X222538940Y-81988143D01*
X238419899Y-81988143D01*
X238458347Y-82181429D01*
X238458350Y-82181439D01*
X238533764Y-82363507D01*
X238533771Y-82363520D01*
X238643260Y-82527381D01*
X238643263Y-82527385D01*
X238782614Y-82666736D01*
X238782618Y-82666739D01*
X238946479Y-82776228D01*
X238946492Y-82776235D01*
X239128560Y-82851649D01*
X239128565Y-82851651D01*
X239128569Y-82851651D01*
X239128570Y-82851652D01*
X239321856Y-82890100D01*
X239321859Y-82890100D01*
X239518943Y-82890100D01*
X239648982Y-82864232D01*
X239712235Y-82851651D01*
X239894314Y-82776232D01*
X240058182Y-82666739D01*
X240197539Y-82527382D01*
X240307032Y-82363514D01*
X240382451Y-82181435D01*
X240420900Y-81988141D01*
X240420900Y-81791059D01*
X240420900Y-81791056D01*
X240382452Y-81597770D01*
X240382451Y-81597769D01*
X240382451Y-81597765D01*
X240382449Y-81597760D01*
X240307035Y-81415692D01*
X240307028Y-81415679D01*
X240197539Y-81251818D01*
X240197536Y-81251814D01*
X240058185Y-81112463D01*
X240058181Y-81112460D01*
X239894320Y-81002971D01*
X239894307Y-81002964D01*
X239712239Y-80927550D01*
X239712229Y-80927547D01*
X239518943Y-80889100D01*
X239518941Y-80889100D01*
X239321859Y-80889100D01*
X239321857Y-80889100D01*
X239128570Y-80927547D01*
X239128560Y-80927550D01*
X238946492Y-81002964D01*
X238946479Y-81002971D01*
X238782618Y-81112460D01*
X238782614Y-81112463D01*
X238643263Y-81251814D01*
X238643260Y-81251818D01*
X238533771Y-81415679D01*
X238533764Y-81415692D01*
X238458350Y-81597760D01*
X238458347Y-81597770D01*
X238419900Y-81791056D01*
X238419900Y-81791059D01*
X238419900Y-81988141D01*
X238419900Y-81988143D01*
X238419899Y-81988143D01*
X222538940Y-81988143D01*
X222540900Y-81978291D01*
X222540900Y-81800909D01*
X222540900Y-81800906D01*
X222540899Y-81800904D01*
X222506296Y-81626941D01*
X222506293Y-81626932D01*
X222438416Y-81463059D01*
X222438409Y-81463046D01*
X222339864Y-81315565D01*
X222339861Y-81315561D01*
X222214438Y-81190138D01*
X222214434Y-81190135D01*
X222066953Y-81091590D01*
X222066940Y-81091583D01*
X221903067Y-81023706D01*
X221903058Y-81023703D01*
X221729094Y-80989100D01*
X221729091Y-80989100D01*
X221551709Y-80989100D01*
X221551706Y-80989100D01*
X221377741Y-81023703D01*
X221377732Y-81023706D01*
X221213859Y-81091583D01*
X221213846Y-81091590D01*
X221066365Y-81190135D01*
X221066361Y-81190138D01*
X220940938Y-81315561D01*
X220940935Y-81315565D01*
X220842390Y-81463046D01*
X220842383Y-81463059D01*
X220774506Y-81626932D01*
X220774503Y-81626941D01*
X220739900Y-81800904D01*
X215130500Y-81800904D01*
X215130500Y-79260904D01*
X220739900Y-79260904D01*
X220739900Y-79438295D01*
X220774503Y-79612258D01*
X220774506Y-79612267D01*
X220842383Y-79776140D01*
X220842390Y-79776153D01*
X220940935Y-79923634D01*
X220940938Y-79923638D01*
X221066361Y-80049061D01*
X221066365Y-80049064D01*
X221213846Y-80147609D01*
X221213859Y-80147616D01*
X221336763Y-80198523D01*
X221377734Y-80215494D01*
X221377736Y-80215494D01*
X221377741Y-80215496D01*
X221551704Y-80250099D01*
X221551707Y-80250100D01*
X221551709Y-80250100D01*
X221729093Y-80250100D01*
X221729094Y-80250099D01*
X221787082Y-80238564D01*
X221903058Y-80215496D01*
X221903061Y-80215494D01*
X221903066Y-80215494D01*
X222066947Y-80147613D01*
X222214435Y-80049064D01*
X222339864Y-79923635D01*
X222438413Y-79776147D01*
X222506294Y-79612266D01*
X222540900Y-79438291D01*
X222540900Y-79260909D01*
X222540900Y-79260906D01*
X222540899Y-79260904D01*
X238519900Y-79260904D01*
X238519900Y-79438295D01*
X238554503Y-79612258D01*
X238554506Y-79612267D01*
X238622383Y-79776140D01*
X238622390Y-79776153D01*
X238720935Y-79923634D01*
X238720938Y-79923638D01*
X238846361Y-80049061D01*
X238846365Y-80049064D01*
X238993846Y-80147609D01*
X238993859Y-80147616D01*
X239116763Y-80198523D01*
X239157734Y-80215494D01*
X239157736Y-80215494D01*
X239157741Y-80215496D01*
X239331704Y-80250099D01*
X239331707Y-80250100D01*
X239331709Y-80250100D01*
X239509093Y-80250100D01*
X239509094Y-80250099D01*
X239567082Y-80238564D01*
X239683058Y-80215496D01*
X239683061Y-80215494D01*
X239683066Y-80215494D01*
X239846947Y-80147613D01*
X239994435Y-80049064D01*
X240119864Y-79923635D01*
X240218413Y-79776147D01*
X240286294Y-79612266D01*
X240320900Y-79438291D01*
X240320900Y-79260909D01*
X240320900Y-79260906D01*
X240320899Y-79260904D01*
X240286296Y-79086941D01*
X240286293Y-79086932D01*
X240218416Y-78923059D01*
X240218409Y-78923046D01*
X240119864Y-78775565D01*
X240119861Y-78775561D01*
X239994438Y-78650138D01*
X239994434Y-78650135D01*
X239846953Y-78551590D01*
X239846940Y-78551583D01*
X239683067Y-78483706D01*
X239683058Y-78483703D01*
X239509094Y-78449100D01*
X239509091Y-78449100D01*
X239331709Y-78449100D01*
X239331706Y-78449100D01*
X239157741Y-78483703D01*
X239157732Y-78483706D01*
X238993859Y-78551583D01*
X238993846Y-78551590D01*
X238846365Y-78650135D01*
X238846361Y-78650138D01*
X238720938Y-78775561D01*
X238720935Y-78775565D01*
X238622390Y-78923046D01*
X238622383Y-78923059D01*
X238554506Y-79086932D01*
X238554503Y-79086941D01*
X238519900Y-79260904D01*
X222540899Y-79260904D01*
X222506296Y-79086941D01*
X222506293Y-79086932D01*
X222438416Y-78923059D01*
X222438409Y-78923046D01*
X222339864Y-78775565D01*
X222339861Y-78775561D01*
X222214438Y-78650138D01*
X222214434Y-78650135D01*
X222066953Y-78551590D01*
X222066940Y-78551583D01*
X221903067Y-78483706D01*
X221903058Y-78483703D01*
X221729094Y-78449100D01*
X221729091Y-78449100D01*
X221551709Y-78449100D01*
X221551706Y-78449100D01*
X221377741Y-78483703D01*
X221377732Y-78483706D01*
X221213859Y-78551583D01*
X221213846Y-78551590D01*
X221066365Y-78650135D01*
X221066361Y-78650138D01*
X220940938Y-78775561D01*
X220940935Y-78775565D01*
X220842390Y-78923046D01*
X220842383Y-78923059D01*
X220774506Y-79086932D01*
X220774503Y-79086941D01*
X220739900Y-79260904D01*
X215130500Y-79260904D01*
X215130500Y-76720904D01*
X220739900Y-76720904D01*
X220739900Y-76898295D01*
X220774503Y-77072258D01*
X220774506Y-77072267D01*
X220842383Y-77236140D01*
X220842390Y-77236153D01*
X220940935Y-77383634D01*
X220940938Y-77383638D01*
X221066361Y-77509061D01*
X221066365Y-77509064D01*
X221213846Y-77607609D01*
X221213859Y-77607616D01*
X221336763Y-77658523D01*
X221377734Y-77675494D01*
X221377736Y-77675494D01*
X221377741Y-77675496D01*
X221551704Y-77710099D01*
X221551707Y-77710100D01*
X221551709Y-77710100D01*
X221729093Y-77710100D01*
X221729094Y-77710099D01*
X221787082Y-77698564D01*
X221903058Y-77675496D01*
X221903061Y-77675494D01*
X221903066Y-77675494D01*
X222066947Y-77607613D01*
X222214435Y-77509064D01*
X222339864Y-77383635D01*
X222438413Y-77236147D01*
X222506294Y-77072266D01*
X222540900Y-76898291D01*
X222540900Y-76720909D01*
X222540900Y-76720906D01*
X222540899Y-76720904D01*
X238519900Y-76720904D01*
X238519900Y-76898295D01*
X238554503Y-77072258D01*
X238554506Y-77072267D01*
X238622383Y-77236140D01*
X238622390Y-77236153D01*
X238720935Y-77383634D01*
X238720938Y-77383638D01*
X238846361Y-77509061D01*
X238846365Y-77509064D01*
X238993846Y-77607609D01*
X238993859Y-77607616D01*
X239116763Y-77658523D01*
X239157734Y-77675494D01*
X239157736Y-77675494D01*
X239157741Y-77675496D01*
X239331704Y-77710099D01*
X239331707Y-77710100D01*
X239331709Y-77710100D01*
X239509093Y-77710100D01*
X239509094Y-77710099D01*
X239567082Y-77698564D01*
X239683058Y-77675496D01*
X239683061Y-77675494D01*
X239683066Y-77675494D01*
X239846947Y-77607613D01*
X239994435Y-77509064D01*
X240119864Y-77383635D01*
X240218413Y-77236147D01*
X240286294Y-77072266D01*
X240320900Y-76898291D01*
X240320900Y-76720909D01*
X240320900Y-76720906D01*
X240320899Y-76720904D01*
X240286296Y-76546941D01*
X240286293Y-76546932D01*
X240218416Y-76383059D01*
X240218409Y-76383046D01*
X240119864Y-76235565D01*
X240119861Y-76235561D01*
X239994438Y-76110138D01*
X239994434Y-76110135D01*
X239846953Y-76011590D01*
X239846940Y-76011583D01*
X239683067Y-75943706D01*
X239683058Y-75943703D01*
X239509094Y-75909100D01*
X239509091Y-75909100D01*
X239331709Y-75909100D01*
X239331706Y-75909100D01*
X239157741Y-75943703D01*
X239157732Y-75943706D01*
X238993859Y-76011583D01*
X238993846Y-76011590D01*
X238846365Y-76110135D01*
X238846361Y-76110138D01*
X238720938Y-76235561D01*
X238720935Y-76235565D01*
X238622390Y-76383046D01*
X238622383Y-76383059D01*
X238554506Y-76546932D01*
X238554503Y-76546941D01*
X238519900Y-76720904D01*
X222540899Y-76720904D01*
X222506296Y-76546941D01*
X222506293Y-76546932D01*
X222438416Y-76383059D01*
X222438409Y-76383046D01*
X222339864Y-76235565D01*
X222339861Y-76235561D01*
X222214438Y-76110138D01*
X222214434Y-76110135D01*
X222066953Y-76011590D01*
X222066940Y-76011583D01*
X221903067Y-75943706D01*
X221903058Y-75943703D01*
X221729094Y-75909100D01*
X221729091Y-75909100D01*
X221551709Y-75909100D01*
X221551706Y-75909100D01*
X221377741Y-75943703D01*
X221377732Y-75943706D01*
X221213859Y-76011583D01*
X221213846Y-76011590D01*
X221066365Y-76110135D01*
X221066361Y-76110138D01*
X220940938Y-76235561D01*
X220940935Y-76235565D01*
X220842390Y-76383046D01*
X220842383Y-76383059D01*
X220774506Y-76546932D01*
X220774503Y-76546941D01*
X220739900Y-76720904D01*
X215130500Y-76720904D01*
X215130500Y-74180904D01*
X220739900Y-74180904D01*
X220739900Y-74358295D01*
X220774503Y-74532258D01*
X220774506Y-74532267D01*
X220842383Y-74696140D01*
X220842390Y-74696153D01*
X220940935Y-74843634D01*
X220940938Y-74843638D01*
X221066361Y-74969061D01*
X221066365Y-74969064D01*
X221213846Y-75067609D01*
X221213859Y-75067616D01*
X221336763Y-75118523D01*
X221377734Y-75135494D01*
X221377736Y-75135494D01*
X221377741Y-75135496D01*
X221551704Y-75170099D01*
X221551707Y-75170100D01*
X221551709Y-75170100D01*
X221729093Y-75170100D01*
X221729094Y-75170099D01*
X221787082Y-75158564D01*
X221903058Y-75135496D01*
X221903061Y-75135494D01*
X221903066Y-75135494D01*
X222066947Y-75067613D01*
X222214435Y-74969064D01*
X222339864Y-74843635D01*
X222438413Y-74696147D01*
X222506294Y-74532266D01*
X222540900Y-74358291D01*
X222540900Y-74180909D01*
X222540900Y-74180906D01*
X222536355Y-74158058D01*
X222536355Y-74158057D01*
X222532754Y-74139953D01*
X231965100Y-74139953D01*
X231965100Y-74297646D01*
X231995861Y-74452289D01*
X231995864Y-74452301D01*
X232056202Y-74597972D01*
X232056209Y-74597985D01*
X232143810Y-74729088D01*
X232143813Y-74729092D01*
X232255307Y-74840586D01*
X232255311Y-74840589D01*
X232386414Y-74928190D01*
X232386427Y-74928197D01*
X232532098Y-74988535D01*
X232532103Y-74988537D01*
X232686753Y-75019299D01*
X232686756Y-75019300D01*
X232686758Y-75019300D01*
X232844444Y-75019300D01*
X232844445Y-75019299D01*
X232999097Y-74988537D01*
X233144779Y-74928194D01*
X233275889Y-74840589D01*
X233387389Y-74729089D01*
X233474994Y-74597979D01*
X233535337Y-74452297D01*
X233566100Y-74297642D01*
X233566100Y-74180904D01*
X238519900Y-74180904D01*
X238519900Y-74358295D01*
X238554503Y-74532258D01*
X238554506Y-74532267D01*
X238622383Y-74696140D01*
X238622390Y-74696153D01*
X238720935Y-74843634D01*
X238720938Y-74843638D01*
X238846361Y-74969061D01*
X238846365Y-74969064D01*
X238993846Y-75067609D01*
X238993859Y-75067616D01*
X239116763Y-75118523D01*
X239157734Y-75135494D01*
X239157736Y-75135494D01*
X239157741Y-75135496D01*
X239331704Y-75170099D01*
X239331707Y-75170100D01*
X239331709Y-75170100D01*
X239509093Y-75170100D01*
X239509094Y-75170099D01*
X239567082Y-75158564D01*
X239683058Y-75135496D01*
X239683061Y-75135494D01*
X239683066Y-75135494D01*
X239846947Y-75067613D01*
X239994435Y-74969064D01*
X240119864Y-74843635D01*
X240218413Y-74696147D01*
X240286294Y-74532266D01*
X240320900Y-74358291D01*
X240320900Y-74180909D01*
X240320900Y-74180906D01*
X240320899Y-74180904D01*
X240286296Y-74006941D01*
X240286293Y-74006932D01*
X240218416Y-73843059D01*
X240218409Y-73843046D01*
X240119864Y-73695565D01*
X240119861Y-73695561D01*
X239994438Y-73570138D01*
X239994434Y-73570135D01*
X239846953Y-73471590D01*
X239846940Y-73471583D01*
X239683067Y-73403706D01*
X239683058Y-73403703D01*
X239509094Y-73369100D01*
X239509091Y-73369100D01*
X239331709Y-73369100D01*
X239331706Y-73369100D01*
X239157741Y-73403703D01*
X239157732Y-73403706D01*
X238993859Y-73471583D01*
X238993846Y-73471590D01*
X238846365Y-73570135D01*
X238846361Y-73570138D01*
X238720938Y-73695561D01*
X238720935Y-73695565D01*
X238622390Y-73843046D01*
X238622383Y-73843059D01*
X238554506Y-74006932D01*
X238554503Y-74006941D01*
X238519900Y-74180904D01*
X233566100Y-74180904D01*
X233566100Y-74139958D01*
X233566100Y-74139955D01*
X233566099Y-74139953D01*
X233539641Y-74006941D01*
X233535337Y-73985303D01*
X233535335Y-73985298D01*
X233474997Y-73839627D01*
X233474990Y-73839614D01*
X233387389Y-73708511D01*
X233387386Y-73708507D01*
X233275892Y-73597013D01*
X233275888Y-73597010D01*
X233144785Y-73509409D01*
X233144772Y-73509402D01*
X232999101Y-73449064D01*
X232999089Y-73449061D01*
X232844445Y-73418300D01*
X232844442Y-73418300D01*
X232686758Y-73418300D01*
X232686755Y-73418300D01*
X232532110Y-73449061D01*
X232532098Y-73449064D01*
X232386427Y-73509402D01*
X232386414Y-73509409D01*
X232255311Y-73597010D01*
X232255307Y-73597013D01*
X232143813Y-73708507D01*
X232143810Y-73708511D01*
X232056209Y-73839614D01*
X232056202Y-73839627D01*
X231995864Y-73985298D01*
X231995861Y-73985310D01*
X231965100Y-74139953D01*
X222532754Y-74139953D01*
X222506296Y-74006941D01*
X222506293Y-74006932D01*
X222438416Y-73843059D01*
X222438409Y-73843046D01*
X222339864Y-73695565D01*
X222339861Y-73695561D01*
X222214438Y-73570138D01*
X222214434Y-73570135D01*
X222066953Y-73471590D01*
X222066940Y-73471583D01*
X221903067Y-73403706D01*
X221903058Y-73403703D01*
X221729094Y-73369100D01*
X221729091Y-73369100D01*
X221551709Y-73369100D01*
X221551706Y-73369100D01*
X221377741Y-73403703D01*
X221377732Y-73403706D01*
X221213859Y-73471583D01*
X221213846Y-73471590D01*
X221066365Y-73570135D01*
X221066361Y-73570138D01*
X220940938Y-73695561D01*
X220940935Y-73695565D01*
X220842390Y-73843046D01*
X220842383Y-73843059D01*
X220774506Y-74006932D01*
X220774503Y-74006941D01*
X220739900Y-74180904D01*
X215130500Y-74180904D01*
X215130500Y-71640904D01*
X220739900Y-71640904D01*
X220739900Y-71818295D01*
X220774503Y-71992258D01*
X220774506Y-71992267D01*
X220842383Y-72156140D01*
X220842390Y-72156153D01*
X220940935Y-72303634D01*
X220940938Y-72303638D01*
X221066361Y-72429061D01*
X221066365Y-72429064D01*
X221213846Y-72527609D01*
X221213859Y-72527616D01*
X221336763Y-72578523D01*
X221377734Y-72595494D01*
X221377736Y-72595494D01*
X221377741Y-72595496D01*
X221551704Y-72630099D01*
X221551707Y-72630100D01*
X221551709Y-72630100D01*
X221729093Y-72630100D01*
X221729094Y-72630099D01*
X221787082Y-72618564D01*
X221903058Y-72595496D01*
X221903061Y-72595494D01*
X221903066Y-72595494D01*
X222066947Y-72527613D01*
X222214435Y-72429064D01*
X222339864Y-72303635D01*
X222438413Y-72156147D01*
X222506294Y-71992266D01*
X222540900Y-71818291D01*
X222540900Y-71640909D01*
X222540900Y-71640906D01*
X222540899Y-71640904D01*
X238519900Y-71640904D01*
X238519900Y-71818295D01*
X238554503Y-71992258D01*
X238554506Y-71992267D01*
X238622383Y-72156140D01*
X238622390Y-72156153D01*
X238720935Y-72303634D01*
X238720938Y-72303638D01*
X238846361Y-72429061D01*
X238846365Y-72429064D01*
X238993846Y-72527609D01*
X238993859Y-72527616D01*
X239116763Y-72578523D01*
X239157734Y-72595494D01*
X239157736Y-72595494D01*
X239157741Y-72595496D01*
X239331704Y-72630099D01*
X239331707Y-72630100D01*
X239331709Y-72630100D01*
X239509093Y-72630100D01*
X239509094Y-72630099D01*
X239567082Y-72618564D01*
X239683058Y-72595496D01*
X239683061Y-72595494D01*
X239683066Y-72595494D01*
X239846947Y-72527613D01*
X239994435Y-72429064D01*
X240119864Y-72303635D01*
X240218413Y-72156147D01*
X240286294Y-71992266D01*
X240320900Y-71818291D01*
X240320900Y-71640909D01*
X240320900Y-71640906D01*
X240320899Y-71640904D01*
X240286296Y-71466941D01*
X240286293Y-71466932D01*
X240218416Y-71303059D01*
X240218409Y-71303046D01*
X240119864Y-71155565D01*
X240119861Y-71155561D01*
X239994438Y-71030138D01*
X239994434Y-71030135D01*
X239846953Y-70931590D01*
X239846940Y-70931583D01*
X239683067Y-70863706D01*
X239683058Y-70863703D01*
X239509094Y-70829100D01*
X239509091Y-70829100D01*
X239331709Y-70829100D01*
X239331706Y-70829100D01*
X239157741Y-70863703D01*
X239157732Y-70863706D01*
X238993859Y-70931583D01*
X238993846Y-70931590D01*
X238846365Y-71030135D01*
X238846361Y-71030138D01*
X238720938Y-71155561D01*
X238720935Y-71155565D01*
X238622390Y-71303046D01*
X238622383Y-71303059D01*
X238554506Y-71466932D01*
X238554503Y-71466941D01*
X238519900Y-71640904D01*
X222540899Y-71640904D01*
X222506296Y-71466941D01*
X222506293Y-71466932D01*
X222438416Y-71303059D01*
X222438409Y-71303046D01*
X222339864Y-71155565D01*
X222339861Y-71155561D01*
X222214438Y-71030138D01*
X222214434Y-71030135D01*
X222066953Y-70931590D01*
X222066940Y-70931583D01*
X221903067Y-70863706D01*
X221903058Y-70863703D01*
X221729094Y-70829100D01*
X221729091Y-70829100D01*
X221551709Y-70829100D01*
X221551706Y-70829100D01*
X221377741Y-70863703D01*
X221377732Y-70863706D01*
X221213859Y-70931583D01*
X221213846Y-70931590D01*
X221066365Y-71030135D01*
X221066361Y-71030138D01*
X220940938Y-71155561D01*
X220940935Y-71155565D01*
X220842390Y-71303046D01*
X220842383Y-71303059D01*
X220774506Y-71466932D01*
X220774503Y-71466941D01*
X220739900Y-71640904D01*
X215130500Y-71640904D01*
X215130500Y-69288143D01*
X220639899Y-69288143D01*
X220678347Y-69481429D01*
X220678350Y-69481439D01*
X220753764Y-69663507D01*
X220753771Y-69663520D01*
X220863260Y-69827381D01*
X220863263Y-69827385D01*
X221002614Y-69966736D01*
X221002618Y-69966739D01*
X221166479Y-70076228D01*
X221166492Y-70076235D01*
X221348560Y-70151649D01*
X221348565Y-70151651D01*
X221348569Y-70151651D01*
X221348570Y-70151652D01*
X221541856Y-70190100D01*
X221541859Y-70190100D01*
X221738943Y-70190100D01*
X221868982Y-70164232D01*
X221932235Y-70151651D01*
X222114314Y-70076232D01*
X222278182Y-69966739D01*
X222417539Y-69827382D01*
X222527032Y-69663514D01*
X222602451Y-69481435D01*
X222615032Y-69418182D01*
X222640900Y-69288143D01*
X222640900Y-69100904D01*
X238519900Y-69100904D01*
X238519900Y-69278295D01*
X238554503Y-69452258D01*
X238554506Y-69452267D01*
X238622383Y-69616140D01*
X238622390Y-69616153D01*
X238720935Y-69763634D01*
X238720938Y-69763638D01*
X238846361Y-69889061D01*
X238846365Y-69889064D01*
X238993846Y-69987609D01*
X238993859Y-69987616D01*
X239116763Y-70038523D01*
X239157734Y-70055494D01*
X239157736Y-70055494D01*
X239157741Y-70055496D01*
X239331704Y-70090099D01*
X239331707Y-70090100D01*
X239331709Y-70090100D01*
X239509093Y-70090100D01*
X239509094Y-70090099D01*
X239578830Y-70076228D01*
X239683058Y-70055496D01*
X239683061Y-70055494D01*
X239683066Y-70055494D01*
X239846947Y-69987613D01*
X239994435Y-69889064D01*
X240119864Y-69763635D01*
X240218413Y-69616147D01*
X240286294Y-69452266D01*
X240295246Y-69407257D01*
X240303033Y-69368113D01*
X241905700Y-69368113D01*
X241905700Y-69580686D01*
X241934676Y-69763638D01*
X241938954Y-69790643D01*
X242002952Y-69987609D01*
X242004644Y-69992814D01*
X242101151Y-70182220D01*
X242226090Y-70354186D01*
X242376413Y-70504509D01*
X242548379Y-70629448D01*
X242548381Y-70629449D01*
X242548384Y-70629451D01*
X242737788Y-70725957D01*
X242939957Y-70791646D01*
X243149913Y-70824900D01*
X243149914Y-70824900D01*
X243362486Y-70824900D01*
X243362487Y-70824900D01*
X243572443Y-70791646D01*
X243774612Y-70725957D01*
X243964016Y-70629451D01*
X243985989Y-70613486D01*
X244135986Y-70504509D01*
X244135988Y-70504506D01*
X244135992Y-70504504D01*
X244286304Y-70354192D01*
X244286306Y-70354188D01*
X244286309Y-70354186D01*
X244411248Y-70182220D01*
X244411247Y-70182220D01*
X244411251Y-70182216D01*
X244507757Y-69992812D01*
X244573446Y-69790643D01*
X244606700Y-69580687D01*
X244606700Y-69368113D01*
X244573446Y-69158157D01*
X244507757Y-68955988D01*
X244411251Y-68766584D01*
X244411249Y-68766581D01*
X244411248Y-68766579D01*
X244286309Y-68594613D01*
X244135986Y-68444290D01*
X243964020Y-68319351D01*
X243774614Y-68222844D01*
X243774613Y-68222843D01*
X243774612Y-68222843D01*
X243572443Y-68157154D01*
X243572441Y-68157153D01*
X243572440Y-68157153D01*
X243411157Y-68131608D01*
X243362487Y-68123900D01*
X243149913Y-68123900D01*
X243101242Y-68131608D01*
X242939960Y-68157153D01*
X242737785Y-68222844D01*
X242548379Y-68319351D01*
X242376413Y-68444290D01*
X242226090Y-68594613D01*
X242101151Y-68766579D01*
X242004644Y-68955985D01*
X241938953Y-69158160D01*
X241905700Y-69368113D01*
X240303033Y-69368113D01*
X240308815Y-69339049D01*
X240308815Y-69339048D01*
X240320899Y-69278295D01*
X240320900Y-69278293D01*
X240320900Y-69100906D01*
X240320899Y-69100904D01*
X240286296Y-68926941D01*
X240286293Y-68926932D01*
X240218416Y-68763059D01*
X240218409Y-68763046D01*
X240119864Y-68615565D01*
X240119861Y-68615561D01*
X239994438Y-68490138D01*
X239994434Y-68490135D01*
X239846953Y-68391590D01*
X239846940Y-68391583D01*
X239683067Y-68323706D01*
X239683058Y-68323703D01*
X239509094Y-68289100D01*
X239509091Y-68289100D01*
X239331709Y-68289100D01*
X239331706Y-68289100D01*
X239157741Y-68323703D01*
X239157732Y-68323706D01*
X238993859Y-68391583D01*
X238993846Y-68391590D01*
X238846365Y-68490135D01*
X238846361Y-68490138D01*
X238720938Y-68615561D01*
X238720935Y-68615565D01*
X238622390Y-68763046D01*
X238622383Y-68763059D01*
X238554506Y-68926932D01*
X238554503Y-68926941D01*
X238519900Y-69100904D01*
X222640900Y-69100904D01*
X222640900Y-69091056D01*
X222602452Y-68897770D01*
X222602451Y-68897769D01*
X222602451Y-68897765D01*
X222602449Y-68897760D01*
X222527035Y-68715692D01*
X222527028Y-68715679D01*
X222417539Y-68551818D01*
X222417536Y-68551814D01*
X222278185Y-68412463D01*
X222278181Y-68412460D01*
X222114320Y-68302971D01*
X222114307Y-68302964D01*
X221932239Y-68227550D01*
X221932229Y-68227547D01*
X221738943Y-68189100D01*
X221738941Y-68189100D01*
X221541859Y-68189100D01*
X221541857Y-68189100D01*
X221348570Y-68227547D01*
X221348560Y-68227550D01*
X221166492Y-68302964D01*
X221166479Y-68302971D01*
X221002618Y-68412460D01*
X221002614Y-68412463D01*
X220863263Y-68551814D01*
X220863260Y-68551818D01*
X220753771Y-68715679D01*
X220753764Y-68715692D01*
X220678350Y-68897760D01*
X220678347Y-68897770D01*
X220639900Y-69091056D01*
X220639900Y-69091059D01*
X220639900Y-69288141D01*
X220639900Y-69288143D01*
X220639899Y-69288143D01*
X215130500Y-69288143D01*
X215130500Y-63186335D01*
X216301500Y-63186335D01*
X216301500Y-64982070D01*
X216301501Y-64982076D01*
X216307908Y-65041683D01*
X216358202Y-65176528D01*
X216358206Y-65176535D01*
X216444452Y-65291744D01*
X216444455Y-65291747D01*
X216559664Y-65377993D01*
X216559671Y-65377997D01*
X216691082Y-65427010D01*
X216747016Y-65468881D01*
X216771433Y-65534345D01*
X216756582Y-65602618D01*
X216735431Y-65630873D01*
X216621889Y-65744415D01*
X216496951Y-65916379D01*
X216400444Y-66105785D01*
X216334753Y-66307960D01*
X216326866Y-66357760D01*
X216301500Y-66517913D01*
X216301500Y-66730487D01*
X216334754Y-66940443D01*
X216396201Y-67129558D01*
X216400444Y-67142614D01*
X216496951Y-67332020D01*
X216621890Y-67503986D01*
X216772213Y-67654309D01*
X216944179Y-67779248D01*
X216944181Y-67779249D01*
X216944184Y-67779251D01*
X217133588Y-67875757D01*
X217335757Y-67941446D01*
X217545713Y-67974700D01*
X217545714Y-67974700D01*
X217758286Y-67974700D01*
X217758287Y-67974700D01*
X217968243Y-67941446D01*
X218170412Y-67875757D01*
X218359816Y-67779251D01*
X218443173Y-67718689D01*
X218531786Y-67654309D01*
X218531788Y-67654306D01*
X218531792Y-67654304D01*
X218682104Y-67503992D01*
X218682106Y-67503988D01*
X218682109Y-67503986D01*
X218807048Y-67332020D01*
X218807047Y-67332020D01*
X218807051Y-67332016D01*
X218903557Y-67142612D01*
X218969246Y-66940443D01*
X218999704Y-66748143D01*
X220639899Y-66748143D01*
X220678347Y-66941429D01*
X220678350Y-66941439D01*
X220753764Y-67123507D01*
X220753771Y-67123520D01*
X220863260Y-67287381D01*
X220863263Y-67287385D01*
X221002614Y-67426736D01*
X221002618Y-67426739D01*
X221166479Y-67536228D01*
X221166492Y-67536235D01*
X221290464Y-67587585D01*
X221348565Y-67611651D01*
X221348569Y-67611651D01*
X221348570Y-67611652D01*
X221541856Y-67650100D01*
X221541859Y-67650100D01*
X221738943Y-67650100D01*
X221868982Y-67624232D01*
X221932235Y-67611651D01*
X222114314Y-67536232D01*
X222278182Y-67426739D01*
X222417539Y-67287382D01*
X222522997Y-67129553D01*
X234505100Y-67129553D01*
X234505100Y-67287246D01*
X234535861Y-67441889D01*
X234535864Y-67441901D01*
X234596202Y-67587572D01*
X234596209Y-67587585D01*
X234683810Y-67718688D01*
X234683813Y-67718692D01*
X234795307Y-67830186D01*
X234795311Y-67830189D01*
X234926414Y-67917790D01*
X234926427Y-67917797D01*
X234983522Y-67941446D01*
X235072103Y-67978137D01*
X235226753Y-68008899D01*
X235226756Y-68008900D01*
X235226758Y-68008900D01*
X235384444Y-68008900D01*
X235384445Y-68008899D01*
X235539097Y-67978137D01*
X235684779Y-67917794D01*
X235815889Y-67830189D01*
X235927389Y-67718689D01*
X236014994Y-67587579D01*
X236075337Y-67441897D01*
X236106100Y-67287242D01*
X236106100Y-67129558D01*
X236106100Y-67129555D01*
X236106099Y-67129553D01*
X236095474Y-67076140D01*
X236075337Y-66974903D01*
X236049389Y-66912258D01*
X236014997Y-66829227D01*
X236014990Y-66829214D01*
X235927389Y-66698111D01*
X235927386Y-66698107D01*
X235815892Y-66586613D01*
X235815888Y-66586610D01*
X235777417Y-66560904D01*
X238519900Y-66560904D01*
X238519900Y-66738295D01*
X238554503Y-66912258D01*
X238554506Y-66912267D01*
X238622383Y-67076140D01*
X238622390Y-67076153D01*
X238720935Y-67223634D01*
X238720938Y-67223638D01*
X238846361Y-67349061D01*
X238846365Y-67349064D01*
X238993846Y-67447609D01*
X238993859Y-67447616D01*
X239116763Y-67498523D01*
X239157734Y-67515494D01*
X239157736Y-67515494D01*
X239157741Y-67515496D01*
X239331704Y-67550099D01*
X239331707Y-67550100D01*
X239331709Y-67550100D01*
X239509093Y-67550100D01*
X239509094Y-67550099D01*
X239578830Y-67536228D01*
X239683058Y-67515496D01*
X239683061Y-67515494D01*
X239683066Y-67515494D01*
X239846947Y-67447613D01*
X239994435Y-67349064D01*
X240119864Y-67223635D01*
X240218413Y-67076147D01*
X240286294Y-66912266D01*
X240320900Y-66738291D01*
X240320900Y-66560909D01*
X240320900Y-66560906D01*
X240320899Y-66560904D01*
X240286296Y-66386941D01*
X240286293Y-66386932D01*
X240218416Y-66223059D01*
X240218409Y-66223046D01*
X240119864Y-66075565D01*
X240119861Y-66075561D01*
X239994438Y-65950138D01*
X239994434Y-65950135D01*
X239846953Y-65851590D01*
X239846940Y-65851583D01*
X239683067Y-65783706D01*
X239683058Y-65783703D01*
X239509094Y-65749100D01*
X239509091Y-65749100D01*
X239331709Y-65749100D01*
X239331706Y-65749100D01*
X239157741Y-65783703D01*
X239157732Y-65783706D01*
X238993859Y-65851583D01*
X238993846Y-65851590D01*
X238846365Y-65950135D01*
X238846361Y-65950138D01*
X238720938Y-66075561D01*
X238720935Y-66075565D01*
X238622390Y-66223046D01*
X238622383Y-66223059D01*
X238554506Y-66386932D01*
X238554503Y-66386941D01*
X238519900Y-66560904D01*
X235777417Y-66560904D01*
X235684785Y-66499009D01*
X235684772Y-66499002D01*
X235539101Y-66438664D01*
X235539089Y-66438661D01*
X235384445Y-66407900D01*
X235384442Y-66407900D01*
X235226758Y-66407900D01*
X235226755Y-66407900D01*
X235072110Y-66438661D01*
X235072098Y-66438664D01*
X234926427Y-66499002D01*
X234926414Y-66499009D01*
X234795311Y-66586610D01*
X234795307Y-66586613D01*
X234683813Y-66698107D01*
X234683810Y-66698111D01*
X234596209Y-66829214D01*
X234596202Y-66829227D01*
X234535864Y-66974898D01*
X234535861Y-66974910D01*
X234505100Y-67129553D01*
X222522997Y-67129553D01*
X222527032Y-67123514D01*
X222602451Y-66941435D01*
X222624772Y-66829221D01*
X222640900Y-66748143D01*
X222640900Y-66551056D01*
X222602452Y-66357770D01*
X222602451Y-66357769D01*
X222602451Y-66357765D01*
X222581820Y-66307957D01*
X222527035Y-66175692D01*
X222527028Y-66175679D01*
X222417539Y-66011818D01*
X222417536Y-66011814D01*
X222278185Y-65872463D01*
X222278181Y-65872460D01*
X222114320Y-65762971D01*
X222114307Y-65762964D01*
X221932239Y-65687550D01*
X221932229Y-65687547D01*
X221738943Y-65649100D01*
X221738941Y-65649100D01*
X221541859Y-65649100D01*
X221541857Y-65649100D01*
X221348570Y-65687547D01*
X221348560Y-65687550D01*
X221166492Y-65762964D01*
X221166479Y-65762971D01*
X221002618Y-65872460D01*
X221002614Y-65872463D01*
X220863263Y-66011814D01*
X220863260Y-66011818D01*
X220753771Y-66175679D01*
X220753764Y-66175692D01*
X220678350Y-66357760D01*
X220678347Y-66357770D01*
X220639900Y-66551056D01*
X220639900Y-66551059D01*
X220639900Y-66748141D01*
X220639900Y-66748143D01*
X220639899Y-66748143D01*
X218999704Y-66748143D01*
X219002500Y-66730487D01*
X219002500Y-66517913D01*
X218969246Y-66307957D01*
X218903557Y-66105788D01*
X218807051Y-65916384D01*
X218807049Y-65916381D01*
X218807048Y-65916379D01*
X218682109Y-65744413D01*
X218568569Y-65630873D01*
X218535084Y-65569550D01*
X218540068Y-65499858D01*
X218581940Y-65443925D01*
X218612915Y-65427010D01*
X218744331Y-65377996D01*
X218859546Y-65291746D01*
X218945796Y-65176531D01*
X218996091Y-65041683D01*
X219002500Y-64982073D01*
X219002499Y-64020904D01*
X220739900Y-64020904D01*
X220739900Y-64198295D01*
X220774503Y-64372258D01*
X220774506Y-64372267D01*
X220842383Y-64536140D01*
X220842390Y-64536153D01*
X220940935Y-64683634D01*
X220940938Y-64683638D01*
X221066361Y-64809061D01*
X221066365Y-64809064D01*
X221213846Y-64907609D01*
X221213859Y-64907616D01*
X221336763Y-64958523D01*
X221377734Y-64975494D01*
X221377736Y-64975494D01*
X221377741Y-64975496D01*
X221551704Y-65010099D01*
X221551707Y-65010100D01*
X221551709Y-65010100D01*
X221729093Y-65010100D01*
X221729094Y-65010099D01*
X221787082Y-64998564D01*
X221903058Y-64975496D01*
X221903061Y-64975494D01*
X221903066Y-64975494D01*
X222066947Y-64907613D01*
X222214435Y-64809064D01*
X222339864Y-64683635D01*
X222438413Y-64536147D01*
X222506294Y-64372266D01*
X222540900Y-64198291D01*
X222540900Y-64020909D01*
X222540900Y-64020906D01*
X222540899Y-64020904D01*
X238519900Y-64020904D01*
X238519900Y-64198295D01*
X238554503Y-64372258D01*
X238554506Y-64372267D01*
X238622383Y-64536140D01*
X238622390Y-64536153D01*
X238720935Y-64683634D01*
X238720938Y-64683638D01*
X238846361Y-64809061D01*
X238846365Y-64809064D01*
X238993846Y-64907609D01*
X238993859Y-64907616D01*
X239116763Y-64958523D01*
X239157734Y-64975494D01*
X239157736Y-64975494D01*
X239157741Y-64975496D01*
X239331704Y-65010099D01*
X239331707Y-65010100D01*
X239331709Y-65010100D01*
X239509093Y-65010100D01*
X239509094Y-65010099D01*
X239567082Y-64998564D01*
X239683058Y-64975496D01*
X239683061Y-64975494D01*
X239683066Y-64975494D01*
X239846947Y-64907613D01*
X239994435Y-64809064D01*
X240119864Y-64683635D01*
X240218413Y-64536147D01*
X240286294Y-64372266D01*
X240320900Y-64198291D01*
X240320900Y-64020909D01*
X240320900Y-64020906D01*
X240320899Y-64020904D01*
X240286296Y-63846941D01*
X240286293Y-63846932D01*
X240218416Y-63683059D01*
X240218409Y-63683046D01*
X240119864Y-63535565D01*
X240119861Y-63535561D01*
X239994438Y-63410138D01*
X239994434Y-63410135D01*
X239846953Y-63311590D01*
X239846940Y-63311583D01*
X239683067Y-63243706D01*
X239683058Y-63243703D01*
X239509094Y-63209100D01*
X239509091Y-63209100D01*
X239331709Y-63209100D01*
X239331706Y-63209100D01*
X239157741Y-63243703D01*
X239157732Y-63243706D01*
X238993859Y-63311583D01*
X238993846Y-63311590D01*
X238846365Y-63410135D01*
X238846361Y-63410138D01*
X238720938Y-63535561D01*
X238720935Y-63535565D01*
X238622390Y-63683046D01*
X238622383Y-63683059D01*
X238554506Y-63846932D01*
X238554503Y-63846941D01*
X238519900Y-64020904D01*
X222540899Y-64020904D01*
X222506296Y-63846941D01*
X222506293Y-63846932D01*
X222438416Y-63683059D01*
X222438409Y-63683046D01*
X222339864Y-63535565D01*
X222339861Y-63535561D01*
X222214438Y-63410138D01*
X222214434Y-63410135D01*
X222066953Y-63311590D01*
X222066940Y-63311583D01*
X221903067Y-63243706D01*
X221903058Y-63243703D01*
X221729094Y-63209100D01*
X221729091Y-63209100D01*
X221551709Y-63209100D01*
X221551706Y-63209100D01*
X221377741Y-63243703D01*
X221377732Y-63243706D01*
X221213859Y-63311583D01*
X221213846Y-63311590D01*
X221066365Y-63410135D01*
X221066361Y-63410138D01*
X220940938Y-63535561D01*
X220940935Y-63535565D01*
X220842390Y-63683046D01*
X220842383Y-63683059D01*
X220774506Y-63846932D01*
X220774503Y-63846941D01*
X220739900Y-64020904D01*
X219002499Y-64020904D01*
X219002499Y-63186328D01*
X218996091Y-63126717D01*
X218945796Y-62991869D01*
X218945795Y-62991868D01*
X218945793Y-62991864D01*
X218859547Y-62876655D01*
X218859544Y-62876652D01*
X218744335Y-62790406D01*
X218744328Y-62790402D01*
X218609482Y-62740108D01*
X218609483Y-62740108D01*
X218549883Y-62733701D01*
X218549881Y-62733700D01*
X218549873Y-62733700D01*
X218549864Y-62733700D01*
X216754129Y-62733700D01*
X216754123Y-62733701D01*
X216694516Y-62740108D01*
X216559671Y-62790402D01*
X216559664Y-62790406D01*
X216444455Y-62876652D01*
X216444452Y-62876655D01*
X216358206Y-62991864D01*
X216358202Y-62991871D01*
X216307908Y-63126717D01*
X216301501Y-63186316D01*
X216301501Y-63186323D01*
X216301500Y-63186335D01*
X215130500Y-63186335D01*
X215130500Y-59044500D01*
X215150185Y-58977461D01*
X215202989Y-58931706D01*
X215254500Y-58920500D01*
X245755500Y-58920500D01*
X245822539Y-58940185D01*
G37*
%TD.AperFunction*%
%TD*%
M02*
