%TF.GenerationSoftware,KiCad,Pcbnew,9.0.4*%
%TF.CreationDate,2025-09-14T15:24:18+10:00*%
%TF.ProjectId,opensenceesp32,6f70656e-7365-46e6-9365-65737033322e,rev?*%
%TF.SameCoordinates,Original*%
%TF.FileFunction,Drillmap*%
%TF.FilePolarity,Positive*%
%FSLAX45Y45*%
G04 Gerber Fmt 4.5, Leading zero omitted, Abs format (unit mm)*
G04 Created by KiCad (PCBNEW 9.0.4) date 2025-09-14 15:24:18*
%MOMM*%
%LPD*%
G01*
G04 APERTURE LIST*
%ADD10C,0.050000*%
%ADD11C,0.200000*%
%ADD12C,0.100000*%
G04 APERTURE END LIST*
D10*
X21463000Y-5842000D02*
X21463000Y-13144500D01*
X24638000Y-13144499D02*
X24638000Y-5842000D01*
X24638000Y-5842000D02*
X21463000Y-5842000D01*
X21463000Y-13144500D02*
X24638000Y-13144500D01*
D11*
D12*
X21707080Y-7579600D02*
X21737080Y-7609600D01*
X21737080Y-7579600D02*
X21707080Y-7609600D01*
X22042360Y-12207480D02*
X22072360Y-12237480D01*
X22072360Y-12207480D02*
X22042360Y-12237480D01*
X22199840Y-10023080D02*
X22229840Y-10053080D01*
X22229840Y-10023080D02*
X22199840Y-10053080D01*
X22448760Y-9479520D02*
X22478760Y-9509520D01*
X22478760Y-9479520D02*
X22448760Y-9509520D01*
X22494480Y-12649440D02*
X22524480Y-12679440D01*
X22524480Y-12649440D02*
X22494480Y-12679440D01*
X22629100Y-8836900D02*
X22659100Y-8866900D01*
X22659100Y-8836900D02*
X22629100Y-8866900D01*
X22667200Y-8443200D02*
X22697200Y-8473200D01*
X22697200Y-8443200D02*
X22667200Y-8473200D01*
X22778960Y-9697960D02*
X22808960Y-9727960D01*
X22808960Y-9697960D02*
X22778960Y-9727960D01*
X22941520Y-6736320D02*
X22971520Y-6766320D01*
X22971520Y-6736320D02*
X22941520Y-6766320D01*
X22992320Y-12476720D02*
X23022320Y-12506720D01*
X23022320Y-12476720D02*
X22992320Y-12506720D01*
X22997400Y-12217640D02*
X23027400Y-12247640D01*
X23027400Y-12217640D02*
X22997400Y-12247640D01*
X23043120Y-11719800D02*
X23073120Y-11749800D01*
X23073120Y-11719800D02*
X23043120Y-11749800D01*
X23210760Y-9449040D02*
X23240760Y-9479040D01*
X23240760Y-9449040D02*
X23210760Y-9479040D01*
X23231080Y-9667480D02*
X23261080Y-9697480D01*
X23261080Y-9667480D02*
X23231080Y-9697480D01*
X23256480Y-10988280D02*
X23286480Y-11018280D01*
X23286480Y-10988280D02*
X23256480Y-11018280D01*
X23261560Y-7406880D02*
X23291560Y-7436880D01*
X23291560Y-7406880D02*
X23261560Y-7436880D01*
X23434280Y-10713960D02*
X23464280Y-10743960D01*
X23464280Y-10713960D02*
X23434280Y-10743960D01*
X23515560Y-6705840D02*
X23545560Y-6735840D01*
X23545560Y-6705840D02*
X23515560Y-6735840D01*
X23794960Y-10668240D02*
X23824960Y-10698240D01*
X23824960Y-10668240D02*
X23794960Y-10698240D01*
X23957520Y-9972280D02*
X23987520Y-10002280D01*
X23987520Y-9972280D02*
X23957520Y-10002280D01*
X23962600Y-9088360D02*
X23992600Y-9118360D01*
X23992600Y-9088360D02*
X23962600Y-9118360D01*
X23962600Y-9377920D02*
X23992600Y-9407920D01*
X23992600Y-9377920D02*
X23962600Y-9407920D01*
X24104840Y-11628360D02*
X24134840Y-11658360D01*
X24134840Y-11628360D02*
X24104840Y-11658360D01*
X22204040Y-6410960D02*
G75*
G02*
X22124040Y-6410960I-40000J0D01*
G01*
X22124040Y-6410960D02*
G75*
G02*
X22204040Y-6410960I40000J0D01*
G01*
X22204040Y-6664960D02*
G75*
G02*
X22124040Y-6664960I-40000J0D01*
G01*
X22124040Y-6664960D02*
G75*
G02*
X22204040Y-6664960I40000J0D01*
G01*
X22204040Y-6918960D02*
G75*
G02*
X22124040Y-6918960I-40000J0D01*
G01*
X22124040Y-6918960D02*
G75*
G02*
X22204040Y-6918960I40000J0D01*
G01*
X22204040Y-7172960D02*
G75*
G02*
X22124040Y-7172960I-40000J0D01*
G01*
X22124040Y-7172960D02*
G75*
G02*
X22204040Y-7172960I40000J0D01*
G01*
X22204040Y-7426960D02*
G75*
G02*
X22124040Y-7426960I-40000J0D01*
G01*
X22124040Y-7426960D02*
G75*
G02*
X22204040Y-7426960I40000J0D01*
G01*
X22204040Y-7680960D02*
G75*
G02*
X22124040Y-7680960I-40000J0D01*
G01*
X22124040Y-7680960D02*
G75*
G02*
X22204040Y-7680960I40000J0D01*
G01*
X22204040Y-7934960D02*
G75*
G02*
X22124040Y-7934960I-40000J0D01*
G01*
X22124040Y-7934960D02*
G75*
G02*
X22204040Y-7934960I40000J0D01*
G01*
X22204040Y-8188960D02*
G75*
G02*
X22124040Y-8188960I-40000J0D01*
G01*
X22124040Y-8188960D02*
G75*
G02*
X22204040Y-8188960I40000J0D01*
G01*
X23982040Y-6410960D02*
G75*
G02*
X23902040Y-6410960I-40000J0D01*
G01*
X23902040Y-6410960D02*
G75*
G02*
X23982040Y-6410960I40000J0D01*
G01*
X23982040Y-6664960D02*
G75*
G02*
X23902040Y-6664960I-40000J0D01*
G01*
X23902040Y-6664960D02*
G75*
G02*
X23982040Y-6664960I40000J0D01*
G01*
X23982040Y-6918960D02*
G75*
G02*
X23902040Y-6918960I-40000J0D01*
G01*
X23902040Y-6918960D02*
G75*
G02*
X23982040Y-6918960I40000J0D01*
G01*
X23982040Y-7172960D02*
G75*
G02*
X23902040Y-7172960I-40000J0D01*
G01*
X23902040Y-7172960D02*
G75*
G02*
X23982040Y-7172960I40000J0D01*
G01*
X23982040Y-7426960D02*
G75*
G02*
X23902040Y-7426960I-40000J0D01*
G01*
X23902040Y-7426960D02*
G75*
G02*
X23982040Y-7426960I40000J0D01*
G01*
X23982040Y-7680960D02*
G75*
G02*
X23902040Y-7680960I-40000J0D01*
G01*
X23902040Y-7680960D02*
G75*
G02*
X23982040Y-7680960I40000J0D01*
G01*
X23982040Y-7934960D02*
G75*
G02*
X23902040Y-7934960I-40000J0D01*
G01*
X23902040Y-7934960D02*
G75*
G02*
X23982040Y-7934960I40000J0D01*
G01*
X21765200Y-6358420D02*
X21765200Y-6458420D01*
X21715200Y-6408420D02*
X21815200Y-6408420D01*
X21765200Y-6612420D02*
X21765200Y-6712420D01*
X21715200Y-6662420D02*
X21815200Y-6662420D01*
X21780500Y-8903500D02*
X21780500Y-9003500D01*
X21730500Y-8953500D02*
X21830500Y-8953500D01*
X21780500Y-9157500D02*
X21780500Y-9257500D01*
X21730500Y-9207500D02*
X21830500Y-9207500D01*
X21780500Y-9411500D02*
X21780500Y-9511500D01*
X21730500Y-9461500D02*
X21830500Y-9461500D01*
X21780500Y-9665500D02*
X21780500Y-9765500D01*
X21730500Y-9715500D02*
X21830500Y-9715500D01*
X21780500Y-9919500D02*
X21780500Y-10019500D01*
X21730500Y-9969500D02*
X21830500Y-9969500D01*
X21780500Y-10173500D02*
X21780500Y-10273500D01*
X21730500Y-10223500D02*
X21830500Y-10223500D01*
X21780500Y-10427500D02*
X21780500Y-10527500D01*
X21730500Y-10477500D02*
X21830500Y-10477500D01*
X21780500Y-10681500D02*
X21780500Y-10781500D01*
X21730500Y-10731500D02*
X21830500Y-10731500D01*
X23942040Y-8138960D02*
X23942040Y-8238960D01*
X23892040Y-8188960D02*
X23992040Y-8188960D01*
X24257000Y-10211600D02*
X24257000Y-10311600D01*
X24207000Y-10261600D02*
X24307000Y-10261600D01*
X24257000Y-10465600D02*
X24257000Y-10565600D01*
X24207000Y-10515600D02*
X24307000Y-10515600D01*
X24325620Y-6897440D02*
X24325620Y-6997440D01*
X24275620Y-6947440D02*
X24375620Y-6947440D01*
X24325620Y-7151440D02*
X24325620Y-7251440D01*
X24275620Y-7201440D02*
X24375620Y-7201440D01*
D11*
X21721277Y-13458484D02*
X21721277Y-13258484D01*
X21721277Y-13258484D02*
X21768896Y-13258484D01*
X21768896Y-13258484D02*
X21797467Y-13268008D01*
X21797467Y-13268008D02*
X21816515Y-13287055D01*
X21816515Y-13287055D02*
X21826039Y-13306103D01*
X21826039Y-13306103D02*
X21835563Y-13344198D01*
X21835563Y-13344198D02*
X21835563Y-13372769D01*
X21835563Y-13372769D02*
X21826039Y-13410865D01*
X21826039Y-13410865D02*
X21816515Y-13429912D01*
X21816515Y-13429912D02*
X21797467Y-13448960D01*
X21797467Y-13448960D02*
X21768896Y-13458484D01*
X21768896Y-13458484D02*
X21721277Y-13458484D01*
X21921277Y-13458484D02*
X21921277Y-13325150D01*
X21921277Y-13363246D02*
X21930801Y-13344198D01*
X21930801Y-13344198D02*
X21940324Y-13334674D01*
X21940324Y-13334674D02*
X21959372Y-13325150D01*
X21959372Y-13325150D02*
X21978420Y-13325150D01*
X22045086Y-13458484D02*
X22045086Y-13325150D01*
X22045086Y-13258484D02*
X22035563Y-13268008D01*
X22035563Y-13268008D02*
X22045086Y-13277531D01*
X22045086Y-13277531D02*
X22054610Y-13268008D01*
X22054610Y-13268008D02*
X22045086Y-13258484D01*
X22045086Y-13258484D02*
X22045086Y-13277531D01*
X22168896Y-13458484D02*
X22149848Y-13448960D01*
X22149848Y-13448960D02*
X22140324Y-13429912D01*
X22140324Y-13429912D02*
X22140324Y-13258484D01*
X22273658Y-13458484D02*
X22254610Y-13448960D01*
X22254610Y-13448960D02*
X22245086Y-13429912D01*
X22245086Y-13429912D02*
X22245086Y-13258484D01*
X22502229Y-13458484D02*
X22502229Y-13258484D01*
X22502229Y-13258484D02*
X22568896Y-13401341D01*
X22568896Y-13401341D02*
X22635562Y-13258484D01*
X22635562Y-13258484D02*
X22635562Y-13458484D01*
X22816515Y-13458484D02*
X22816515Y-13353722D01*
X22816515Y-13353722D02*
X22806991Y-13334674D01*
X22806991Y-13334674D02*
X22787943Y-13325150D01*
X22787943Y-13325150D02*
X22749848Y-13325150D01*
X22749848Y-13325150D02*
X22730801Y-13334674D01*
X22816515Y-13448960D02*
X22797467Y-13458484D01*
X22797467Y-13458484D02*
X22749848Y-13458484D01*
X22749848Y-13458484D02*
X22730801Y-13448960D01*
X22730801Y-13448960D02*
X22721277Y-13429912D01*
X22721277Y-13429912D02*
X22721277Y-13410865D01*
X22721277Y-13410865D02*
X22730801Y-13391817D01*
X22730801Y-13391817D02*
X22749848Y-13382293D01*
X22749848Y-13382293D02*
X22797467Y-13382293D01*
X22797467Y-13382293D02*
X22816515Y-13372769D01*
X22911753Y-13325150D02*
X22911753Y-13525150D01*
X22911753Y-13334674D02*
X22930801Y-13325150D01*
X22930801Y-13325150D02*
X22968896Y-13325150D01*
X22968896Y-13325150D02*
X22987943Y-13334674D01*
X22987943Y-13334674D02*
X22997467Y-13344198D01*
X22997467Y-13344198D02*
X23006991Y-13363246D01*
X23006991Y-13363246D02*
X23006991Y-13420388D01*
X23006991Y-13420388D02*
X22997467Y-13439436D01*
X22997467Y-13439436D02*
X22987943Y-13448960D01*
X22987943Y-13448960D02*
X22968896Y-13458484D01*
X22968896Y-13458484D02*
X22930801Y-13458484D01*
X22930801Y-13458484D02*
X22911753Y-13448960D01*
X23092705Y-13439436D02*
X23102229Y-13448960D01*
X23102229Y-13448960D02*
X23092705Y-13458484D01*
X23092705Y-13458484D02*
X23083182Y-13448960D01*
X23083182Y-13448960D02*
X23092705Y-13439436D01*
X23092705Y-13439436D02*
X23092705Y-13458484D01*
X23092705Y-13334674D02*
X23102229Y-13344198D01*
X23102229Y-13344198D02*
X23092705Y-13353722D01*
X23092705Y-13353722D02*
X23083182Y-13344198D01*
X23083182Y-13344198D02*
X23092705Y-13334674D01*
X23092705Y-13334674D02*
X23092705Y-13353722D01*
D12*
X21430500Y-13772000D02*
X21460500Y-13802000D01*
X21460500Y-13772000D02*
X21430500Y-13802000D01*
D11*
X21759372Y-13678484D02*
X21778420Y-13678484D01*
X21778420Y-13678484D02*
X21797467Y-13688008D01*
X21797467Y-13688008D02*
X21806991Y-13697531D01*
X21806991Y-13697531D02*
X21816515Y-13716579D01*
X21816515Y-13716579D02*
X21826039Y-13754674D01*
X21826039Y-13754674D02*
X21826039Y-13802293D01*
X21826039Y-13802293D02*
X21816515Y-13840388D01*
X21816515Y-13840388D02*
X21806991Y-13859436D01*
X21806991Y-13859436D02*
X21797467Y-13868960D01*
X21797467Y-13868960D02*
X21778420Y-13878484D01*
X21778420Y-13878484D02*
X21759372Y-13878484D01*
X21759372Y-13878484D02*
X21740324Y-13868960D01*
X21740324Y-13868960D02*
X21730801Y-13859436D01*
X21730801Y-13859436D02*
X21721277Y-13840388D01*
X21721277Y-13840388D02*
X21711753Y-13802293D01*
X21711753Y-13802293D02*
X21711753Y-13754674D01*
X21711753Y-13754674D02*
X21721277Y-13716579D01*
X21721277Y-13716579D02*
X21730801Y-13697531D01*
X21730801Y-13697531D02*
X21740324Y-13688008D01*
X21740324Y-13688008D02*
X21759372Y-13678484D01*
X21911753Y-13859436D02*
X21921277Y-13868960D01*
X21921277Y-13868960D02*
X21911753Y-13878484D01*
X21911753Y-13878484D02*
X21902229Y-13868960D01*
X21902229Y-13868960D02*
X21911753Y-13859436D01*
X21911753Y-13859436D02*
X21911753Y-13878484D01*
X21987944Y-13678484D02*
X22111753Y-13678484D01*
X22111753Y-13678484D02*
X22045086Y-13754674D01*
X22045086Y-13754674D02*
X22073658Y-13754674D01*
X22073658Y-13754674D02*
X22092705Y-13764198D01*
X22092705Y-13764198D02*
X22102229Y-13773722D01*
X22102229Y-13773722D02*
X22111753Y-13792769D01*
X22111753Y-13792769D02*
X22111753Y-13840388D01*
X22111753Y-13840388D02*
X22102229Y-13859436D01*
X22102229Y-13859436D02*
X22092705Y-13868960D01*
X22092705Y-13868960D02*
X22073658Y-13878484D01*
X22073658Y-13878484D02*
X22016515Y-13878484D01*
X22016515Y-13878484D02*
X21997467Y-13868960D01*
X21997467Y-13868960D02*
X21987944Y-13859436D01*
X22235563Y-13678484D02*
X22254610Y-13678484D01*
X22254610Y-13678484D02*
X22273658Y-13688008D01*
X22273658Y-13688008D02*
X22283182Y-13697531D01*
X22283182Y-13697531D02*
X22292705Y-13716579D01*
X22292705Y-13716579D02*
X22302229Y-13754674D01*
X22302229Y-13754674D02*
X22302229Y-13802293D01*
X22302229Y-13802293D02*
X22292705Y-13840388D01*
X22292705Y-13840388D02*
X22283182Y-13859436D01*
X22283182Y-13859436D02*
X22273658Y-13868960D01*
X22273658Y-13868960D02*
X22254610Y-13878484D01*
X22254610Y-13878484D02*
X22235563Y-13878484D01*
X22235563Y-13878484D02*
X22216515Y-13868960D01*
X22216515Y-13868960D02*
X22206991Y-13859436D01*
X22206991Y-13859436D02*
X22197467Y-13840388D01*
X22197467Y-13840388D02*
X22187944Y-13802293D01*
X22187944Y-13802293D02*
X22187944Y-13754674D01*
X22187944Y-13754674D02*
X22197467Y-13716579D01*
X22197467Y-13716579D02*
X22206991Y-13697531D01*
X22206991Y-13697531D02*
X22216515Y-13688008D01*
X22216515Y-13688008D02*
X22235563Y-13678484D01*
X22426039Y-13678484D02*
X22445086Y-13678484D01*
X22445086Y-13678484D02*
X22464134Y-13688008D01*
X22464134Y-13688008D02*
X22473658Y-13697531D01*
X22473658Y-13697531D02*
X22483182Y-13716579D01*
X22483182Y-13716579D02*
X22492705Y-13754674D01*
X22492705Y-13754674D02*
X22492705Y-13802293D01*
X22492705Y-13802293D02*
X22483182Y-13840388D01*
X22483182Y-13840388D02*
X22473658Y-13859436D01*
X22473658Y-13859436D02*
X22464134Y-13868960D01*
X22464134Y-13868960D02*
X22445086Y-13878484D01*
X22445086Y-13878484D02*
X22426039Y-13878484D01*
X22426039Y-13878484D02*
X22406991Y-13868960D01*
X22406991Y-13868960D02*
X22397467Y-13859436D01*
X22397467Y-13859436D02*
X22387943Y-13840388D01*
X22387943Y-13840388D02*
X22378420Y-13802293D01*
X22378420Y-13802293D02*
X22378420Y-13754674D01*
X22378420Y-13754674D02*
X22387943Y-13716579D01*
X22387943Y-13716579D02*
X22397467Y-13697531D01*
X22397467Y-13697531D02*
X22406991Y-13688008D01*
X22406991Y-13688008D02*
X22426039Y-13678484D01*
X22578420Y-13878484D02*
X22578420Y-13745150D01*
X22578420Y-13764198D02*
X22587943Y-13754674D01*
X22587943Y-13754674D02*
X22606991Y-13745150D01*
X22606991Y-13745150D02*
X22635563Y-13745150D01*
X22635563Y-13745150D02*
X22654610Y-13754674D01*
X22654610Y-13754674D02*
X22664134Y-13773722D01*
X22664134Y-13773722D02*
X22664134Y-13878484D01*
X22664134Y-13773722D02*
X22673658Y-13754674D01*
X22673658Y-13754674D02*
X22692705Y-13745150D01*
X22692705Y-13745150D02*
X22721277Y-13745150D01*
X22721277Y-13745150D02*
X22740324Y-13754674D01*
X22740324Y-13754674D02*
X22749848Y-13773722D01*
X22749848Y-13773722D02*
X22749848Y-13878484D01*
X22845086Y-13878484D02*
X22845086Y-13745150D01*
X22845086Y-13764198D02*
X22854610Y-13754674D01*
X22854610Y-13754674D02*
X22873658Y-13745150D01*
X22873658Y-13745150D02*
X22902229Y-13745150D01*
X22902229Y-13745150D02*
X22921277Y-13754674D01*
X22921277Y-13754674D02*
X22930801Y-13773722D01*
X22930801Y-13773722D02*
X22930801Y-13878484D01*
X22930801Y-13773722D02*
X22940324Y-13754674D01*
X22940324Y-13754674D02*
X22959372Y-13745150D01*
X22959372Y-13745150D02*
X22987943Y-13745150D01*
X22987943Y-13745150D02*
X23006991Y-13754674D01*
X23006991Y-13754674D02*
X23016515Y-13773722D01*
X23016515Y-13773722D02*
X23016515Y-13878484D01*
X23406991Y-13668960D02*
X23235563Y-13926103D01*
X23664134Y-13678484D02*
X23683182Y-13678484D01*
X23683182Y-13678484D02*
X23702229Y-13688008D01*
X23702229Y-13688008D02*
X23711753Y-13697531D01*
X23711753Y-13697531D02*
X23721277Y-13716579D01*
X23721277Y-13716579D02*
X23730801Y-13754674D01*
X23730801Y-13754674D02*
X23730801Y-13802293D01*
X23730801Y-13802293D02*
X23721277Y-13840388D01*
X23721277Y-13840388D02*
X23711753Y-13859436D01*
X23711753Y-13859436D02*
X23702229Y-13868960D01*
X23702229Y-13868960D02*
X23683182Y-13878484D01*
X23683182Y-13878484D02*
X23664134Y-13878484D01*
X23664134Y-13878484D02*
X23645086Y-13868960D01*
X23645086Y-13868960D02*
X23635563Y-13859436D01*
X23635563Y-13859436D02*
X23626039Y-13840388D01*
X23626039Y-13840388D02*
X23616515Y-13802293D01*
X23616515Y-13802293D02*
X23616515Y-13754674D01*
X23616515Y-13754674D02*
X23626039Y-13716579D01*
X23626039Y-13716579D02*
X23635563Y-13697531D01*
X23635563Y-13697531D02*
X23645086Y-13688008D01*
X23645086Y-13688008D02*
X23664134Y-13678484D01*
X23816515Y-13859436D02*
X23826039Y-13868960D01*
X23826039Y-13868960D02*
X23816515Y-13878484D01*
X23816515Y-13878484D02*
X23806991Y-13868960D01*
X23806991Y-13868960D02*
X23816515Y-13859436D01*
X23816515Y-13859436D02*
X23816515Y-13878484D01*
X23949848Y-13678484D02*
X23968896Y-13678484D01*
X23968896Y-13678484D02*
X23987944Y-13688008D01*
X23987944Y-13688008D02*
X23997467Y-13697531D01*
X23997467Y-13697531D02*
X24006991Y-13716579D01*
X24006991Y-13716579D02*
X24016515Y-13754674D01*
X24016515Y-13754674D02*
X24016515Y-13802293D01*
X24016515Y-13802293D02*
X24006991Y-13840388D01*
X24006991Y-13840388D02*
X23997467Y-13859436D01*
X23997467Y-13859436D02*
X23987944Y-13868960D01*
X23987944Y-13868960D02*
X23968896Y-13878484D01*
X23968896Y-13878484D02*
X23949848Y-13878484D01*
X23949848Y-13878484D02*
X23930801Y-13868960D01*
X23930801Y-13868960D02*
X23921277Y-13859436D01*
X23921277Y-13859436D02*
X23911753Y-13840388D01*
X23911753Y-13840388D02*
X23902229Y-13802293D01*
X23902229Y-13802293D02*
X23902229Y-13754674D01*
X23902229Y-13754674D02*
X23911753Y-13716579D01*
X23911753Y-13716579D02*
X23921277Y-13697531D01*
X23921277Y-13697531D02*
X23930801Y-13688008D01*
X23930801Y-13688008D02*
X23949848Y-13678484D01*
X24206991Y-13878484D02*
X24092706Y-13878484D01*
X24149848Y-13878484D02*
X24149848Y-13678484D01*
X24149848Y-13678484D02*
X24130801Y-13707055D01*
X24130801Y-13707055D02*
X24111753Y-13726103D01*
X24111753Y-13726103D02*
X24092706Y-13735627D01*
X24397467Y-13878484D02*
X24283182Y-13878484D01*
X24340325Y-13878484D02*
X24340325Y-13678484D01*
X24340325Y-13678484D02*
X24321277Y-13707055D01*
X24321277Y-13707055D02*
X24302229Y-13726103D01*
X24302229Y-13726103D02*
X24283182Y-13735627D01*
X24511753Y-13764198D02*
X24492706Y-13754674D01*
X24492706Y-13754674D02*
X24483182Y-13745150D01*
X24483182Y-13745150D02*
X24473658Y-13726103D01*
X24473658Y-13726103D02*
X24473658Y-13716579D01*
X24473658Y-13716579D02*
X24483182Y-13697531D01*
X24483182Y-13697531D02*
X24492706Y-13688008D01*
X24492706Y-13688008D02*
X24511753Y-13678484D01*
X24511753Y-13678484D02*
X24549848Y-13678484D01*
X24549848Y-13678484D02*
X24568896Y-13688008D01*
X24568896Y-13688008D02*
X24578420Y-13697531D01*
X24578420Y-13697531D02*
X24587944Y-13716579D01*
X24587944Y-13716579D02*
X24587944Y-13726103D01*
X24587944Y-13726103D02*
X24578420Y-13745150D01*
X24578420Y-13745150D02*
X24568896Y-13754674D01*
X24568896Y-13754674D02*
X24549848Y-13764198D01*
X24549848Y-13764198D02*
X24511753Y-13764198D01*
X24511753Y-13764198D02*
X24492706Y-13773722D01*
X24492706Y-13773722D02*
X24483182Y-13783246D01*
X24483182Y-13783246D02*
X24473658Y-13802293D01*
X24473658Y-13802293D02*
X24473658Y-13840388D01*
X24473658Y-13840388D02*
X24483182Y-13859436D01*
X24483182Y-13859436D02*
X24492706Y-13868960D01*
X24492706Y-13868960D02*
X24511753Y-13878484D01*
X24511753Y-13878484D02*
X24549848Y-13878484D01*
X24549848Y-13878484D02*
X24568896Y-13868960D01*
X24568896Y-13868960D02*
X24578420Y-13859436D01*
X24578420Y-13859436D02*
X24587944Y-13840388D01*
X24587944Y-13840388D02*
X24587944Y-13802293D01*
X24587944Y-13802293D02*
X24578420Y-13783246D01*
X24578420Y-13783246D02*
X24568896Y-13773722D01*
X24568896Y-13773722D02*
X24549848Y-13764198D01*
X24664134Y-13678484D02*
X24664134Y-13716579D01*
X24740325Y-13678484D02*
X24740325Y-13716579D01*
X25035563Y-13954674D02*
X25026039Y-13945150D01*
X25026039Y-13945150D02*
X25006991Y-13916579D01*
X25006991Y-13916579D02*
X24997468Y-13897531D01*
X24997468Y-13897531D02*
X24987944Y-13868960D01*
X24987944Y-13868960D02*
X24978420Y-13821341D01*
X24978420Y-13821341D02*
X24978420Y-13783246D01*
X24978420Y-13783246D02*
X24987944Y-13735627D01*
X24987944Y-13735627D02*
X24997468Y-13707055D01*
X24997468Y-13707055D02*
X25006991Y-13688008D01*
X25006991Y-13688008D02*
X25026039Y-13659436D01*
X25026039Y-13659436D02*
X25035563Y-13649912D01*
X25102229Y-13697531D02*
X25111753Y-13688008D01*
X25111753Y-13688008D02*
X25130801Y-13678484D01*
X25130801Y-13678484D02*
X25178420Y-13678484D01*
X25178420Y-13678484D02*
X25197468Y-13688008D01*
X25197468Y-13688008D02*
X25206991Y-13697531D01*
X25206991Y-13697531D02*
X25216515Y-13716579D01*
X25216515Y-13716579D02*
X25216515Y-13735627D01*
X25216515Y-13735627D02*
X25206991Y-13764198D01*
X25206991Y-13764198D02*
X25092706Y-13878484D01*
X25092706Y-13878484D02*
X25216515Y-13878484D01*
X25283182Y-13678484D02*
X25406991Y-13678484D01*
X25406991Y-13678484D02*
X25340325Y-13754674D01*
X25340325Y-13754674D02*
X25368896Y-13754674D01*
X25368896Y-13754674D02*
X25387944Y-13764198D01*
X25387944Y-13764198D02*
X25397468Y-13773722D01*
X25397468Y-13773722D02*
X25406991Y-13792769D01*
X25406991Y-13792769D02*
X25406991Y-13840388D01*
X25406991Y-13840388D02*
X25397468Y-13859436D01*
X25397468Y-13859436D02*
X25387944Y-13868960D01*
X25387944Y-13868960D02*
X25368896Y-13878484D01*
X25368896Y-13878484D02*
X25311753Y-13878484D01*
X25311753Y-13878484D02*
X25292706Y-13868960D01*
X25292706Y-13868960D02*
X25283182Y-13859436D01*
X25645087Y-13878484D02*
X25645087Y-13678484D01*
X25730801Y-13878484D02*
X25730801Y-13773722D01*
X25730801Y-13773722D02*
X25721277Y-13754674D01*
X25721277Y-13754674D02*
X25702230Y-13745150D01*
X25702230Y-13745150D02*
X25673658Y-13745150D01*
X25673658Y-13745150D02*
X25654610Y-13754674D01*
X25654610Y-13754674D02*
X25645087Y-13764198D01*
X25854610Y-13878484D02*
X25835563Y-13868960D01*
X25835563Y-13868960D02*
X25826039Y-13859436D01*
X25826039Y-13859436D02*
X25816515Y-13840388D01*
X25816515Y-13840388D02*
X25816515Y-13783246D01*
X25816515Y-13783246D02*
X25826039Y-13764198D01*
X25826039Y-13764198D02*
X25835563Y-13754674D01*
X25835563Y-13754674D02*
X25854610Y-13745150D01*
X25854610Y-13745150D02*
X25883182Y-13745150D01*
X25883182Y-13745150D02*
X25902230Y-13754674D01*
X25902230Y-13754674D02*
X25911753Y-13764198D01*
X25911753Y-13764198D02*
X25921277Y-13783246D01*
X25921277Y-13783246D02*
X25921277Y-13840388D01*
X25921277Y-13840388D02*
X25911753Y-13859436D01*
X25911753Y-13859436D02*
X25902230Y-13868960D01*
X25902230Y-13868960D02*
X25883182Y-13878484D01*
X25883182Y-13878484D02*
X25854610Y-13878484D01*
X26035563Y-13878484D02*
X26016515Y-13868960D01*
X26016515Y-13868960D02*
X26006991Y-13849912D01*
X26006991Y-13849912D02*
X26006991Y-13678484D01*
X26187944Y-13868960D02*
X26168896Y-13878484D01*
X26168896Y-13878484D02*
X26130801Y-13878484D01*
X26130801Y-13878484D02*
X26111753Y-13868960D01*
X26111753Y-13868960D02*
X26102230Y-13849912D01*
X26102230Y-13849912D02*
X26102230Y-13773722D01*
X26102230Y-13773722D02*
X26111753Y-13754674D01*
X26111753Y-13754674D02*
X26130801Y-13745150D01*
X26130801Y-13745150D02*
X26168896Y-13745150D01*
X26168896Y-13745150D02*
X26187944Y-13754674D01*
X26187944Y-13754674D02*
X26197468Y-13773722D01*
X26197468Y-13773722D02*
X26197468Y-13792769D01*
X26197468Y-13792769D02*
X26102230Y-13811817D01*
X26273658Y-13868960D02*
X26292706Y-13878484D01*
X26292706Y-13878484D02*
X26330801Y-13878484D01*
X26330801Y-13878484D02*
X26349849Y-13868960D01*
X26349849Y-13868960D02*
X26359372Y-13849912D01*
X26359372Y-13849912D02*
X26359372Y-13840388D01*
X26359372Y-13840388D02*
X26349849Y-13821341D01*
X26349849Y-13821341D02*
X26330801Y-13811817D01*
X26330801Y-13811817D02*
X26302230Y-13811817D01*
X26302230Y-13811817D02*
X26283182Y-13802293D01*
X26283182Y-13802293D02*
X26273658Y-13783246D01*
X26273658Y-13783246D02*
X26273658Y-13773722D01*
X26273658Y-13773722D02*
X26283182Y-13754674D01*
X26283182Y-13754674D02*
X26302230Y-13745150D01*
X26302230Y-13745150D02*
X26330801Y-13745150D01*
X26330801Y-13745150D02*
X26349849Y-13754674D01*
X26426039Y-13954674D02*
X26435563Y-13945150D01*
X26435563Y-13945150D02*
X26454611Y-13916579D01*
X26454611Y-13916579D02*
X26464134Y-13897531D01*
X26464134Y-13897531D02*
X26473658Y-13868960D01*
X26473658Y-13868960D02*
X26483182Y-13821341D01*
X26483182Y-13821341D02*
X26483182Y-13783246D01*
X26483182Y-13783246D02*
X26473658Y-13735627D01*
X26473658Y-13735627D02*
X26464134Y-13707055D01*
X26464134Y-13707055D02*
X26454611Y-13688008D01*
X26454611Y-13688008D02*
X26435563Y-13659436D01*
X26435563Y-13659436D02*
X26426039Y-13649912D01*
D12*
X21460500Y-14051000D02*
G75*
G02*
X21380500Y-14051000I-40000J0D01*
G01*
X21380500Y-14051000D02*
G75*
G02*
X21460500Y-14051000I40000J0D01*
G01*
D11*
X21759372Y-13942484D02*
X21778420Y-13942484D01*
X21778420Y-13942484D02*
X21797467Y-13952008D01*
X21797467Y-13952008D02*
X21806991Y-13961531D01*
X21806991Y-13961531D02*
X21816515Y-13980579D01*
X21816515Y-13980579D02*
X21826039Y-14018674D01*
X21826039Y-14018674D02*
X21826039Y-14066293D01*
X21826039Y-14066293D02*
X21816515Y-14104388D01*
X21816515Y-14104388D02*
X21806991Y-14123436D01*
X21806991Y-14123436D02*
X21797467Y-14132960D01*
X21797467Y-14132960D02*
X21778420Y-14142484D01*
X21778420Y-14142484D02*
X21759372Y-14142484D01*
X21759372Y-14142484D02*
X21740324Y-14132960D01*
X21740324Y-14132960D02*
X21730801Y-14123436D01*
X21730801Y-14123436D02*
X21721277Y-14104388D01*
X21721277Y-14104388D02*
X21711753Y-14066293D01*
X21711753Y-14066293D02*
X21711753Y-14018674D01*
X21711753Y-14018674D02*
X21721277Y-13980579D01*
X21721277Y-13980579D02*
X21730801Y-13961531D01*
X21730801Y-13961531D02*
X21740324Y-13952008D01*
X21740324Y-13952008D02*
X21759372Y-13942484D01*
X21911753Y-14123436D02*
X21921277Y-14132960D01*
X21921277Y-14132960D02*
X21911753Y-14142484D01*
X21911753Y-14142484D02*
X21902229Y-14132960D01*
X21902229Y-14132960D02*
X21911753Y-14123436D01*
X21911753Y-14123436D02*
X21911753Y-14142484D01*
X22035563Y-14028198D02*
X22016515Y-14018674D01*
X22016515Y-14018674D02*
X22006991Y-14009150D01*
X22006991Y-14009150D02*
X21997467Y-13990103D01*
X21997467Y-13990103D02*
X21997467Y-13980579D01*
X21997467Y-13980579D02*
X22006991Y-13961531D01*
X22006991Y-13961531D02*
X22016515Y-13952008D01*
X22016515Y-13952008D02*
X22035563Y-13942484D01*
X22035563Y-13942484D02*
X22073658Y-13942484D01*
X22073658Y-13942484D02*
X22092705Y-13952008D01*
X22092705Y-13952008D02*
X22102229Y-13961531D01*
X22102229Y-13961531D02*
X22111753Y-13980579D01*
X22111753Y-13980579D02*
X22111753Y-13990103D01*
X22111753Y-13990103D02*
X22102229Y-14009150D01*
X22102229Y-14009150D02*
X22092705Y-14018674D01*
X22092705Y-14018674D02*
X22073658Y-14028198D01*
X22073658Y-14028198D02*
X22035563Y-14028198D01*
X22035563Y-14028198D02*
X22016515Y-14037722D01*
X22016515Y-14037722D02*
X22006991Y-14047246D01*
X22006991Y-14047246D02*
X21997467Y-14066293D01*
X21997467Y-14066293D02*
X21997467Y-14104388D01*
X21997467Y-14104388D02*
X22006991Y-14123436D01*
X22006991Y-14123436D02*
X22016515Y-14132960D01*
X22016515Y-14132960D02*
X22035563Y-14142484D01*
X22035563Y-14142484D02*
X22073658Y-14142484D01*
X22073658Y-14142484D02*
X22092705Y-14132960D01*
X22092705Y-14132960D02*
X22102229Y-14123436D01*
X22102229Y-14123436D02*
X22111753Y-14104388D01*
X22111753Y-14104388D02*
X22111753Y-14066293D01*
X22111753Y-14066293D02*
X22102229Y-14047246D01*
X22102229Y-14047246D02*
X22092705Y-14037722D01*
X22092705Y-14037722D02*
X22073658Y-14028198D01*
X22235563Y-13942484D02*
X22254610Y-13942484D01*
X22254610Y-13942484D02*
X22273658Y-13952008D01*
X22273658Y-13952008D02*
X22283182Y-13961531D01*
X22283182Y-13961531D02*
X22292705Y-13980579D01*
X22292705Y-13980579D02*
X22302229Y-14018674D01*
X22302229Y-14018674D02*
X22302229Y-14066293D01*
X22302229Y-14066293D02*
X22292705Y-14104388D01*
X22292705Y-14104388D02*
X22283182Y-14123436D01*
X22283182Y-14123436D02*
X22273658Y-14132960D01*
X22273658Y-14132960D02*
X22254610Y-14142484D01*
X22254610Y-14142484D02*
X22235563Y-14142484D01*
X22235563Y-14142484D02*
X22216515Y-14132960D01*
X22216515Y-14132960D02*
X22206991Y-14123436D01*
X22206991Y-14123436D02*
X22197467Y-14104388D01*
X22197467Y-14104388D02*
X22187944Y-14066293D01*
X22187944Y-14066293D02*
X22187944Y-14018674D01*
X22187944Y-14018674D02*
X22197467Y-13980579D01*
X22197467Y-13980579D02*
X22206991Y-13961531D01*
X22206991Y-13961531D02*
X22216515Y-13952008D01*
X22216515Y-13952008D02*
X22235563Y-13942484D01*
X22426039Y-13942484D02*
X22445086Y-13942484D01*
X22445086Y-13942484D02*
X22464134Y-13952008D01*
X22464134Y-13952008D02*
X22473658Y-13961531D01*
X22473658Y-13961531D02*
X22483182Y-13980579D01*
X22483182Y-13980579D02*
X22492705Y-14018674D01*
X22492705Y-14018674D02*
X22492705Y-14066293D01*
X22492705Y-14066293D02*
X22483182Y-14104388D01*
X22483182Y-14104388D02*
X22473658Y-14123436D01*
X22473658Y-14123436D02*
X22464134Y-14132960D01*
X22464134Y-14132960D02*
X22445086Y-14142484D01*
X22445086Y-14142484D02*
X22426039Y-14142484D01*
X22426039Y-14142484D02*
X22406991Y-14132960D01*
X22406991Y-14132960D02*
X22397467Y-14123436D01*
X22397467Y-14123436D02*
X22387943Y-14104388D01*
X22387943Y-14104388D02*
X22378420Y-14066293D01*
X22378420Y-14066293D02*
X22378420Y-14018674D01*
X22378420Y-14018674D02*
X22387943Y-13980579D01*
X22387943Y-13980579D02*
X22397467Y-13961531D01*
X22397467Y-13961531D02*
X22406991Y-13952008D01*
X22406991Y-13952008D02*
X22426039Y-13942484D01*
X22578420Y-14142484D02*
X22578420Y-14009150D01*
X22578420Y-14028198D02*
X22587943Y-14018674D01*
X22587943Y-14018674D02*
X22606991Y-14009150D01*
X22606991Y-14009150D02*
X22635563Y-14009150D01*
X22635563Y-14009150D02*
X22654610Y-14018674D01*
X22654610Y-14018674D02*
X22664134Y-14037722D01*
X22664134Y-14037722D02*
X22664134Y-14142484D01*
X22664134Y-14037722D02*
X22673658Y-14018674D01*
X22673658Y-14018674D02*
X22692705Y-14009150D01*
X22692705Y-14009150D02*
X22721277Y-14009150D01*
X22721277Y-14009150D02*
X22740324Y-14018674D01*
X22740324Y-14018674D02*
X22749848Y-14037722D01*
X22749848Y-14037722D02*
X22749848Y-14142484D01*
X22845086Y-14142484D02*
X22845086Y-14009150D01*
X22845086Y-14028198D02*
X22854610Y-14018674D01*
X22854610Y-14018674D02*
X22873658Y-14009150D01*
X22873658Y-14009150D02*
X22902229Y-14009150D01*
X22902229Y-14009150D02*
X22921277Y-14018674D01*
X22921277Y-14018674D02*
X22930801Y-14037722D01*
X22930801Y-14037722D02*
X22930801Y-14142484D01*
X22930801Y-14037722D02*
X22940324Y-14018674D01*
X22940324Y-14018674D02*
X22959372Y-14009150D01*
X22959372Y-14009150D02*
X22987943Y-14009150D01*
X22987943Y-14009150D02*
X23006991Y-14018674D01*
X23006991Y-14018674D02*
X23016515Y-14037722D01*
X23016515Y-14037722D02*
X23016515Y-14142484D01*
X23406991Y-13932960D02*
X23235563Y-14190103D01*
X23664134Y-13942484D02*
X23683182Y-13942484D01*
X23683182Y-13942484D02*
X23702229Y-13952008D01*
X23702229Y-13952008D02*
X23711753Y-13961531D01*
X23711753Y-13961531D02*
X23721277Y-13980579D01*
X23721277Y-13980579D02*
X23730801Y-14018674D01*
X23730801Y-14018674D02*
X23730801Y-14066293D01*
X23730801Y-14066293D02*
X23721277Y-14104388D01*
X23721277Y-14104388D02*
X23711753Y-14123436D01*
X23711753Y-14123436D02*
X23702229Y-14132960D01*
X23702229Y-14132960D02*
X23683182Y-14142484D01*
X23683182Y-14142484D02*
X23664134Y-14142484D01*
X23664134Y-14142484D02*
X23645086Y-14132960D01*
X23645086Y-14132960D02*
X23635563Y-14123436D01*
X23635563Y-14123436D02*
X23626039Y-14104388D01*
X23626039Y-14104388D02*
X23616515Y-14066293D01*
X23616515Y-14066293D02*
X23616515Y-14018674D01*
X23616515Y-14018674D02*
X23626039Y-13980579D01*
X23626039Y-13980579D02*
X23635563Y-13961531D01*
X23635563Y-13961531D02*
X23645086Y-13952008D01*
X23645086Y-13952008D02*
X23664134Y-13942484D01*
X23816515Y-14123436D02*
X23826039Y-14132960D01*
X23826039Y-14132960D02*
X23816515Y-14142484D01*
X23816515Y-14142484D02*
X23806991Y-14132960D01*
X23806991Y-14132960D02*
X23816515Y-14123436D01*
X23816515Y-14123436D02*
X23816515Y-14142484D01*
X23949848Y-13942484D02*
X23968896Y-13942484D01*
X23968896Y-13942484D02*
X23987944Y-13952008D01*
X23987944Y-13952008D02*
X23997467Y-13961531D01*
X23997467Y-13961531D02*
X24006991Y-13980579D01*
X24006991Y-13980579D02*
X24016515Y-14018674D01*
X24016515Y-14018674D02*
X24016515Y-14066293D01*
X24016515Y-14066293D02*
X24006991Y-14104388D01*
X24006991Y-14104388D02*
X23997467Y-14123436D01*
X23997467Y-14123436D02*
X23987944Y-14132960D01*
X23987944Y-14132960D02*
X23968896Y-14142484D01*
X23968896Y-14142484D02*
X23949848Y-14142484D01*
X23949848Y-14142484D02*
X23930801Y-14132960D01*
X23930801Y-14132960D02*
X23921277Y-14123436D01*
X23921277Y-14123436D02*
X23911753Y-14104388D01*
X23911753Y-14104388D02*
X23902229Y-14066293D01*
X23902229Y-14066293D02*
X23902229Y-14018674D01*
X23902229Y-14018674D02*
X23911753Y-13980579D01*
X23911753Y-13980579D02*
X23921277Y-13961531D01*
X23921277Y-13961531D02*
X23930801Y-13952008D01*
X23930801Y-13952008D02*
X23949848Y-13942484D01*
X24083182Y-13942484D02*
X24206991Y-13942484D01*
X24206991Y-13942484D02*
X24140325Y-14018674D01*
X24140325Y-14018674D02*
X24168896Y-14018674D01*
X24168896Y-14018674D02*
X24187944Y-14028198D01*
X24187944Y-14028198D02*
X24197467Y-14037722D01*
X24197467Y-14037722D02*
X24206991Y-14056769D01*
X24206991Y-14056769D02*
X24206991Y-14104388D01*
X24206991Y-14104388D02*
X24197467Y-14123436D01*
X24197467Y-14123436D02*
X24187944Y-14132960D01*
X24187944Y-14132960D02*
X24168896Y-14142484D01*
X24168896Y-14142484D02*
X24111753Y-14142484D01*
X24111753Y-14142484D02*
X24092706Y-14132960D01*
X24092706Y-14132960D02*
X24083182Y-14123436D01*
X24397467Y-14142484D02*
X24283182Y-14142484D01*
X24340325Y-14142484D02*
X24340325Y-13942484D01*
X24340325Y-13942484D02*
X24321277Y-13971055D01*
X24321277Y-13971055D02*
X24302229Y-13990103D01*
X24302229Y-13990103D02*
X24283182Y-13999627D01*
X24578420Y-13942484D02*
X24483182Y-13942484D01*
X24483182Y-13942484D02*
X24473658Y-14037722D01*
X24473658Y-14037722D02*
X24483182Y-14028198D01*
X24483182Y-14028198D02*
X24502229Y-14018674D01*
X24502229Y-14018674D02*
X24549848Y-14018674D01*
X24549848Y-14018674D02*
X24568896Y-14028198D01*
X24568896Y-14028198D02*
X24578420Y-14037722D01*
X24578420Y-14037722D02*
X24587944Y-14056769D01*
X24587944Y-14056769D02*
X24587944Y-14104388D01*
X24587944Y-14104388D02*
X24578420Y-14123436D01*
X24578420Y-14123436D02*
X24568896Y-14132960D01*
X24568896Y-14132960D02*
X24549848Y-14142484D01*
X24549848Y-14142484D02*
X24502229Y-14142484D01*
X24502229Y-14142484D02*
X24483182Y-14132960D01*
X24483182Y-14132960D02*
X24473658Y-14123436D01*
X24664134Y-13942484D02*
X24664134Y-13980579D01*
X24740325Y-13942484D02*
X24740325Y-13980579D01*
X25035563Y-14218674D02*
X25026039Y-14209150D01*
X25026039Y-14209150D02*
X25006991Y-14180579D01*
X25006991Y-14180579D02*
X24997468Y-14161531D01*
X24997468Y-14161531D02*
X24987944Y-14132960D01*
X24987944Y-14132960D02*
X24978420Y-14085341D01*
X24978420Y-14085341D02*
X24978420Y-14047246D01*
X24978420Y-14047246D02*
X24987944Y-13999627D01*
X24987944Y-13999627D02*
X24997468Y-13971055D01*
X24997468Y-13971055D02*
X25006991Y-13952008D01*
X25006991Y-13952008D02*
X25026039Y-13923436D01*
X25026039Y-13923436D02*
X25035563Y-13913912D01*
X25216515Y-14142484D02*
X25102229Y-14142484D01*
X25159372Y-14142484D02*
X25159372Y-13942484D01*
X25159372Y-13942484D02*
X25140325Y-13971055D01*
X25140325Y-13971055D02*
X25121277Y-13990103D01*
X25121277Y-13990103D02*
X25102229Y-13999627D01*
X25397468Y-13942484D02*
X25302229Y-13942484D01*
X25302229Y-13942484D02*
X25292706Y-14037722D01*
X25292706Y-14037722D02*
X25302229Y-14028198D01*
X25302229Y-14028198D02*
X25321277Y-14018674D01*
X25321277Y-14018674D02*
X25368896Y-14018674D01*
X25368896Y-14018674D02*
X25387944Y-14028198D01*
X25387944Y-14028198D02*
X25397468Y-14037722D01*
X25397468Y-14037722D02*
X25406991Y-14056769D01*
X25406991Y-14056769D02*
X25406991Y-14104388D01*
X25406991Y-14104388D02*
X25397468Y-14123436D01*
X25397468Y-14123436D02*
X25387944Y-14132960D01*
X25387944Y-14132960D02*
X25368896Y-14142484D01*
X25368896Y-14142484D02*
X25321277Y-14142484D01*
X25321277Y-14142484D02*
X25302229Y-14132960D01*
X25302229Y-14132960D02*
X25292706Y-14123436D01*
X25645087Y-14142484D02*
X25645087Y-13942484D01*
X25730801Y-14142484D02*
X25730801Y-14037722D01*
X25730801Y-14037722D02*
X25721277Y-14018674D01*
X25721277Y-14018674D02*
X25702230Y-14009150D01*
X25702230Y-14009150D02*
X25673658Y-14009150D01*
X25673658Y-14009150D02*
X25654610Y-14018674D01*
X25654610Y-14018674D02*
X25645087Y-14028198D01*
X25854610Y-14142484D02*
X25835563Y-14132960D01*
X25835563Y-14132960D02*
X25826039Y-14123436D01*
X25826039Y-14123436D02*
X25816515Y-14104388D01*
X25816515Y-14104388D02*
X25816515Y-14047246D01*
X25816515Y-14047246D02*
X25826039Y-14028198D01*
X25826039Y-14028198D02*
X25835563Y-14018674D01*
X25835563Y-14018674D02*
X25854610Y-14009150D01*
X25854610Y-14009150D02*
X25883182Y-14009150D01*
X25883182Y-14009150D02*
X25902230Y-14018674D01*
X25902230Y-14018674D02*
X25911753Y-14028198D01*
X25911753Y-14028198D02*
X25921277Y-14047246D01*
X25921277Y-14047246D02*
X25921277Y-14104388D01*
X25921277Y-14104388D02*
X25911753Y-14123436D01*
X25911753Y-14123436D02*
X25902230Y-14132960D01*
X25902230Y-14132960D02*
X25883182Y-14142484D01*
X25883182Y-14142484D02*
X25854610Y-14142484D01*
X26035563Y-14142484D02*
X26016515Y-14132960D01*
X26016515Y-14132960D02*
X26006991Y-14113912D01*
X26006991Y-14113912D02*
X26006991Y-13942484D01*
X26187944Y-14132960D02*
X26168896Y-14142484D01*
X26168896Y-14142484D02*
X26130801Y-14142484D01*
X26130801Y-14142484D02*
X26111753Y-14132960D01*
X26111753Y-14132960D02*
X26102230Y-14113912D01*
X26102230Y-14113912D02*
X26102230Y-14037722D01*
X26102230Y-14037722D02*
X26111753Y-14018674D01*
X26111753Y-14018674D02*
X26130801Y-14009150D01*
X26130801Y-14009150D02*
X26168896Y-14009150D01*
X26168896Y-14009150D02*
X26187944Y-14018674D01*
X26187944Y-14018674D02*
X26197468Y-14037722D01*
X26197468Y-14037722D02*
X26197468Y-14056769D01*
X26197468Y-14056769D02*
X26102230Y-14075817D01*
X26273658Y-14132960D02*
X26292706Y-14142484D01*
X26292706Y-14142484D02*
X26330801Y-14142484D01*
X26330801Y-14142484D02*
X26349849Y-14132960D01*
X26349849Y-14132960D02*
X26359372Y-14113912D01*
X26359372Y-14113912D02*
X26359372Y-14104388D01*
X26359372Y-14104388D02*
X26349849Y-14085341D01*
X26349849Y-14085341D02*
X26330801Y-14075817D01*
X26330801Y-14075817D02*
X26302230Y-14075817D01*
X26302230Y-14075817D02*
X26283182Y-14066293D01*
X26283182Y-14066293D02*
X26273658Y-14047246D01*
X26273658Y-14047246D02*
X26273658Y-14037722D01*
X26273658Y-14037722D02*
X26283182Y-14018674D01*
X26283182Y-14018674D02*
X26302230Y-14009150D01*
X26302230Y-14009150D02*
X26330801Y-14009150D01*
X26330801Y-14009150D02*
X26349849Y-14018674D01*
X26426039Y-14218674D02*
X26435563Y-14209150D01*
X26435563Y-14209150D02*
X26454611Y-14180579D01*
X26454611Y-14180579D02*
X26464134Y-14161531D01*
X26464134Y-14161531D02*
X26473658Y-14132960D01*
X26473658Y-14132960D02*
X26483182Y-14085341D01*
X26483182Y-14085341D02*
X26483182Y-14047246D01*
X26483182Y-14047246D02*
X26473658Y-13999627D01*
X26473658Y-13999627D02*
X26464134Y-13971055D01*
X26464134Y-13971055D02*
X26454611Y-13952008D01*
X26454611Y-13952008D02*
X26435563Y-13923436D01*
X26435563Y-13923436D02*
X26426039Y-13913912D01*
D12*
X21410500Y-14265000D02*
X21410500Y-14365000D01*
X21360500Y-14315000D02*
X21460500Y-14315000D01*
D11*
X21826039Y-14406484D02*
X21711753Y-14406484D01*
X21768896Y-14406484D02*
X21768896Y-14206484D01*
X21768896Y-14206484D02*
X21749848Y-14235055D01*
X21749848Y-14235055D02*
X21730801Y-14254103D01*
X21730801Y-14254103D02*
X21711753Y-14263627D01*
X21911753Y-14387436D02*
X21921277Y-14396960D01*
X21921277Y-14396960D02*
X21911753Y-14406484D01*
X21911753Y-14406484D02*
X21902229Y-14396960D01*
X21902229Y-14396960D02*
X21911753Y-14387436D01*
X21911753Y-14387436D02*
X21911753Y-14406484D01*
X22045086Y-14206484D02*
X22064134Y-14206484D01*
X22064134Y-14206484D02*
X22083182Y-14216008D01*
X22083182Y-14216008D02*
X22092705Y-14225531D01*
X22092705Y-14225531D02*
X22102229Y-14244579D01*
X22102229Y-14244579D02*
X22111753Y-14282674D01*
X22111753Y-14282674D02*
X22111753Y-14330293D01*
X22111753Y-14330293D02*
X22102229Y-14368388D01*
X22102229Y-14368388D02*
X22092705Y-14387436D01*
X22092705Y-14387436D02*
X22083182Y-14396960D01*
X22083182Y-14396960D02*
X22064134Y-14406484D01*
X22064134Y-14406484D02*
X22045086Y-14406484D01*
X22045086Y-14406484D02*
X22026039Y-14396960D01*
X22026039Y-14396960D02*
X22016515Y-14387436D01*
X22016515Y-14387436D02*
X22006991Y-14368388D01*
X22006991Y-14368388D02*
X21997467Y-14330293D01*
X21997467Y-14330293D02*
X21997467Y-14282674D01*
X21997467Y-14282674D02*
X22006991Y-14244579D01*
X22006991Y-14244579D02*
X22016515Y-14225531D01*
X22016515Y-14225531D02*
X22026039Y-14216008D01*
X22026039Y-14216008D02*
X22045086Y-14206484D01*
X22235563Y-14206484D02*
X22254610Y-14206484D01*
X22254610Y-14206484D02*
X22273658Y-14216008D01*
X22273658Y-14216008D02*
X22283182Y-14225531D01*
X22283182Y-14225531D02*
X22292705Y-14244579D01*
X22292705Y-14244579D02*
X22302229Y-14282674D01*
X22302229Y-14282674D02*
X22302229Y-14330293D01*
X22302229Y-14330293D02*
X22292705Y-14368388D01*
X22292705Y-14368388D02*
X22283182Y-14387436D01*
X22283182Y-14387436D02*
X22273658Y-14396960D01*
X22273658Y-14396960D02*
X22254610Y-14406484D01*
X22254610Y-14406484D02*
X22235563Y-14406484D01*
X22235563Y-14406484D02*
X22216515Y-14396960D01*
X22216515Y-14396960D02*
X22206991Y-14387436D01*
X22206991Y-14387436D02*
X22197467Y-14368388D01*
X22197467Y-14368388D02*
X22187944Y-14330293D01*
X22187944Y-14330293D02*
X22187944Y-14282674D01*
X22187944Y-14282674D02*
X22197467Y-14244579D01*
X22197467Y-14244579D02*
X22206991Y-14225531D01*
X22206991Y-14225531D02*
X22216515Y-14216008D01*
X22216515Y-14216008D02*
X22235563Y-14206484D01*
X22426039Y-14206484D02*
X22445086Y-14206484D01*
X22445086Y-14206484D02*
X22464134Y-14216008D01*
X22464134Y-14216008D02*
X22473658Y-14225531D01*
X22473658Y-14225531D02*
X22483182Y-14244579D01*
X22483182Y-14244579D02*
X22492705Y-14282674D01*
X22492705Y-14282674D02*
X22492705Y-14330293D01*
X22492705Y-14330293D02*
X22483182Y-14368388D01*
X22483182Y-14368388D02*
X22473658Y-14387436D01*
X22473658Y-14387436D02*
X22464134Y-14396960D01*
X22464134Y-14396960D02*
X22445086Y-14406484D01*
X22445086Y-14406484D02*
X22426039Y-14406484D01*
X22426039Y-14406484D02*
X22406991Y-14396960D01*
X22406991Y-14396960D02*
X22397467Y-14387436D01*
X22397467Y-14387436D02*
X22387943Y-14368388D01*
X22387943Y-14368388D02*
X22378420Y-14330293D01*
X22378420Y-14330293D02*
X22378420Y-14282674D01*
X22378420Y-14282674D02*
X22387943Y-14244579D01*
X22387943Y-14244579D02*
X22397467Y-14225531D01*
X22397467Y-14225531D02*
X22406991Y-14216008D01*
X22406991Y-14216008D02*
X22426039Y-14206484D01*
X22578420Y-14406484D02*
X22578420Y-14273150D01*
X22578420Y-14292198D02*
X22587943Y-14282674D01*
X22587943Y-14282674D02*
X22606991Y-14273150D01*
X22606991Y-14273150D02*
X22635563Y-14273150D01*
X22635563Y-14273150D02*
X22654610Y-14282674D01*
X22654610Y-14282674D02*
X22664134Y-14301722D01*
X22664134Y-14301722D02*
X22664134Y-14406484D01*
X22664134Y-14301722D02*
X22673658Y-14282674D01*
X22673658Y-14282674D02*
X22692705Y-14273150D01*
X22692705Y-14273150D02*
X22721277Y-14273150D01*
X22721277Y-14273150D02*
X22740324Y-14282674D01*
X22740324Y-14282674D02*
X22749848Y-14301722D01*
X22749848Y-14301722D02*
X22749848Y-14406484D01*
X22845086Y-14406484D02*
X22845086Y-14273150D01*
X22845086Y-14292198D02*
X22854610Y-14282674D01*
X22854610Y-14282674D02*
X22873658Y-14273150D01*
X22873658Y-14273150D02*
X22902229Y-14273150D01*
X22902229Y-14273150D02*
X22921277Y-14282674D01*
X22921277Y-14282674D02*
X22930801Y-14301722D01*
X22930801Y-14301722D02*
X22930801Y-14406484D01*
X22930801Y-14301722D02*
X22940324Y-14282674D01*
X22940324Y-14282674D02*
X22959372Y-14273150D01*
X22959372Y-14273150D02*
X22987943Y-14273150D01*
X22987943Y-14273150D02*
X23006991Y-14282674D01*
X23006991Y-14282674D02*
X23016515Y-14301722D01*
X23016515Y-14301722D02*
X23016515Y-14406484D01*
X23406991Y-14196960D02*
X23235563Y-14454103D01*
X23664134Y-14206484D02*
X23683182Y-14206484D01*
X23683182Y-14206484D02*
X23702229Y-14216008D01*
X23702229Y-14216008D02*
X23711753Y-14225531D01*
X23711753Y-14225531D02*
X23721277Y-14244579D01*
X23721277Y-14244579D02*
X23730801Y-14282674D01*
X23730801Y-14282674D02*
X23730801Y-14330293D01*
X23730801Y-14330293D02*
X23721277Y-14368388D01*
X23721277Y-14368388D02*
X23711753Y-14387436D01*
X23711753Y-14387436D02*
X23702229Y-14396960D01*
X23702229Y-14396960D02*
X23683182Y-14406484D01*
X23683182Y-14406484D02*
X23664134Y-14406484D01*
X23664134Y-14406484D02*
X23645086Y-14396960D01*
X23645086Y-14396960D02*
X23635563Y-14387436D01*
X23635563Y-14387436D02*
X23626039Y-14368388D01*
X23626039Y-14368388D02*
X23616515Y-14330293D01*
X23616515Y-14330293D02*
X23616515Y-14282674D01*
X23616515Y-14282674D02*
X23626039Y-14244579D01*
X23626039Y-14244579D02*
X23635563Y-14225531D01*
X23635563Y-14225531D02*
X23645086Y-14216008D01*
X23645086Y-14216008D02*
X23664134Y-14206484D01*
X23816515Y-14387436D02*
X23826039Y-14396960D01*
X23826039Y-14396960D02*
X23816515Y-14406484D01*
X23816515Y-14406484D02*
X23806991Y-14396960D01*
X23806991Y-14396960D02*
X23816515Y-14387436D01*
X23816515Y-14387436D02*
X23816515Y-14406484D01*
X23949848Y-14206484D02*
X23968896Y-14206484D01*
X23968896Y-14206484D02*
X23987944Y-14216008D01*
X23987944Y-14216008D02*
X23997467Y-14225531D01*
X23997467Y-14225531D02*
X24006991Y-14244579D01*
X24006991Y-14244579D02*
X24016515Y-14282674D01*
X24016515Y-14282674D02*
X24016515Y-14330293D01*
X24016515Y-14330293D02*
X24006991Y-14368388D01*
X24006991Y-14368388D02*
X23997467Y-14387436D01*
X23997467Y-14387436D02*
X23987944Y-14396960D01*
X23987944Y-14396960D02*
X23968896Y-14406484D01*
X23968896Y-14406484D02*
X23949848Y-14406484D01*
X23949848Y-14406484D02*
X23930801Y-14396960D01*
X23930801Y-14396960D02*
X23921277Y-14387436D01*
X23921277Y-14387436D02*
X23911753Y-14368388D01*
X23911753Y-14368388D02*
X23902229Y-14330293D01*
X23902229Y-14330293D02*
X23902229Y-14282674D01*
X23902229Y-14282674D02*
X23911753Y-14244579D01*
X23911753Y-14244579D02*
X23921277Y-14225531D01*
X23921277Y-14225531D02*
X23930801Y-14216008D01*
X23930801Y-14216008D02*
X23949848Y-14206484D01*
X24083182Y-14206484D02*
X24206991Y-14206484D01*
X24206991Y-14206484D02*
X24140325Y-14282674D01*
X24140325Y-14282674D02*
X24168896Y-14282674D01*
X24168896Y-14282674D02*
X24187944Y-14292198D01*
X24187944Y-14292198D02*
X24197467Y-14301722D01*
X24197467Y-14301722D02*
X24206991Y-14320769D01*
X24206991Y-14320769D02*
X24206991Y-14368388D01*
X24206991Y-14368388D02*
X24197467Y-14387436D01*
X24197467Y-14387436D02*
X24187944Y-14396960D01*
X24187944Y-14396960D02*
X24168896Y-14406484D01*
X24168896Y-14406484D02*
X24111753Y-14406484D01*
X24111753Y-14406484D02*
X24092706Y-14396960D01*
X24092706Y-14396960D02*
X24083182Y-14387436D01*
X24302229Y-14406484D02*
X24340325Y-14406484D01*
X24340325Y-14406484D02*
X24359372Y-14396960D01*
X24359372Y-14396960D02*
X24368896Y-14387436D01*
X24368896Y-14387436D02*
X24387944Y-14358865D01*
X24387944Y-14358865D02*
X24397467Y-14320769D01*
X24397467Y-14320769D02*
X24397467Y-14244579D01*
X24397467Y-14244579D02*
X24387944Y-14225531D01*
X24387944Y-14225531D02*
X24378420Y-14216008D01*
X24378420Y-14216008D02*
X24359372Y-14206484D01*
X24359372Y-14206484D02*
X24321277Y-14206484D01*
X24321277Y-14206484D02*
X24302229Y-14216008D01*
X24302229Y-14216008D02*
X24292706Y-14225531D01*
X24292706Y-14225531D02*
X24283182Y-14244579D01*
X24283182Y-14244579D02*
X24283182Y-14292198D01*
X24283182Y-14292198D02*
X24292706Y-14311246D01*
X24292706Y-14311246D02*
X24302229Y-14320769D01*
X24302229Y-14320769D02*
X24321277Y-14330293D01*
X24321277Y-14330293D02*
X24359372Y-14330293D01*
X24359372Y-14330293D02*
X24378420Y-14320769D01*
X24378420Y-14320769D02*
X24387944Y-14311246D01*
X24387944Y-14311246D02*
X24397467Y-14292198D01*
X24568896Y-14273150D02*
X24568896Y-14406484D01*
X24521277Y-14196960D02*
X24473658Y-14339817D01*
X24473658Y-14339817D02*
X24597467Y-14339817D01*
X24664134Y-14206484D02*
X24664134Y-14244579D01*
X24740325Y-14206484D02*
X24740325Y-14244579D01*
X25035563Y-14482674D02*
X25026039Y-14473150D01*
X25026039Y-14473150D02*
X25006991Y-14444579D01*
X25006991Y-14444579D02*
X24997468Y-14425531D01*
X24997468Y-14425531D02*
X24987944Y-14396960D01*
X24987944Y-14396960D02*
X24978420Y-14349341D01*
X24978420Y-14349341D02*
X24978420Y-14311246D01*
X24978420Y-14311246D02*
X24987944Y-14263627D01*
X24987944Y-14263627D02*
X24997468Y-14235055D01*
X24997468Y-14235055D02*
X25006991Y-14216008D01*
X25006991Y-14216008D02*
X25026039Y-14187436D01*
X25026039Y-14187436D02*
X25035563Y-14177912D01*
X25216515Y-14406484D02*
X25102229Y-14406484D01*
X25159372Y-14406484D02*
X25159372Y-14206484D01*
X25159372Y-14206484D02*
X25140325Y-14235055D01*
X25140325Y-14235055D02*
X25121277Y-14254103D01*
X25121277Y-14254103D02*
X25102229Y-14263627D01*
X25397468Y-14206484D02*
X25302229Y-14206484D01*
X25302229Y-14206484D02*
X25292706Y-14301722D01*
X25292706Y-14301722D02*
X25302229Y-14292198D01*
X25302229Y-14292198D02*
X25321277Y-14282674D01*
X25321277Y-14282674D02*
X25368896Y-14282674D01*
X25368896Y-14282674D02*
X25387944Y-14292198D01*
X25387944Y-14292198D02*
X25397468Y-14301722D01*
X25397468Y-14301722D02*
X25406991Y-14320769D01*
X25406991Y-14320769D02*
X25406991Y-14368388D01*
X25406991Y-14368388D02*
X25397468Y-14387436D01*
X25397468Y-14387436D02*
X25387944Y-14396960D01*
X25387944Y-14396960D02*
X25368896Y-14406484D01*
X25368896Y-14406484D02*
X25321277Y-14406484D01*
X25321277Y-14406484D02*
X25302229Y-14396960D01*
X25302229Y-14396960D02*
X25292706Y-14387436D01*
X25645087Y-14406484D02*
X25645087Y-14206484D01*
X25730801Y-14406484D02*
X25730801Y-14301722D01*
X25730801Y-14301722D02*
X25721277Y-14282674D01*
X25721277Y-14282674D02*
X25702230Y-14273150D01*
X25702230Y-14273150D02*
X25673658Y-14273150D01*
X25673658Y-14273150D02*
X25654610Y-14282674D01*
X25654610Y-14282674D02*
X25645087Y-14292198D01*
X25854610Y-14406484D02*
X25835563Y-14396960D01*
X25835563Y-14396960D02*
X25826039Y-14387436D01*
X25826039Y-14387436D02*
X25816515Y-14368388D01*
X25816515Y-14368388D02*
X25816515Y-14311246D01*
X25816515Y-14311246D02*
X25826039Y-14292198D01*
X25826039Y-14292198D02*
X25835563Y-14282674D01*
X25835563Y-14282674D02*
X25854610Y-14273150D01*
X25854610Y-14273150D02*
X25883182Y-14273150D01*
X25883182Y-14273150D02*
X25902230Y-14282674D01*
X25902230Y-14282674D02*
X25911753Y-14292198D01*
X25911753Y-14292198D02*
X25921277Y-14311246D01*
X25921277Y-14311246D02*
X25921277Y-14368388D01*
X25921277Y-14368388D02*
X25911753Y-14387436D01*
X25911753Y-14387436D02*
X25902230Y-14396960D01*
X25902230Y-14396960D02*
X25883182Y-14406484D01*
X25883182Y-14406484D02*
X25854610Y-14406484D01*
X26035563Y-14406484D02*
X26016515Y-14396960D01*
X26016515Y-14396960D02*
X26006991Y-14377912D01*
X26006991Y-14377912D02*
X26006991Y-14206484D01*
X26187944Y-14396960D02*
X26168896Y-14406484D01*
X26168896Y-14406484D02*
X26130801Y-14406484D01*
X26130801Y-14406484D02*
X26111753Y-14396960D01*
X26111753Y-14396960D02*
X26102230Y-14377912D01*
X26102230Y-14377912D02*
X26102230Y-14301722D01*
X26102230Y-14301722D02*
X26111753Y-14282674D01*
X26111753Y-14282674D02*
X26130801Y-14273150D01*
X26130801Y-14273150D02*
X26168896Y-14273150D01*
X26168896Y-14273150D02*
X26187944Y-14282674D01*
X26187944Y-14282674D02*
X26197468Y-14301722D01*
X26197468Y-14301722D02*
X26197468Y-14320769D01*
X26197468Y-14320769D02*
X26102230Y-14339817D01*
X26273658Y-14396960D02*
X26292706Y-14406484D01*
X26292706Y-14406484D02*
X26330801Y-14406484D01*
X26330801Y-14406484D02*
X26349849Y-14396960D01*
X26349849Y-14396960D02*
X26359372Y-14377912D01*
X26359372Y-14377912D02*
X26359372Y-14368388D01*
X26359372Y-14368388D02*
X26349849Y-14349341D01*
X26349849Y-14349341D02*
X26330801Y-14339817D01*
X26330801Y-14339817D02*
X26302230Y-14339817D01*
X26302230Y-14339817D02*
X26283182Y-14330293D01*
X26283182Y-14330293D02*
X26273658Y-14311246D01*
X26273658Y-14311246D02*
X26273658Y-14301722D01*
X26273658Y-14301722D02*
X26283182Y-14282674D01*
X26283182Y-14282674D02*
X26302230Y-14273150D01*
X26302230Y-14273150D02*
X26330801Y-14273150D01*
X26330801Y-14273150D02*
X26349849Y-14282674D01*
X26426039Y-14482674D02*
X26435563Y-14473150D01*
X26435563Y-14473150D02*
X26454611Y-14444579D01*
X26454611Y-14444579D02*
X26464134Y-14425531D01*
X26464134Y-14425531D02*
X26473658Y-14396960D01*
X26473658Y-14396960D02*
X26483182Y-14349341D01*
X26483182Y-14349341D02*
X26483182Y-14311246D01*
X26483182Y-14311246D02*
X26473658Y-14263627D01*
X26473658Y-14263627D02*
X26464134Y-14235055D01*
X26464134Y-14235055D02*
X26454611Y-14216008D01*
X26454611Y-14216008D02*
X26435563Y-14187436D01*
X26435563Y-14187436D02*
X26426039Y-14177912D01*
M02*
