M48
; DRILL file {KiCad 9.0.4} date 2025-09-14T15:24:18+1000
; FORMAT={-:-/ absolute / metric / decimal}
; #@! TF.CreationDate,2025-09-14T15:24:18+10:00
; #@! TF.GenerationSoftware,Kicad,Pcbnew,9.0.4
; #@! TF.FileFunction,Plated,1,4,PTH
FMAT,2
METRIC
; #@! TA.AperFunction,Plated,PTH,ViaDrill
T1C0.300
; #@! TA.AperFunction,Plated,PTH,ComponentDrill
T2C0.800
; #@! TA.AperFunction,Plated,PTH,ComponentDrill
T3C1.000
%
G90
G05
T1
X217.221Y-75.946
X220.574Y-122.225
X222.148Y-100.381
X224.638Y-94.945
X225.095Y-126.644
X226.441Y-88.519
X226.822Y-84.582
X227.94Y-97.13
X229.565Y-67.513
X230.073Y-124.917
X230.124Y-122.326
X230.581Y-117.348
X232.258Y-94.64
X232.461Y-96.825
X232.715Y-110.033
X232.766Y-74.219
X234.493Y-107.29
X235.306Y-67.208
X238.1Y-106.832
X239.725Y-99.873
X239.776Y-91.034
X239.776Y-93.929
X241.198Y-116.434
T2
X221.64Y-64.11
X221.64Y-66.65
X221.64Y-69.19
X221.64Y-71.73
X221.64Y-74.27
X221.64Y-76.81
X221.64Y-79.35
X221.64Y-81.89
X239.42Y-64.11
X239.42Y-66.65
X239.42Y-69.19
X239.42Y-71.73
X239.42Y-74.27
X239.42Y-76.81
X239.42Y-79.35
T3
X217.652Y-64.084
X217.652Y-66.624
X217.805Y-89.535
X217.805Y-92.075
X217.805Y-94.615
X217.805Y-97.155
X217.805Y-99.695
X217.805Y-102.235
X217.805Y-104.775
X217.805Y-107.315
X239.42Y-81.89
X242.57Y-102.616
X242.57Y-105.156
X243.256Y-69.474
X243.256Y-72.014
M30
